{"glyphs":{"0":{"ha":550,"x_min":32,"x_max":518,"o":"m 282 -24 q 162 16 210 -24 q 85 119 114 56 q 44 264 56 183 q 32 426 32 344 q 46 587 32 508 q 91 726 60 665 q 172 825 122 788 q 293 863 222 863 q 375 839 340 863 q 435 778 410 815 q 476 693 460 740 q 502 597 493 646 q 515 503 511 549 q 518 426 518 458 q 506 279 518 358 q 465 133 493 200 q 392 21 438 65 q 282 -24 347 -24 m 133 711 q 153 751 146 738 q 160 768 160 764 q 154 772 160 771 q 142 763 149 772 q 126 737 136 754 q 107 700 117 719 q 91 662 97 681 q 85 633 85 643 q 92 626 85 624 q 103 639 99 629 q 114 668 107 650 q 133 711 121 686 m 283 82 q 351 118 326 82 q 390 208 376 154 q 406 325 403 263 q 410 439 410 388 q 406 524 410 471 q 389 627 401 576 q 353 715 376 678 q 293 751 331 751 q 240 714 263 751 q 203 624 218 676 q 182 515 189 572 q 175 418 175 458 q 175 365 175 397 q 178 294 175 332 q 187 219 181 257 q 205 151 193 182 q 236 101 217 121 q 283 82 256 82 z "},"1":{"ha":340,"x_min":7,"x_max":297,"o":"m 221 0 q 158 65 158 0 l 158 625 q 158 647 158 638 q 154 657 157 657 q 142 647 150 657 q 123 623 133 636 q 101 597 113 610 q 78 578 89 583 q 51 571 65 571 q 19 585 32 571 q 7 618 7 599 q 20 643 7 625 q 43 675 33 661 q 81 724 56 693 q 134 783 106 754 q 189 834 163 813 q 232 856 215 856 q 251 854 240 856 q 273 849 263 853 q 290 837 283 844 q 297 815 297 829 l 297 67 q 274 21 297 42 q 221 0 251 0 m 219 822 q 231 837 226 833 q 231 842 235 840 q 218 838 228 842 q 200 826 208 835 q 182 810 193 819 q 171 794 171 800 q 176 789 171 790 q 200 801 186 788 q 219 822 214 815 m 204 63 q 201 81 204 74 q 197 103 197 88 q 197 115 197 110 q 189 121 196 121 q 181 108 183 121 q 178 79 178 94 q 181 51 178 64 q 189 38 183 38 q 204 63 204 38 z "},"2":{"ha":478,"x_min":29,"x_max":457,"o":"m 63 0 q 40 18 50 0 q 32 53 29 36 q 54 94 35 69 q 96 147 74 119 q 186 276 146 210 q 255 406 226 342 q 299 532 283 471 q 314 646 314 593 q 290 722 314 703 q 238 742 265 742 q 189 719 210 742 q 168 644 168 696 q 175 598 168 614 q 182 560 182 582 q 160 532 182 540 q 124 524 139 524 q 63 560 88 524 q 39 653 39 597 q 53 735 39 697 q 95 802 68 774 q 159 847 122 831 q 239 864 196 864 q 320 848 281 864 q 390 802 360 832 q 439 730 421 772 q 457 635 457 688 q 440 506 457 569 q 398 385 424 442 q 343 279 372 328 q 288 194 314 231 q 246 136 263 158 q 229 110 229 114 q 240 110 233 110 l 274 110 l 394 114 q 432 110 419 115 q 450 94 444 104 q 456 69 456 83 q 456 40 456 56 q 441 8 456 15 q 382 0 426 0 l 63 0 m 85 678 q 83 704 86 694 q 76 713 81 714 q 67 703 71 713 q 63 683 64 694 q 63 660 63 671 q 63 646 63 650 q 69 625 65 628 q 79 628 76 618 q 85 678 82 638 m 88 589 q 78 599 88 599 q 68 588 68 599 q 71 581 68 585 q 76 576 74 576 q 85 581 82 576 q 88 589 88 585 m 86 69 q 93 96 97 96 q 73 83 83 96 q 63 56 63 71 q 68 44 63 44 q 86 69 75 44 z "},"3":{"ha":482,"x_min":13,"x_max":463,"o":"m 310 675 q 290 733 310 715 q 232 750 271 750 q 164 715 186 750 q 142 597 142 679 q 127 569 142 578 q 97 561 113 561 q 13 685 13 561 q 31 755 13 722 q 80 812 50 788 q 149 850 110 836 q 226 864 188 864 q 331 849 288 864 q 403 807 375 833 q 444 747 431 781 q 458 676 458 713 q 434 581 458 621 q 380 512 410 540 q 326 467 350 483 q 301 442 301 450 q 326 424 301 433 q 382 394 351 415 q 438 335 413 374 q 463 232 463 297 q 438 123 463 168 q 374 49 414 78 q 285 6 335 19 q 183 -8 235 -8 q 133 -2 161 -8 q 81 17 106 4 q 40 51 57 31 q 24 99 24 71 q 32 133 24 119 q 56 146 40 146 q 88 140 74 146 q 117 126 103 133 q 149 112 132 118 q 186 106 165 106 q 249 117 224 106 q 288 146 274 128 q 308 186 303 164 q 314 231 314 208 q 289 306 314 275 q 224 336 264 336 q 142 357 165 336 q 118 406 118 378 q 148 465 118 432 q 214 532 178 497 q 280 603 250 567 q 310 675 310 640 m 69 715 q 68 742 71 732 q 61 750 65 751 q 51 742 56 750 q 42 722 46 733 q 37 700 39 711 q 36 683 35 689 q 43 663 39 665 q 58 665 50 656 q 69 715 67 675 m 61 626 q 51 636 61 636 q 42 625 42 636 q 44 618 42 622 q 50 614 47 614 q 58 618 56 614 q 61 626 61 622 m 164 404 q 172 422 167 411 q 185 443 178 433 q 192 458 190 451 q 190 465 193 465 q 176 457 185 465 q 160 438 168 449 q 147 415 153 426 q 142 394 142 403 q 149 382 142 382 q 164 404 156 382 m 67 111 q 54 128 67 140 q 44 108 47 121 q 43 86 42 96 q 47 78 44 81 q 53 76 50 76 q 61 88 56 76 q 67 111 67 100 z "},"4":{"ha":538,"x_min":29,"x_max":503,"o":"m 415 0 q 370 27 382 0 q 358 86 358 54 l 358 181 q 340 197 358 197 l 89 197 q 44 211 58 197 q 29 240 29 225 q 41 291 29 247 q 70 397 53 335 q 108 531 88 460 q 148 664 129 601 q 181 771 167 726 q 199 822 194 815 q 224 848 210 843 q 251 853 238 853 q 271 850 258 853 q 295 842 283 847 q 316 831 307 838 q 325 815 325 824 q 318 776 325 807 q 300 699 311 744 q 275 601 289 654 q 247 498 261 549 q 221 405 233 447 q 200 338 208 363 q 196 326 197 331 q 194 318 194 322 q 206 311 194 311 l 340 311 q 355 315 351 311 q 358 326 358 318 l 358 744 q 365 801 358 779 q 381 835 371 822 q 403 851 390 847 q 429 856 415 856 q 485 829 467 856 q 503 764 503 803 l 503 97 q 496 49 503 68 q 476 19 489 29 q 448 4 464 8 q 415 0 432 0 m 386 751 q 397 760 392 751 q 405 779 401 768 q 410 802 408 790 q 413 821 413 814 q 403 831 413 831 q 394 824 399 831 q 387 809 390 818 q 381 791 383 800 q 378 775 378 782 q 379 759 378 767 q 386 751 381 751 m 90 299 q 99 326 96 317 q 101 349 103 336 q 94 360 101 360 q 85 349 90 360 q 76 325 81 339 q 68 297 71 311 q 65 276 65 283 q 72 261 65 261 q 90 299 82 263 m 76 235 q 65 249 76 249 q 54 235 54 249 q 56 231 54 232 q 65 225 61 225 q 72 228 68 225 q 76 235 76 231 m 404 40 q 396 52 400 49 q 392 63 392 56 q 390 74 392 68 q 383 85 390 85 q 375 69 375 85 q 381 40 375 58 q 396 21 388 21 q 404 27 400 21 q 404 40 408 33 z "},"5":{"ha":522,"x_min":36,"x_max":486,"o":"m 122 -11 q 74 -2 92 -11 q 49 19 57 7 q 38 45 40 32 q 36 67 36 58 q 44 97 36 86 q 64 113 51 108 q 92 119 76 118 q 122 119 107 119 q 294 156 243 119 q 344 272 344 193 q 308 385 344 349 q 204 421 272 421 q 161 417 178 421 q 132 408 144 413 q 108 399 119 403 q 83 394 97 394 q 61 407 69 394 q 49 437 53 419 q 44 474 44 454 q 43 508 43 494 l 43 789 q 62 841 43 826 q 107 856 81 856 l 431 856 q 451 845 442 856 q 461 815 461 835 q 451 767 461 790 q 428 744 440 744 l 194 743 q 185 737 188 743 q 182 724 182 731 l 182 554 q 186 529 182 532 q 200 526 190 526 l 233 528 q 335 516 289 531 q 415 469 382 501 q 467 389 449 438 q 486 274 486 340 q 464 169 486 219 q 397 78 442 118 q 283 13 351 38 q 122 -11 215 -11 m 82 560 q 81 600 82 586 q 71 606 79 614 q 64 585 67 601 q 61 549 61 568 q 64 513 61 529 q 71 492 67 496 q 76 488 75 488 q 82 560 82 488 m 93 453 q 86 467 93 467 q 71 447 71 467 q 82 438 71 438 q 91 444 89 438 q 93 453 93 450 m 81 67 q 80 75 79 69 q 81 85 81 81 q 81 94 82 90 q 74 97 79 97 q 64 85 67 97 q 63 58 61 74 q 68 30 64 43 q 81 17 72 17 q 85 32 83 17 q 81 67 88 47 z "},"6":{"ha":565,"x_min":21,"x_max":550,"o":"m 288 -15 q 165 12 215 -15 q 82 85 114 39 q 35 190 50 131 q 21 313 21 249 q 32 456 21 383 q 67 596 43 529 q 128 719 90 663 q 221 815 167 776 q 299 852 260 843 q 368 861 338 861 q 385 859 375 861 q 406 853 396 857 q 423 842 415 849 q 431 824 431 835 q 424 788 431 804 q 379 760 417 772 q 314 724 343 747 q 262 670 285 700 q 222 605 239 640 q 193 535 206 569 q 181 492 186 518 q 175 451 175 467 q 181 438 175 438 q 194 451 185 438 q 222 479 204 464 q 267 508 240 494 q 331 521 293 521 q 494 449 438 521 q 550 260 550 376 q 529 153 550 203 q 472 65 508 103 q 388 6 436 28 q 288 -15 340 -15 m 281 111 q 374 148 339 111 q 410 264 410 185 q 406 311 410 288 q 390 354 401 335 q 360 385 379 374 q 313 397 342 397 q 259 383 286 397 q 211 348 232 369 q 177 299 190 326 q 164 247 164 272 q 188 151 164 190 q 281 111 213 111 m 106 149 q 96 177 101 164 q 86 206 90 190 q 81 221 83 214 q 74 226 79 228 q 67 215 69 226 q 70 188 65 206 q 82 153 75 169 q 97 124 89 136 q 107 113 104 113 q 114 119 114 113 q 111 132 114 125 q 106 149 108 139 z "},"7":{"ha":442,"x_min":14,"x_max":446,"o":"m 121 -3 q 88 9 101 -3 q 75 35 75 21 q 89 97 75 47 q 124 217 103 147 q 169 365 144 286 q 217 515 194 444 q 258 640 240 586 q 283 714 276 694 q 274 735 290 735 l 93 735 q 35 747 56 735 q 14 796 14 758 q 37 844 14 833 q 96 856 60 856 l 389 856 q 429 841 413 856 q 446 807 446 826 q 431 735 446 793 q 391 596 415 676 q 337 422 367 515 q 279 244 307 328 q 229 99 251 161 q 196 15 207 36 q 173 3 193 8 q 121 -3 153 -3 m 58 825 q 51 836 58 836 q 35 826 44 836 q 26 800 26 815 q 38 772 26 772 q 46 778 42 772 q 53 793 50 785 q 57 810 56 801 q 58 825 58 819 m 121 53 q 126 81 124 67 q 132 101 129 96 q 135 115 138 108 q 126 122 133 122 q 117 113 122 122 q 109 90 113 103 q 103 63 106 76 q 100 43 100 50 q 107 26 100 26 q 121 53 114 26 z "},"8":{"ha":565,"x_min":21,"x_max":544,"o":"m 271 -8 q 169 12 215 -8 q 90 65 122 32 q 39 140 57 97 q 21 226 21 182 q 44 317 21 279 q 97 381 68 354 q 149 424 125 407 q 172 451 172 442 q 151 475 172 463 q 103 510 129 488 q 55 566 76 532 q 33 654 33 600 q 53 738 33 699 q 108 806 74 776 q 188 851 143 835 q 281 868 232 868 q 358 853 317 868 q 435 812 400 839 q 494 744 471 785 q 517 651 517 704 q 497 569 517 600 q 455 519 478 538 q 413 490 432 500 q 393 472 393 481 q 417 444 393 460 q 469 402 440 428 q 521 336 497 376 q 544 235 544 296 q 523 145 544 189 q 464 67 501 101 q 377 12 426 32 q 271 -8 328 -8 m 93 711 q 101 729 94 719 q 117 748 108 739 q 133 765 125 757 q 144 776 140 772 q 160 803 160 793 q 154 808 160 808 q 127 795 142 808 q 100 763 113 782 q 79 726 88 744 q 71 696 71 707 q 76 685 71 685 q 93 711 86 685 m 281 515 q 316 527 299 515 q 347 558 333 539 q 370 602 361 578 q 379 651 379 626 q 351 735 379 700 q 279 771 324 771 q 203 740 235 771 q 171 657 171 710 q 178 613 171 638 q 199 567 185 589 q 233 530 213 544 q 281 515 254 515 m 79 651 q 69 664 79 664 q 60 660 63 664 q 58 651 58 656 q 60 646 58 649 q 68 640 63 640 q 75 643 71 640 q 79 651 79 646 m 274 101 q 365 136 340 101 q 389 235 389 171 q 378 290 389 261 q 352 342 368 318 q 318 381 336 365 q 285 396 300 396 q 243 380 264 396 q 206 340 222 364 q 178 285 189 315 q 168 226 168 256 q 176 182 168 204 q 197 142 183 160 q 229 113 210 124 q 274 101 249 101 m 85 308 q 85 324 89 319 q 71 318 81 328 q 60 303 67 314 q 47 281 53 293 q 35 255 40 268 q 31 231 31 242 q 34 209 29 219 q 49 199 39 199 q 58 216 60 199 q 60 249 57 233 q 72 283 64 269 q 85 308 81 297 z "},"9":{"ha":558,"x_min":17,"x_max":544,"o":"m 278 865 q 406 835 354 865 q 488 758 457 806 q 531 653 518 711 q 544 538 544 594 q 528 394 544 467 q 484 257 513 322 q 417 138 456 192 q 332 47 378 83 q 255 3 294 18 q 185 -11 215 -11 q 142 -2 160 -11 q 125 29 125 7 q 136 72 125 50 q 185 106 147 93 q 249 139 221 118 q 300 188 278 160 q 338 248 322 215 q 367 315 354 281 q 379 358 374 332 q 385 399 385 383 q 379 413 385 413 q 366 401 375 413 q 339 378 357 390 q 293 354 321 365 q 224 343 265 343 q 72 410 126 343 q 17 590 17 476 q 33 693 17 643 q 83 781 50 743 q 165 842 117 819 q 278 865 214 865 m 285 743 q 191 706 226 743 q 156 600 156 668 q 181 506 156 542 q 253 471 207 471 q 306 482 281 471 q 351 511 332 493 q 383 553 371 529 q 396 603 396 578 q 391 657 396 632 q 374 701 386 682 q 340 732 361 721 q 285 743 318 743 m 86 675 q 92 699 89 689 q 96 718 96 710 q 86 728 96 728 q 74 710 82 728 q 60 667 67 692 q 50 617 54 642 q 49 576 46 592 q 60 560 53 560 q 70 570 67 560 q 76 592 74 581 q 82 635 82 615 q 86 675 82 654 m 81 528 q 78 540 81 535 q 72 544 76 544 q 60 540 65 544 q 54 522 54 536 q 58 514 54 518 q 67 510 61 510 q 78 517 75 510 q 81 528 81 525 m 181 81 q 174 83 181 85 q 161 76 168 82 q 149 61 154 71 q 143 39 143 51 q 145 28 143 36 q 153 19 147 19 q 162 28 157 19 q 171 49 167 38 q 178 71 175 61 q 181 81 181 81 z "},"\u0000":{"ha":0,"x_min":0,"x_max":0,"o":""},"\r":{"ha":347,"x_min":0,"x_max":0,"o":""}," ":{"ha":382,"x_min":0,"x_max":0,"o":""},".":{"ha":203,"x_min":8,"x_max":178,"o":"m 92 -8 q 33 13 57 -8 q 8 72 8 35 q 33 138 8 108 q 96 168 57 168 q 178 85 178 168 q 153 22 178 51 q 92 -8 129 -8 m 44 57 q 52 67 51 57 q 56 82 53 76 q 71 108 61 97 q 89 135 81 119 q 88 142 90 138 q 83 146 86 146 q 67 138 75 146 q 51 117 58 129 q 40 93 44 106 q 36 74 36 81 q 37 64 36 71 q 44 57 38 57 z "},"A":{"ha":626,"x_min":18,"x_max":607,"o":"m 321 863 q 394 849 365 863 q 435 815 424 835 q 459 742 443 799 q 494 607 475 685 q 533 442 513 529 q 569 276 553 354 q 597 141 586 199 q 607 67 607 83 q 578 17 607 39 q 515 -4 549 -4 q 469 15 482 -4 q 456 44 464 24 q 439 93 447 65 q 423 151 431 121 q 410 211 415 182 q 394 245 404 239 q 369 251 383 251 q 299 252 329 251 q 253 253 268 253 q 212 247 225 253 q 194 225 199 240 l 158 86 q 123 22 147 46 q 68 -3 99 -3 q 18 67 18 -3 q 24 133 18 90 q 38 228 29 175 q 60 342 47 282 q 88 465 74 403 q 118 585 103 526 q 149 690 133 643 q 183 776 165 743 q 219 829 200 810 q 263 856 239 849 q 321 863 288 863 m 236 779 q 264 813 251 797 q 267 831 276 829 q 222 804 244 835 q 200 754 207 781 q 204 725 193 728 q 210 730 207 725 q 215 743 213 735 q 223 761 218 751 q 236 779 228 771 m 258 524 q 238 415 243 444 q 246 385 233 385 l 368 385 q 374 412 379 385 q 357 496 368 439 q 350 547 354 511 q 340 618 346 582 q 326 683 333 654 q 311 711 319 711 q 296 686 304 711 q 280 628 288 661 q 267 565 272 596 q 258 524 261 535 m 63 88 q 63 114 65 104 q 54 125 60 124 q 48 122 51 125 q 42 107 44 118 q 40 53 36 79 q 56 25 44 28 q 61 46 69 22 q 59 65 58 54 q 63 88 60 75 m 486 89 q 474 115 476 108 q 468 122 471 122 q 461 108 464 122 q 465 88 461 103 q 474 59 468 74 q 487 33 479 44 q 501 22 494 22 q 506 29 506 22 q 502 47 506 36 q 494 69 499 58 q 486 89 490 81 z "},"B":{"ha":564,"x_min":24,"x_max":544,"o":"m 92 0 q 38 31 53 0 q 24 143 24 61 l 24 738 q 42 826 24 797 q 107 856 60 856 q 148 841 133 856 q 163 814 163 826 q 163 779 163 792 q 171 767 164 767 q 183 782 175 767 q 208 816 192 797 q 250 850 225 835 q 313 865 275 865 q 396 848 358 865 q 460 800 433 831 q 503 728 488 769 q 518 640 518 688 q 503 548 518 585 q 464 489 488 511 q 414 456 440 467 q 364 440 388 444 q 325 435 340 436 q 310 431 310 433 q 327 426 310 428 q 371 422 344 425 q 427 408 397 418 q 483 376 457 397 q 527 319 510 354 q 544 228 544 283 q 519 130 544 172 q 455 58 494 88 q 367 15 415 29 q 272 0 318 0 l 92 0 m 74 743 q 71 749 72 746 q 67 767 67 756 q 73 790 67 779 q 87 808 79 800 q 101 822 94 817 q 107 831 107 828 q 93 838 107 838 q 58 815 74 838 q 43 757 43 792 q 47 731 43 742 q 58 721 51 721 q 68 727 63 721 q 74 743 74 733 m 250 501 q 328 538 297 501 q 360 633 360 574 q 341 703 360 675 q 285 731 322 731 q 240 721 260 731 q 208 695 221 711 q 189 659 196 679 q 182 618 182 639 l 182 546 q 190 514 182 526 q 208 501 197 501 l 250 501 m 260 126 q 348 154 310 126 q 386 243 386 182 q 344 328 386 304 q 243 353 303 353 l 208 353 q 182 297 182 353 l 182 176 q 188 135 182 143 q 221 126 194 126 l 260 126 m 60 101 q 65 115 63 101 q 67 147 67 129 q 68 183 68 165 q 68 206 68 200 q 65 255 68 246 q 57 264 61 264 q 51 255 54 264 q 47 206 47 246 q 49 124 47 146 q 60 101 51 101 m 60 82 q 49 67 49 82 q 53 52 49 56 q 61 49 57 49 q 69 67 69 49 q 68 79 69 76 q 60 82 67 82 z "},"C":{"ha":536,"x_min":15,"x_max":517,"o":"m 294 -14 q 179 17 231 -14 q 92 103 128 47 q 35 235 56 158 q 15 406 15 313 q 37 588 15 504 q 98 734 58 672 q 192 831 138 796 q 310 865 246 865 q 390 850 353 865 q 456 808 428 835 q 501 745 485 781 q 517 668 517 710 q 460 589 517 589 q 406 614 428 589 q 383 676 385 639 q 329 733 381 733 q 267 709 294 733 q 221 641 240 685 q 191 537 201 597 q 181 403 181 476 q 213 197 181 271 q 310 122 246 122 q 361 139 340 122 q 382 181 382 156 q 389 208 382 194 q 407 231 396 221 q 432 248 418 242 q 460 254 446 254 q 500 233 485 254 q 515 175 515 211 q 498 102 515 136 q 450 42 481 68 q 379 1 419 17 q 294 -14 339 -14 m 132 713 q 153 730 136 713 q 191 768 169 747 q 238 806 213 789 q 283 821 263 822 q 297 823 290 819 q 303 831 303 826 q 288 844 306 842 q 237 833 264 847 q 185 799 210 819 q 144 757 161 779 q 126 719 128 735 q 132 713 126 713 m 118 697 q 106 689 111 697 q 99 669 100 681 q 103 657 99 657 q 113 663 107 657 q 121 676 118 668 q 124 690 124 683 q 118 697 124 697 z "},"D":{"ha":568,"x_min":22,"x_max":551,"o":"m 149 0 q 101 6 124 0 q 60 25 78 11 q 33 63 43 39 q 22 122 22 86 l 22 717 q 35 781 22 754 q 70 826 49 808 q 121 851 92 843 q 182 858 150 858 l 244 858 q 360 831 304 858 q 458 752 415 804 q 526 624 500 700 q 551 453 551 549 q 525 267 551 351 q 454 124 499 183 q 350 33 410 65 q 225 0 290 0 l 149 0 m 218 133 q 286 156 254 133 q 341 222 318 179 q 377 324 364 264 q 390 457 390 383 q 349 656 390 589 q 240 722 307 722 l 219 722 q 188 712 196 722 q 181 667 181 701 l 181 183 q 185 144 181 156 q 200 133 190 133 l 218 133 m 65 115 q 73 130 71 115 q 75 163 75 144 q 74 199 75 182 q 74 224 74 217 q 65 300 74 300 q 57 283 61 300 q 53 224 53 265 q 53 138 53 161 q 65 115 54 115 m 64 96 q 54 81 54 96 q 65 56 54 56 q 72 64 69 56 q 75 81 75 72 q 64 96 75 96 z "},"E":{"ha":503,"x_min":32,"x_max":481,"o":"m 271 -6 q 174 2 218 -6 q 99 29 131 10 q 49 81 67 49 q 32 164 32 114 l 32 732 q 42 792 32 768 q 69 831 53 817 q 103 850 85 844 q 140 856 122 856 l 411 856 q 449 836 436 856 q 461 793 461 817 q 450 747 461 769 q 417 722 439 724 l 221 717 q 199 707 207 717 q 190 683 190 697 l 190 556 q 221 514 190 514 l 386 515 q 423 493 414 515 q 432 443 432 471 q 424 407 432 425 q 388 388 415 389 l 228 382 q 198 371 206 381 q 190 339 190 361 l 190 247 q 192 195 190 218 q 201 156 193 172 q 228 132 210 140 q 282 124 247 124 q 328 130 306 124 q 373 144 351 136 q 413 159 394 153 q 444 165 431 165 q 461 158 454 165 q 472 138 468 150 q 478 114 476 126 q 481 90 481 101 q 456 44 481 63 q 397 14 431 25 q 327 -1 363 3 q 271 -6 292 -6 m 121 83 q 92 127 104 106 q 76 169 79 149 q 64 188 72 189 q 57 163 53 188 q 65 132 58 150 q 79 99 71 114 q 99 73 88 83 q 122 64 110 63 q 121 83 133 67 z "},"F":{"ha":468,"x_min":32,"x_max":450,"o":"m 118 0 q 56 13 81 0 q 32 68 32 26 l 32 754 q 72 833 32 808 q 174 857 111 857 l 410 856 q 438 840 425 856 q 450 804 450 824 q 448 780 450 794 q 442 752 446 765 q 431 730 438 739 q 417 721 425 721 l 226 722 q 190 686 190 722 l 190 479 q 199 459 190 465 q 222 453 208 453 l 369 457 q 389 450 381 457 q 404 431 397 443 q 415 407 411 419 q 418 383 418 394 q 365 328 418 329 l 218 324 q 199 315 207 324 q 190 296 190 307 l 190 67 q 184 31 190 44 q 167 11 178 18 q 144 2 157 4 q 118 0 131 0 m 101 36 q 88 58 100 43 q 74 108 76 74 q 66 131 71 126 q 58 135 61 135 q 53 126 56 135 q 54 104 51 118 q 57 84 54 97 q 65 58 60 71 q 76 35 69 44 q 93 26 83 25 q 101 36 101 26 z "},"G":{"ha":610,"x_min":19,"x_max":596,"o":"m 335 -7 q 181 39 242 -7 q 83 154 119 85 q 33 304 47 224 q 19 456 19 385 q 35 608 19 533 q 89 740 51 682 q 187 833 126 797 q 336 868 247 868 q 419 856 379 868 q 489 819 458 844 q 538 751 519 793 q 556 647 556 708 q 547 612 556 625 q 524 591 538 599 q 497 581 511 583 q 475 579 483 579 q 438 593 456 579 q 421 647 421 607 q 392 735 421 710 q 324 760 364 760 q 270 737 296 760 q 225 672 244 714 q 194 569 206 629 q 183 436 183 510 q 188 340 183 396 q 210 235 193 285 q 257 149 226 185 q 338 114 288 114 q 401 134 378 114 q 434 183 424 154 q 447 244 444 213 q 447 297 449 275 q 428 322 446 319 q 379 324 411 324 l 308 324 q 293 332 300 324 q 282 352 286 340 q 275 376 278 364 q 272 397 272 389 q 287 437 272 419 q 333 454 301 454 l 483 453 q 561 425 526 453 q 596 346 596 397 q 583 224 596 286 q 539 110 569 161 q 458 26 508 58 q 335 -7 408 -7 m 203 81 q 175 117 203 86 q 150 148 163 129 q 127 185 138 167 q 110 219 117 203 q 104 240 104 235 q 100 249 104 247 q 94 251 96 251 q 83 236 83 251 q 96 193 83 221 q 126 138 108 165 q 162 92 143 111 q 194 72 181 72 q 203 81 203 72 m 235 63 q 225 72 235 72 q 217 68 219 72 q 215 61 215 64 q 219 53 215 54 q 225 51 222 51 q 235 63 235 51 z "},"H":{"ha":531,"x_min":14,"x_max":517,"o":"m 431 0 q 393 13 407 0 q 372 45 379 26 q 363 87 365 64 q 361 128 361 110 l 361 329 q 358 356 361 347 q 343 365 354 365 l 194 365 q 175 361 181 365 q 169 343 169 357 l 169 146 q 167 101 169 126 q 156 53 164 75 q 133 15 147 31 q 97 0 119 0 q 56 12 72 0 q 30 43 39 24 q 17 89 21 63 q 14 146 14 115 l 14 758 q 17 783 14 767 q 29 815 21 799 q 53 844 38 832 q 93 856 68 856 q 128 846 114 856 q 152 821 143 836 q 165 788 161 806 q 169 756 169 771 l 169 513 q 173 493 169 501 q 188 485 176 485 l 346 483 q 357 487 353 483 q 361 510 361 490 l 361 750 q 378 829 361 803 q 424 856 394 856 q 455 850 439 856 q 485 831 471 844 q 508 797 499 818 q 517 746 517 776 l 517 126 q 512 85 517 107 q 497 44 507 63 q 469 13 486 25 q 431 0 453 0 m 38 771 q 48 777 42 771 q 60 792 54 783 q 72 810 67 801 q 79 824 78 819 q 80 834 81 828 q 75 839 79 840 q 58 830 65 838 q 46 813 51 822 q 38 794 40 803 q 35 782 35 786 q 35 776 35 779 q 38 771 35 772 m 413 799 q 422 821 414 810 q 421 833 429 832 q 398 822 410 835 q 383 789 386 808 q 390 767 382 769 q 406 779 401 765 q 413 799 411 793 m 72 42 q 67 54 72 49 q 57 83 60 61 q 54 119 54 104 q 44 143 54 143 q 38 133 39 143 q 36 119 36 124 q 38 100 36 114 q 42 72 39 86 q 50 48 44 58 q 64 38 56 38 q 72 42 72 38 m 414 36 q 399 69 406 44 q 393 107 393 94 q 390 113 393 113 q 383 102 386 113 q 381 81 381 92 q 388 44 381 64 q 414 24 394 24 q 417 28 418 24 q 414 36 417 33 z "},"I":{"ha":322,"x_min":13,"x_max":303,"o":"m 74 1 q 42 8 58 1 q 25 33 25 14 q 38 58 25 47 q 75 69 51 69 q 90 77 85 69 q 94 94 94 85 l 94 761 q 83 780 94 772 q 61 788 72 788 q 22 799 32 788 q 13 825 13 810 q 45 852 13 844 q 169 860 78 860 q 237 858 211 860 q 277 854 263 857 q 297 847 292 851 q 303 835 303 842 q 287 803 303 815 q 258 786 271 790 q 243 760 243 781 l 243 94 q 244 78 243 88 q 253 67 246 69 q 277 60 267 63 q 292 54 288 57 q 299 38 299 47 q 288 11 299 19 q 250 3 279 4 q 185 0 221 1 q 120 0 153 -1 q 74 1 88 1 m 142 207 q 139 256 142 236 q 129 275 136 275 q 122 255 125 275 q 117 210 118 235 q 118 164 117 186 q 124 138 119 142 q 137 142 132 129 q 142 207 142 156 m 142 107 q 136 115 142 113 q 131 117 133 117 q 121 115 125 117 q 117 107 117 114 q 129 96 117 96 q 142 107 142 96 z "},"J":{"ha":496,"x_min":11,"x_max":467,"o":"m 243 -11 q 136 6 181 -11 q 64 53 92 24 q 24 123 36 83 q 11 207 11 163 q 29 308 11 282 q 69 333 47 333 q 93 331 81 333 q 117 320 106 328 q 135 299 128 313 q 142 261 142 285 q 144 213 142 239 q 153 164 146 186 q 176 127 161 142 q 219 113 192 113 q 261 119 244 113 q 288 145 278 126 q 303 196 299 164 q 307 276 307 228 q 308 403 307 329 q 308 572 308 476 l 308 718 q 298 737 308 729 q 276 744 288 744 l 219 744 q 113 758 144 744 q 82 804 82 772 q 93 835 82 825 q 129 850 104 846 q 194 855 154 854 q 293 856 235 856 q 417 846 376 856 q 465 811 458 836 q 467 776 467 807 q 467 698 467 744 q 466 597 467 651 q 465 490 465 542 q 464 343 464 401 q 463 246 464 285 q 459 180 463 207 q 449 125 456 153 q 417 65 439 90 q 365 22 394 39 q 304 -3 336 6 q 243 -11 272 -11 m 160 825 q 157 833 163 832 q 128 831 147 836 q 107 815 110 825 q 107 806 106 811 q 111 800 108 801 q 140 807 122 797 q 160 825 157 817 m 40 200 q 49 218 47 201 q 53 240 51 235 q 59 269 56 254 q 72 297 63 285 q 78 310 79 304 q 75 315 78 313 q 69 315 72 317 q 49 301 57 314 q 36 274 40 289 q 31 244 32 258 q 29 226 29 231 q 33 207 31 215 q 40 200 36 199 z "},"K":{"ha":540,"x_min":26,"x_max":533,"o":"m 94 0 q 51 15 65 0 q 33 53 38 31 q 28 101 28 76 q 28 146 28 126 l 28 283 l 26 558 l 26 696 q 29 763 26 733 q 40 813 32 792 q 65 844 49 833 q 108 856 81 856 q 165 830 140 856 q 189 763 189 804 q 188 735 189 756 q 188 685 188 714 q 188 626 188 657 q 188 569 188 596 q 190 526 188 543 q 194 510 192 510 q 216 535 200 510 q 253 599 232 561 q 300 683 275 638 q 350 766 325 728 q 398 830 375 804 q 436 856 421 856 q 464 851 449 856 q 492 839 479 847 q 513 818 504 831 q 521 788 521 806 q 506 747 521 776 q 468 679 490 717 q 419 600 446 642 q 371 523 393 558 q 333 463 349 488 q 318 435 318 439 q 334 403 318 429 q 374 340 350 376 q 426 262 397 304 q 478 181 454 219 q 517 111 501 142 q 533 67 533 81 q 522 36 533 49 q 493 15 510 24 q 460 3 476 7 q 432 -1 443 -1 q 392 24 413 -1 q 354 79 371 50 q 337 112 349 89 q 309 164 325 135 q 276 224 293 193 q 242 282 258 256 q 215 325 226 308 q 197 342 203 342 q 186 326 186 342 q 186 299 186 310 l 186 228 l 188 174 l 188 142 q 165 35 188 71 q 94 0 143 0 m 53 779 q 66 783 60 778 q 77 797 72 789 q 86 813 82 804 q 92 828 90 822 q 89 835 93 832 q 81 839 85 839 q 69 832 75 839 q 59 816 64 825 q 51 798 54 807 q 49 785 49 789 q 53 779 49 779 m 400 775 q 413 781 404 775 q 429 796 421 788 q 443 813 438 804 q 447 828 449 822 q 442 833 447 833 q 428 828 438 835 q 410 813 419 822 q 395 796 401 804 q 390 783 389 788 q 400 775 393 776 m 74 97 q 74 117 74 103 q 72 147 74 132 q 68 174 71 163 q 60 186 65 186 q 52 179 56 186 q 47 163 49 172 q 45 144 46 153 q 44 132 44 135 q 44 115 44 126 q 47 90 44 103 q 53 69 49 78 q 65 60 57 60 q 70 65 68 60 q 73 77 72 71 q 74 90 74 83 q 74 97 74 96 m 436 29 q 432 42 436 33 q 422 60 428 51 q 408 75 415 68 q 397 82 401 82 q 393 77 394 82 q 392 69 392 72 q 395 57 392 65 q 403 40 399 49 q 415 26 408 32 q 428 21 422 21 q 436 29 436 21 m 88 35 q 86 45 90 40 q 76 50 82 50 q 66 45 69 50 q 65 35 63 40 q 76 24 68 24 q 88 35 85 24 z "},"L":{"ha":446,"x_min":44,"x_max":425,"o":"m 83 0 q 56 11 68 0 q 44 38 44 22 l 44 768 q 47 799 44 783 q 57 826 49 814 q 81 847 65 839 q 125 856 97 856 q 180 831 157 856 q 203 778 203 806 l 203 168 q 213 137 203 143 q 235 131 222 131 q 277 131 258 131 q 313 133 296 132 q 349 134 331 133 q 392 135 368 135 q 418 115 411 135 q 425 75 425 94 q 408 23 425 47 q 371 -1 390 -1 l 306 -1 l 190 0 l 83 0 m 69 763 q 80 772 74 763 q 92 793 86 781 q 103 817 99 806 q 108 832 108 828 q 97 839 108 839 q 83 830 90 839 q 72 810 76 821 q 64 788 67 799 q 63 771 61 776 q 69 763 63 763 m 85 82 q 94 97 92 82 q 99 134 97 113 q 99 178 100 156 q 99 215 99 201 q 98 229 99 221 q 95 246 97 238 q 90 260 93 254 q 79 265 86 265 q 73 253 75 265 q 69 226 71 242 q 68 198 68 211 q 68 181 68 185 q 69 160 68 176 q 72 127 69 144 q 76 96 74 110 q 85 82 79 82 m 108 42 q 99 57 108 57 q 85 42 85 57 q 96 31 85 31 q 104 33 100 31 q 108 42 108 36 z "},"M":{"ha":683,"x_min":31,"x_max":660,"o":"m 569 0 q 531 14 544 0 q 512 48 518 28 q 504 90 506 68 q 503 128 503 113 l 507 536 q 504 558 507 546 q 493 569 501 569 q 464 539 483 569 q 422 471 444 508 q 376 403 400 433 q 331 372 351 372 q 294 393 314 372 q 255 443 275 414 q 217 503 235 472 q 188 553 200 533 q 178 563 182 563 q 172 552 174 563 q 171 532 171 542 l 171 122 q 144 30 171 60 q 79 0 117 0 q 44 26 58 0 q 31 117 31 51 l 31 621 q 31 677 31 649 q 33 733 31 706 q 40 783 35 760 q 53 819 44 806 q 74 844 61 833 q 104 856 88 856 q 149 838 126 856 q 193 792 172 819 q 233 730 214 764 q 269 665 253 696 q 298 610 285 635 q 319 576 311 586 q 333 568 326 568 q 344 576 340 568 q 381 642 357 596 q 435 736 406 689 q 494 819 464 783 q 551 856 525 856 q 610 832 589 856 q 643 777 632 808 q 657 715 654 746 q 660 667 660 683 l 660 122 q 653 78 660 100 q 634 38 646 56 q 606 10 622 21 q 569 0 589 0 m 65 714 q 78 767 68 736 q 104 824 88 797 q 102 831 107 828 q 94 833 97 833 q 78 824 86 833 q 63 799 69 814 q 52 767 57 783 q 47 739 47 751 q 47 717 46 728 q 53 704 47 706 q 61 707 57 704 q 65 714 65 710 m 564 31 q 555 64 564 46 q 546 107 546 82 q 543 120 546 114 q 531 126 540 126 q 523 121 525 126 q 521 110 521 115 q 524 88 521 103 q 531 59 526 74 q 544 34 536 44 q 560 24 551 24 q 564 31 564 24 m 83 26 q 80 41 83 31 q 72 62 76 51 q 61 81 67 72 q 50 89 56 89 q 47 78 47 89 q 50 53 47 67 q 60 28 53 39 q 76 17 67 17 q 83 26 83 17 z "},"N":{"ha":610,"x_min":26,"x_max":576,"o":"m 100 0 q 62 13 76 0 q 40 47 47 26 q 29 94 32 68 q 26 143 26 119 l 26 782 q 48 838 26 819 q 93 856 69 856 q 162 838 129 856 q 221 768 194 821 q 267 677 246 719 q 308 593 288 635 q 348 508 328 551 q 392 417 368 465 q 406 392 399 401 q 419 382 413 382 q 429 407 429 382 l 429 749 q 431 790 429 771 q 442 824 433 810 q 466 847 450 839 q 508 856 482 856 q 549 848 535 856 q 569 829 563 840 q 576 805 575 818 q 576 781 576 792 l 576 157 q 565 44 576 88 q 522 0 554 0 q 471 19 494 0 q 435 57 447 38 q 416 88 431 64 q 381 147 401 111 q 337 225 361 182 q 288 313 313 268 q 242 403 264 358 q 204 485 219 447 q 185 515 192 515 q 175 422 175 515 l 175 201 q 158 47 175 93 q 100 0 140 0 m 472 760 q 480 789 476 771 q 490 817 483 807 q 492 831 497 826 q 483 838 488 836 q 468 824 475 839 q 457 789 461 808 q 453 753 453 769 q 460 736 453 738 q 465 740 461 736 q 472 760 468 744 m 61 756 q 68 787 64 769 q 76 814 72 804 q 76 833 86 833 q 66 829 72 833 q 53 807 60 825 q 47 783 49 799 q 43 754 44 768 q 43 730 42 740 q 49 719 44 719 q 61 756 57 719 m 61 681 q 60 687 61 683 q 54 690 58 690 q 47 686 49 690 q 44 681 44 682 q 51 668 44 668 q 61 681 61 668 m 96 32 q 82 54 96 38 q 68 103 68 71 q 61 118 68 118 q 54 99 54 118 q 66 48 54 71 q 89 25 78 25 q 96 32 96 25 z "},"O":{"ha":617,"x_min":22,"x_max":603,"o":"m 321 -12 q 188 24 244 -12 q 95 122 132 61 q 40 258 58 182 q 22 411 22 333 q 39 570 22 489 q 92 717 56 651 q 185 826 128 783 q 322 868 242 868 q 449 830 396 868 q 535 728 501 792 q 586 580 569 664 q 603 404 603 496 q 586 253 603 328 q 535 119 569 178 q 448 24 501 60 q 321 -12 394 -12 m 110 650 q 119 658 114 650 q 131 677 125 665 q 145 701 138 689 q 160 724 153 714 q 217 788 190 764 q 244 818 244 811 q 238 824 244 822 q 198 804 221 824 q 154 758 175 785 q 119 702 133 731 q 104 657 104 674 q 110 650 104 650 m 321 99 q 388 130 363 99 q 428 208 414 161 q 449 310 443 254 q 454 415 454 365 q 451 522 454 465 q 433 628 447 579 q 393 708 419 676 q 322 740 367 740 q 251 701 279 740 q 208 609 224 663 q 186 500 192 556 q 181 411 181 444 q 185 324 181 378 q 203 221 189 271 q 246 135 218 171 q 321 99 274 99 m 111 619 q 101 633 111 631 q 90 628 97 633 q 83 613 83 624 q 94 600 83 600 q 105 604 99 600 q 111 619 111 608 z "},"P":{"ha":550,"x_min":24,"x_max":529,"o":"m 99 0 q 47 21 71 0 q 24 96 24 42 l 24 731 q 35 783 24 760 q 67 823 47 807 q 113 847 88 839 q 167 856 139 856 l 249 856 q 341 839 292 856 q 432 786 390 822 q 501 692 474 750 q 529 551 529 633 q 502 405 529 469 q 435 297 475 340 q 347 230 394 253 q 258 207 300 207 l 218 207 q 194 201 206 207 q 182 183 182 196 l 182 90 q 174 49 182 65 q 154 21 167 32 q 127 5 142 10 q 99 0 113 0 m 243 331 q 289 342 267 331 q 330 377 311 353 q 360 440 349 401 q 371 535 371 479 q 360 634 371 594 q 331 697 349 674 q 290 729 313 719 q 247 739 268 739 l 217 739 q 182 692 182 739 l 182 363 q 225 331 182 331 l 243 331 m 79 49 q 67 74 72 56 q 63 111 63 92 q 53 146 63 146 q 44 134 46 146 q 42 106 42 122 q 51 50 42 72 q 75 28 61 28 q 82 31 78 28 q 86 36 86 33 q 79 49 86 42 z "},"Q":{"ha":631,"x_min":28,"x_max":613,"o":"m 608 404 q 592 272 608 328 q 557 178 576 215 q 522 119 538 140 q 506 89 506 97 q 517 83 506 85 q 542 81 528 82 q 570 81 557 81 q 588 82 583 82 q 610 63 607 82 q 613 28 613 43 q 608 -2 613 7 q 594 -14 603 -11 q 571 -15 585 -17 q 539 -14 557 -14 l 486 -14 l 379 -12 l 326 -12 q 192 29 249 -12 q 99 134 136 71 q 45 272 63 197 q 28 411 28 346 q 44 556 28 476 q 97 706 61 636 q 190 822 133 775 q 328 868 247 868 q 473 822 418 868 q 558 706 528 775 q 598 555 588 636 q 608 404 608 474 m 121 671 q 131 678 125 671 q 143 696 136 685 q 158 719 150 707 q 175 742 167 732 q 236 801 207 779 q 267 829 265 824 q 261 836 267 836 q 239 831 251 838 q 213 813 226 824 q 185 789 199 803 q 161 763 172 775 q 127 709 138 731 q 115 676 117 688 q 121 671 115 671 m 326 99 q 403 135 376 99 q 443 222 431 171 q 458 326 456 272 q 460 415 460 381 q 456 522 460 465 q 439 628 453 579 q 399 708 425 676 q 328 740 372 740 q 257 701 285 740 q 213 609 229 663 q 192 500 197 556 q 186 411 186 444 q 190 324 186 378 q 209 221 194 271 q 251 135 224 171 q 326 99 279 99 m 119 639 q 117 649 119 644 q 111 654 114 654 q 100 650 107 654 q 92 635 93 646 q 101 622 90 622 q 112 625 106 621 q 119 639 118 629 z "},"R":{"ha":507,"x_min":26,"x_max":507,"o":"m 435 0 q 408 6 419 0 q 390 22 397 13 q 376 41 382 31 q 367 61 371 51 q 350 98 361 74 q 326 152 339 122 q 297 213 313 182 q 267 269 282 243 q 237 310 251 294 q 211 326 222 326 l 197 326 q 185 316 190 326 q 179 289 179 306 l 179 94 q 158 26 179 51 q 96 0 136 0 q 61 10 75 0 q 40 36 47 21 q 29 67 32 51 q 26 96 26 83 l 26 732 q 29 792 26 768 q 42 830 32 815 q 69 850 51 844 q 118 856 88 856 l 233 856 q 323 842 279 856 q 401 799 367 828 q 457 726 436 771 q 478 618 478 681 q 465 524 478 565 q 431 451 451 482 q 385 401 410 421 q 338 374 361 382 q 329 363 329 371 q 336 350 329 357 q 395 289 365 321 q 450 221 425 257 q 491 144 475 185 q 507 56 507 103 q 483 14 507 28 q 435 0 460 0 m 240 460 q 311 505 282 460 q 340 618 340 550 q 319 700 340 672 q 244 731 299 728 l 211 732 q 189 726 193 733 q 185 699 185 719 l 185 478 q 210 460 185 460 l 240 460 m 93 38 q 88 46 93 44 q 79 54 82 47 q 70 82 74 68 q 65 108 67 96 q 60 126 63 119 q 54 133 58 133 q 44 108 44 133 q 47 89 44 103 q 55 60 50 75 q 67 35 60 46 q 82 24 74 24 q 89 27 85 24 q 93 38 93 31 m 431 28 q 422 38 429 32 q 411 49 414 43 q 402 70 408 54 q 394 100 396 86 q 390 122 394 111 q 383 132 386 132 q 376 117 378 131 q 375 83 374 103 q 378 63 375 74 q 388 42 382 51 q 401 26 393 32 q 418 19 408 19 q 431 28 431 19 z "},"S":{"ha":496,"x_min":17,"x_max":474,"o":"m 243 -12 q 159 3 200 -12 q 87 46 118 19 q 36 106 56 72 q 17 176 17 140 q 42 247 17 219 q 104 272 67 275 q 138 255 128 271 q 149 203 149 239 q 167 128 149 151 q 229 106 186 106 q 318 196 318 106 q 309 250 318 225 q 285 296 300 275 q 253 336 271 317 q 215 374 235 356 q 73 540 115 474 q 31 663 31 607 q 90 813 31 758 q 251 867 149 867 q 323 855 288 867 q 387 825 358 843 q 433 784 415 807 q 451 738 451 761 q 427 662 451 696 q 367 628 403 628 q 331 642 350 628 q 311 679 313 656 q 246 738 308 738 q 188 671 188 738 q 193 630 188 650 q 213 586 199 610 q 252 534 228 563 q 314 468 276 506 q 390 386 360 422 q 440 319 421 350 q 466 263 458 289 q 474 210 474 236 q 456 120 474 161 q 408 50 439 79 q 335 4 378 21 q 243 -12 293 -12 m 111 754 q 126 777 117 764 q 147 799 136 790 q 162 815 158 806 q 161 824 165 824 q 139 815 153 825 q 113 789 125 804 q 90 757 100 774 q 79 728 81 740 q 88 719 79 719 q 99 729 94 718 q 111 754 103 740 m 89 692 q 81 701 89 701 q 73 697 76 701 q 69 690 69 693 q 79 682 69 683 q 89 692 86 682 m 68 179 q 83 211 75 199 q 92 235 90 224 q 88 242 92 242 q 67 234 76 243 q 51 211 57 225 q 43 180 44 197 q 47 146 42 163 q 58 132 53 132 q 63 146 65 132 q 68 179 61 160 z "},"T":{"ha":449,"x_min":7,"x_max":440,"o":"m 225 0 q 201 4 214 0 q 178 15 189 8 q 159 33 167 22 q 151 56 151 43 l 151 729 q 110 729 135 729 q 62 735 85 729 q 23 753 39 740 q 7 792 7 767 q 26 839 7 822 q 75 856 46 856 l 394 856 q 428 836 417 856 q 440 797 440 817 q 428 759 440 772 q 399 739 417 746 q 359 731 381 732 q 319 729 338 729 l 308 729 l 308 65 q 281 17 308 33 q 225 0 253 0 m 39 768 q 46 778 46 768 q 50 803 46 789 q 63 831 54 818 q 56 838 67 838 q 35 822 43 838 q 26 790 26 806 q 29 776 26 785 q 39 768 32 768 m 199 32 q 211 44 211 32 q 206 51 211 50 q 194 69 197 54 q 190 90 190 83 q 191 101 190 93 q 192 118 192 110 q 190 133 192 126 q 183 139 189 139 q 175 133 178 139 q 171 120 172 128 q 169 105 169 113 q 168 94 168 97 q 169 78 168 89 q 174 57 171 67 q 184 40 178 47 q 199 32 190 32 z "},"U":{"ha":588,"x_min":18,"x_max":567,"o":"m 289 -6 q 176 17 226 -6 q 90 81 125 40 q 37 180 56 122 q 18 307 18 238 l 18 736 q 21 771 18 750 q 32 810 24 792 q 55 842 40 829 q 92 856 69 856 q 157 832 138 856 q 176 733 176 808 l 176 317 q 176 249 176 283 q 187 188 176 215 q 222 144 197 161 q 294 126 246 126 q 364 153 340 126 q 398 219 388 179 q 409 306 408 258 q 410 394 410 353 l 410 738 q 413 772 410 751 q 423 812 415 793 q 444 844 431 831 q 479 858 457 858 q 544 830 522 858 q 567 739 567 801 l 567 342 q 549 199 567 263 q 497 90 532 135 q 410 19 461 44 q 289 -6 358 -6 m 449 772 q 453 789 449 778 q 467 811 457 800 q 478 832 478 826 q 467 838 479 838 q 453 831 460 838 q 443 817 447 824 q 435 799 440 810 q 429 775 431 788 q 431 762 429 768 q 439 756 432 756 q 447 760 446 756 q 449 772 449 765 m 76 792 q 90 813 82 804 q 97 831 97 821 q 93 838 97 838 q 81 834 89 838 q 65 819 72 831 q 42 767 44 790 q 47 743 39 743 q 62 758 54 743 q 76 792 69 772 m 172 67 q 162 79 172 71 q 140 100 151 88 q 115 130 129 111 q 90 169 100 149 q 77 189 83 183 q 68 194 71 194 q 63 185 63 194 q 74 152 63 174 q 100 110 85 131 q 133 74 115 89 q 164 58 150 58 q 172 67 172 58 m 204 54 q 201 60 204 56 q 193 64 197 64 q 183 58 186 63 q 181 51 181 54 q 183 44 182 47 q 192 42 185 40 q 204 54 204 42 z "},"V":{"ha":600,"x_min":14,"x_max":586,"o":"m 304 -7 q 251 1 272 -7 q 217 20 231 8 q 197 46 204 32 q 186 72 190 60 q 123 283 154 174 q 67 490 92 392 q 28 669 43 589 q 14 793 14 750 q 22 826 14 814 q 43 844 31 838 q 72 853 56 851 q 101 856 88 856 q 135 833 122 856 q 161 754 149 811 q 180 670 168 722 q 206 558 192 618 q 235 438 221 499 q 262 327 250 378 q 283 242 274 276 q 293 203 292 208 q 299 183 296 192 q 306 175 303 175 q 321 203 314 175 q 344 293 331 236 q 372 417 357 350 q 403 555 388 485 q 434 685 419 625 q 462 788 449 746 q 483 843 475 831 q 513 857 493 857 q 529 854 517 857 q 554 847 542 851 q 576 836 567 843 q 586 821 586 829 q 574 744 586 804 q 543 604 563 685 q 501 431 524 524 q 455 258 478 339 q 413 116 432 176 q 385 38 394 56 q 356 8 376 22 q 304 -7 336 -7 m 499 790 q 508 822 506 808 q 504 835 511 836 q 492 826 499 833 q 482 807 486 818 q 476 785 478 796 q 475 767 474 774 q 483 756 478 756 q 491 765 490 758 q 499 790 492 771 m 53 772 q 51 794 51 783 q 56 813 51 806 q 54 833 67 836 q 38 809 43 832 q 35 758 32 786 q 46 740 36 738 q 53 772 54 740 m 242 64 q 224 100 228 81 q 211 119 219 119 q 207 112 207 119 q 209 94 207 104 q 216 72 211 83 q 226 50 221 60 q 256 24 238 31 q 278 18 275 18 q 271 32 285 19 q 242 64 257 44 z "},"W":{"ha":804,"x_min":21,"x_max":782,"o":"m 544 0 q 490 8 513 0 q 451 33 467 17 q 424 71 435 49 q 403 121 413 93 q 400 135 401 126 q 397 151 399 143 q 392 165 394 160 q 388 171 390 171 q 382 160 385 171 q 374 135 379 150 q 347 73 360 99 q 319 31 335 47 q 283 8 303 15 q 236 0 264 0 q 140 19 181 0 q 72 72 99 38 q 33 152 46 106 q 21 254 21 199 l 21 747 q 25 780 21 761 q 39 815 29 799 q 65 844 49 832 q 106 856 81 856 q 161 827 146 856 q 176 754 176 799 l 178 268 q 181 231 178 254 q 190 186 183 208 q 208 148 196 164 q 239 132 221 132 q 290 179 271 132 q 318 304 308 226 q 330 481 328 382 q 332 686 332 581 q 346 809 332 775 q 401 843 360 843 q 433 836 421 843 q 454 807 446 829 q 466 743 463 785 q 469 632 469 701 q 469 449 469 522 q 472 328 469 376 q 477 252 474 281 q 488 203 481 224 q 514 147 500 163 q 546 131 528 131 q 628 332 628 131 l 628 771 q 631 801 628 786 q 641 828 633 817 q 663 848 649 840 q 697 856 676 856 q 762 831 742 856 q 782 771 782 807 l 782 306 q 766 192 782 247 q 720 94 750 138 q 646 26 690 51 q 544 0 601 0 m 56 738 q 69 747 65 738 q 74 764 72 757 q 89 797 76 783 q 110 826 101 810 q 107 833 110 829 q 100 838 104 838 q 82 828 92 838 q 64 807 72 819 q 51 780 56 794 q 46 754 46 765 q 47 743 46 749 q 56 738 49 738 m 674 763 q 678 788 674 776 q 688 808 682 799 q 693 826 694 819 q 688 833 692 833 q 672 828 681 833 q 657 810 663 824 q 652 767 650 788 q 665 746 654 746 q 671 751 668 746 q 674 763 674 756 m 369 754 q 372 769 369 756 q 379 790 375 782 q 392 815 389 808 q 390 822 394 822 q 380 819 388 822 q 365 807 372 817 q 351 763 350 786 q 363 739 351 739 q 369 754 369 739 m 163 51 q 143 71 161 58 q 117 93 125 83 q 95 124 101 108 q 82 138 89 139 q 77 128 76 138 q 84 104 78 118 q 103 75 90 90 q 133 47 115 60 q 156 40 146 38 q 163 51 163 40 m 532 31 q 527 38 532 36 q 518 39 522 39 q 497 53 511 40 q 475 79 483 65 q 450 103 461 100 q 446 96 446 103 q 451 82 446 93 q 465 58 456 71 q 488 35 475 46 q 517 24 501 25 q 526 24 522 24 q 532 31 531 24 z "},"X":{"ha":589,"x_min":6,"x_max":590,"o":"m 58 -4 q 22 10 38 -4 q 6 40 6 25 q 11 60 6 50 l 190 368 q 213 422 213 407 q 207 442 213 431 q 194 465 201 454 l 39 731 q 26 760 32 743 q 19 797 19 776 q 40 836 19 817 q 97 856 60 856 q 113 853 106 856 q 129 842 121 850 q 147 819 138 833 q 171 781 157 804 l 279 597 q 292 575 288 583 q 300 567 297 567 q 319 597 303 567 l 451 836 q 467 851 457 847 q 486 856 476 856 q 512 851 496 856 q 542 838 528 847 q 562 814 556 828 q 557 779 568 800 l 400 490 q 378 439 378 450 q 387 419 378 433 q 415 368 396 404 l 586 60 q 585 44 590 54 q 567 24 579 33 q 536 7 554 14 q 497 0 518 0 q 480 3 490 0 q 464 15 469 6 l 321 263 q 308 285 314 275 q 296 296 301 296 q 285 288 290 296 q 268 258 281 279 l 139 47 q 101 7 121 18 q 58 -4 82 -4 m 478 800 q 493 824 478 808 q 500 839 508 839 q 485 835 493 839 q 469 821 476 832 q 463 799 461 806 q 469 793 465 793 q 478 800 478 793 m 63 782 q 70 805 63 799 q 76 817 78 811 q 64 828 74 828 q 53 820 58 828 q 44 801 47 813 q 42 778 42 790 q 49 756 43 765 q 60 749 54 747 q 65 763 67 751 q 63 782 63 775 m 507 18 q 492 38 511 25 q 482 48 488 40 q 472 64 476 56 q 464 79 468 72 q 457 86 460 86 q 450 78 450 86 q 453 63 450 72 q 463 42 457 53 q 477 24 469 32 q 493 14 485 15 q 502 14 497 14 q 507 18 507 14 m 46 28 q 37 42 43 33 q 33 57 31 50 q 33 68 36 68 q 25 60 29 68 q 24 35 19 49 q 36 18 29 21 q 46 17 42 15 q 46 28 50 19 z "},"Y":{"ha":579,"x_min":3,"x_max":574,"o":"m 289 0 q 234 23 253 0 q 215 72 215 46 l 215 265 q 213 298 215 283 q 206 328 211 313 q 193 362 201 343 q 172 408 185 381 l 7 772 q 6 797 3 782 q 20 824 10 811 q 47 847 31 838 q 86 856 64 856 q 110 849 99 856 q 129 826 122 843 l 258 524 q 274 492 265 508 q 292 475 283 475 q 308 488 300 475 q 326 524 317 501 l 465 833 q 486 852 472 849 q 510 856 500 856 q 541 846 528 856 q 562 822 554 836 q 572 793 569 808 q 568 767 574 778 l 394 390 q 379 355 385 369 q 372 325 374 340 q 369 291 369 310 q 368 242 368 272 l 368 72 q 360 38 368 51 q 341 15 353 24 q 315 3 329 7 q 289 0 301 0 m 50 765 q 48 784 47 776 q 47 799 49 792 q 43 811 46 806 q 38 815 40 817 q 24 789 22 808 q 31 758 26 769 q 47 746 38 743 q 53 754 53 749 q 50 765 53 760 m 267 46 q 259 65 264 51 q 251 103 254 79 q 244 135 250 135 q 240 130 243 135 q 236 113 238 125 q 244 49 233 68 q 267 29 254 29 q 271 34 272 29 q 267 46 269 39 z "},"Z":{"ha":493,"x_min":13,"x_max":483,"o":"m 108 0 q 76 3 93 0 q 44 16 58 7 q 22 40 31 25 q 13 76 13 54 q 15 106 13 90 q 28 142 17 121 l 317 713 q 321 729 321 721 q 306 738 319 738 l 58 740 q 28 755 40 740 q 17 790 17 769 q 37 844 17 831 q 83 858 57 858 l 425 856 q 453 847 442 856 q 470 824 464 838 q 479 794 476 811 q 482 761 482 778 q 461 678 482 719 l 219 219 q 194 169 203 188 q 185 139 185 150 q 224 121 185 121 l 429 119 q 470 100 457 119 q 483 49 483 81 q 470 15 483 29 q 446 0 457 0 l 108 0 m 58 797 q 67 813 61 803 q 71 826 72 822 q 66 833 71 829 q 58 836 61 836 q 39 814 43 833 q 38 778 35 794 q 40 771 38 775 q 46 767 43 767 q 54 781 51 768 q 58 797 57 794 m 49 68 q 60 80 54 68 q 71 108 65 92 q 80 140 76 124 q 83 163 83 156 q 78 168 83 168 q 64 158 71 168 q 51 138 57 149 q 40 115 44 126 q 36 99 36 103 q 38 78 35 88 q 49 68 42 68 m 69 38 q 63 47 69 47 q 50 35 50 47 q 57 26 50 26 q 65 30 61 26 q 69 38 69 33 z "},"a":{"ha":567,"x_min":22,"x_max":540,"o":"m 219 -11 q 74 99 126 -11 q 22 404 22 208 q 83 736 22 617 q 256 863 144 856 q 322 853 296 865 q 364 826 347 842 q 389 799 381 811 q 401 786 397 786 q 407 799 406 786 q 414 826 408 811 q 431 854 419 842 q 469 867 443 867 q 514 854 496 867 q 532 822 532 842 l 532 283 q 536 176 532 226 q 540 99 540 125 q 522 19 540 50 q 474 -11 503 -11 q 419 26 440 -11 q 399 122 399 64 q 392 158 399 158 q 376 132 386 158 q 348 74 367 106 q 299 15 329 42 q 219 -11 268 -11 m 433 774 q 441 783 439 774 q 446 801 443 792 q 454 825 450 815 q 458 842 458 835 q 453 849 458 849 q 435 835 446 849 q 424 799 424 821 q 426 781 424 788 q 433 774 429 774 m 253 125 q 294 163 272 125 q 335 258 317 200 q 367 383 354 315 q 379 508 379 450 q 372 595 379 554 q 350 667 364 636 q 319 717 336 699 q 282 735 301 735 q 239 710 260 735 q 203 644 218 686 q 180 545 189 601 q 171 425 171 489 q 178 314 171 368 q 197 218 185 260 q 223 151 208 176 q 253 125 238 125 m 153 46 q 162 51 158 46 q 164 60 165 56 q 156 72 163 64 q 142 90 150 79 q 126 112 133 100 q 115 135 118 124 q 112 149 114 140 q 107 167 110 158 q 101 183 104 176 q 94 189 99 189 q 88 170 88 189 q 97 124 88 151 q 125 71 108 96 q 153 46 142 46 m 471 31 q 466 40 471 35 q 455 53 461 46 q 444 69 449 60 q 439 88 439 78 q 438 96 439 92 q 429 103 435 103 q 419 86 419 103 q 432 41 419 64 q 457 18 444 18 q 467 22 463 18 q 471 31 471 26 m 188 24 q 197 29 192 24 q 203 41 201 35 q 203 53 206 47 q 193 58 201 58 q 176 42 176 58 q 180 29 176 35 q 188 24 183 24 z "},"b":{"ha":554,"x_min":24,"x_max":535,"o":"m 92 0 q 38 31 53 0 q 24 143 24 61 l 24 738 q 42 826 24 797 q 107 856 60 856 q 188 858 133 856 q 313 860 242 860 q 396 843 358 860 q 460 797 433 826 q 503 728 488 768 q 518 640 518 688 q 503 547 518 585 q 464 487 488 510 q 414 452 440 464 q 364 435 388 440 q 325 428 340 431 q 310 424 310 426 q 326 421 310 421 q 368 419 343 421 q 422 408 393 417 q 476 378 451 399 q 518 320 501 357 q 535 225 535 283 q 511 127 535 169 q 449 57 488 85 q 365 15 411 29 q 272 0 318 0 l 92 0 m 74 743 q 71 749 72 746 q 67 767 67 756 q 81 802 67 785 q 114 818 96 819 q 126 823 122 818 q 131 831 131 828 q 124 838 131 835 q 111 840 118 840 q 63 816 83 840 q 43 757 43 792 q 47 731 43 742 q 58 721 51 721 q 68 727 63 721 q 74 743 74 733 m 250 494 q 328 534 297 494 q 360 633 360 574 q 340 703 360 675 q 276 731 321 731 l 203 731 q 176 714 179 731 q 174 683 174 697 l 174 539 q 181 507 174 519 q 200 494 189 494 l 250 494 m 260 126 q 343 152 310 126 q 376 240 376 178 q 340 324 376 301 q 243 346 303 346 l 200 346 q 174 290 174 346 l 174 176 q 180 135 174 143 q 213 126 186 126 l 260 126 m 60 101 q 65 115 63 101 q 67 147 67 129 q 68 183 68 165 q 68 206 68 200 q 65 255 68 246 q 57 264 61 264 q 51 255 54 264 q 47 206 47 246 q 49 124 47 146 q 60 101 51 101 m 60 82 q 49 67 49 82 q 53 52 49 56 q 61 49 57 49 q 69 67 69 49 q 68 79 69 76 q 60 82 67 82 z "},"c":{"ha":536,"x_min":15,"x_max":525,"o":"m 294 -14 q 179 17 231 -14 q 92 103 128 47 q 35 235 56 158 q 15 406 15 313 q 37 588 15 504 q 98 734 58 672 q 192 831 138 796 q 310 865 246 865 q 469 785 414 865 q 517 553 525 704 q 460 474 513 474 q 406 488 422 474 q 386 524 390 503 q 385 572 382 546 q 388 622 388 599 q 369 701 388 668 q 314 733 350 733 q 260 709 285 733 q 219 641 236 685 q 191 537 201 597 q 181 403 181 476 q 213 197 181 271 q 310 122 246 122 q 363 149 340 122 q 385 207 385 175 q 399 264 385 239 q 447 289 414 289 q 499 263 481 289 q 518 201 518 238 q 501 119 518 158 q 455 51 485 81 q 384 3 425 21 q 294 -14 343 -14 m 110 667 q 127 687 114 667 q 158 731 140 707 q 197 777 176 756 q 239 800 218 799 q 252 805 246 801 q 257 813 258 808 q 239 824 257 826 q 191 804 215 822 q 147 762 167 786 q 114 713 126 738 q 103 672 101 688 q 110 667 106 663 m 92 653 q 81 642 85 651 q 78 622 76 633 q 83 611 81 610 q 96 624 90 611 q 99 646 101 636 q 92 653 96 654 z "},"d":{"ha":569,"x_min":24,"x_max":553,"o":"m 92 0 q 38 31 53 0 q 24 143 24 61 l 24 738 q 41 828 24 800 q 99 856 58 856 q 163 794 163 856 q 163 777 163 788 q 167 767 163 767 q 182 782 172 767 q 208 816 192 797 q 249 850 224 835 q 311 865 274 865 q 408 831 364 865 q 484 738 451 797 q 535 595 517 678 q 553 417 553 513 q 471 110 553 221 q 213 0 389 0 l 92 0 m 74 731 q 71 736 72 733 q 67 754 67 743 q 73 777 67 767 q 87 796 79 788 q 101 810 94 804 q 107 818 107 815 q 93 825 107 825 q 58 802 74 825 q 43 744 43 779 q 47 719 43 729 q 58 708 51 708 q 68 715 63 708 q 74 731 74 721 m 260 126 q 358 203 322 126 q 393 413 393 279 q 385 539 393 481 q 363 640 378 597 q 326 706 347 682 q 278 731 306 731 q 244 722 261 731 q 213 698 226 714 q 191 660 200 682 q 182 610 182 638 l 182 176 q 188 135 182 143 q 221 126 194 126 l 260 126 m 60 101 q 65 115 63 101 q 67 147 67 129 q 68 183 68 165 q 68 206 68 200 q 65 255 68 246 q 57 264 61 264 q 51 255 54 264 q 47 206 47 246 q 49 124 47 146 q 60 101 51 101 m 60 82 q 49 67 49 82 q 53 52 49 56 q 61 49 57 49 q 69 67 69 49 q 68 79 69 76 q 60 82 67 82 z "},"e":{"ha":544,"x_min":15,"x_max":524,"o":"m 292 -14 q 178 16 229 -14 q 92 101 128 46 q 35 234 56 157 q 15 406 15 311 q 38 590 15 506 q 99 735 60 674 q 194 831 139 797 q 313 865 249 865 q 399 847 360 865 q 467 797 439 829 q 509 720 494 764 q 521 625 524 676 q 493 509 518 565 q 426 410 468 453 q 330 341 385 367 q 213 315 275 315 q 189 296 189 315 q 220 165 189 207 q 300 122 251 122 q 360 149 336 122 q 385 215 385 175 q 403 269 385 249 q 449 289 421 289 q 499 263 481 289 q 518 193 518 238 q 500 113 518 151 q 451 47 482 75 q 379 3 421 19 q 292 -14 338 -14 m 111 663 q 128 683 115 663 q 160 727 142 703 q 199 773 178 751 q 240 796 219 794 q 253 801 247 797 q 258 808 260 804 q 240 819 258 822 q 192 800 217 818 q 148 758 168 782 q 115 708 128 733 q 104 668 103 683 q 111 663 107 658 m 185 438 q 204 432 189 432 q 274 450 240 432 q 332 496 307 468 q 372 560 357 524 q 388 631 388 596 q 366 704 388 675 q 313 733 344 733 q 269 713 289 733 q 233 663 249 693 q 206 597 217 633 q 188 527 194 560 q 181 469 182 494 q 185 438 179 444 m 93 649 q 82 638 86 647 q 79 618 78 629 q 85 607 82 606 q 97 619 92 607 q 100 642 103 632 q 93 649 97 650 z "},"f":{"ha":390,"x_min":13,"x_max":386,"o":"m 128 0 q 96 14 107 0 q 78 51 85 28 q 71 104 72 74 q 69 168 69 135 l 69 433 l 47 433 q 22 453 32 433 q 13 503 13 472 q 22 546 13 533 q 47 558 32 558 l 69 558 l 69 625 q 264 876 69 876 q 316 868 293 876 q 355 847 339 860 q 378 819 371 835 q 386 792 386 804 q 369 740 386 767 q 328 714 351 714 q 310 720 315 714 q 299 733 304 726 q 286 747 293 740 q 264 753 279 753 q 247 749 256 753 q 233 731 239 744 q 223 690 226 717 q 219 618 219 664 l 219 558 l 306 558 q 337 538 329 558 q 344 500 344 518 q 336 457 344 481 q 304 433 328 433 l 221 433 l 221 151 q 213 75 221 104 q 192 29 204 46 q 163 6 179 13 q 131 0 147 0 l 128 0 m 107 654 q 113 660 111 654 q 116 672 115 665 q 117 686 117 679 q 118 694 118 693 q 143 765 124 733 q 189 821 163 796 q 190 828 192 824 q 185 832 188 832 q 154 817 169 832 q 126 778 139 801 q 106 730 114 756 q 99 682 99 704 q 99 665 99 675 q 107 654 100 654 m 125 40 q 113 71 125 56 q 99 103 100 86 q 98 120 99 107 q 90 133 97 133 q 84 124 83 133 q 85 108 85 115 q 87 88 85 103 q 92 59 89 74 q 101 33 96 44 q 114 22 107 21 q 122 30 119 24 q 125 40 125 36 z "},"g":{"ha":615,"x_min":19,"x_max":597,"o":"m 307 -7 q 163 39 219 -7 q 75 154 107 85 q 31 304 43 224 q 19 456 19 385 q 38 608 19 533 q 97 740 57 682 q 199 833 136 797 q 351 868 263 868 q 430 860 389 868 q 505 828 471 851 q 562 767 539 806 q 585 667 585 728 q 576 631 585 644 q 553 610 567 618 q 526 601 540 603 q 504 599 513 599 q 467 613 485 599 q 450 667 450 626 q 439 715 450 699 q 413 740 428 732 q 383 749 397 747 q 360 750 368 750 q 292 728 324 750 q 235 667 260 707 q 197 568 211 626 q 183 436 183 510 q 188 340 183 396 q 210 235 193 285 q 257 149 226 185 q 338 114 288 114 q 393 135 369 114 q 433 186 417 156 q 457 251 449 217 q 464 311 465 285 q 437 335 463 333 q 379 338 411 338 l 293 338 q 278 346 285 338 q 267 366 271 354 q 260 390 263 378 q 257 411 257 403 q 272 451 257 433 q 318 468 286 468 l 492 467 q 528 459 510 467 q 562 437 547 451 q 586 399 576 422 q 596 344 596 376 q 597 254 596 296 q 597 151 597 213 q 594 75 597 104 q 582 29 590 46 q 562 6 574 13 q 533 0 550 0 q 499 17 510 0 q 483 56 488 35 q 476 94 478 76 q 471 111 475 111 q 458 92 467 111 q 432 52 450 74 q 385 12 414 31 q 307 -7 356 -7 m 175 106 q 153 144 175 113 q 133 180 143 160 q 117 219 124 200 q 106 256 110 239 q 103 278 101 272 q 100 288 104 285 q 94 292 96 292 q 81 276 83 292 q 85 232 78 261 q 106 174 93 203 q 135 122 119 144 q 164 99 151 100 q 175 106 174 96 m 540 35 q 529 53 540 46 q 517 78 518 61 q 516 93 517 82 q 508 104 515 104 q 500 95 501 104 q 499 79 499 86 q 501 62 499 72 q 507 42 503 51 q 517 26 511 33 q 529 19 522 19 q 538 25 536 19 q 540 35 540 31 m 203 82 q 201 90 204 86 q 194 93 197 93 q 187 90 189 94 q 183 83 185 86 q 185 74 182 76 q 192 72 189 72 q 203 82 200 72 z "},"h":{"ha":544,"x_min":21,"x_max":524,"o":"m 438 0 q 400 13 414 0 q 379 46 386 26 q 370 88 372 65 q 368 128 368 110 l 368 331 q 368 343 368 336 q 367 356 368 350 q 361 366 365 363 q 350 367 357 369 l 201 324 q 183 318 189 321 q 176 301 176 315 l 176 146 q 174 104 176 129 q 163 56 171 79 q 142 17 156 33 q 104 0 128 0 q 58 15 75 0 q 33 51 42 29 q 23 99 25 74 q 21 146 21 124 l 21 753 q 41 819 21 788 q 100 850 61 850 q 134 841 119 850 q 158 817 149 832 q 172 785 168 803 q 176 750 176 767 l 176 471 q 179 451 176 461 q 194 443 182 440 l 353 485 q 367 494 365 488 q 368 511 368 501 l 368 750 q 370 783 368 765 q 379 817 372 801 q 399 844 386 833 q 431 856 411 856 q 500 822 476 856 q 524 746 524 788 l 524 126 q 519 86 524 108 q 503 44 514 64 q 477 13 493 25 q 438 0 461 0 m 397 767 q 408 775 401 767 q 419 794 414 783 q 428 815 425 804 q 432 829 432 825 q 426 833 432 833 q 400 814 410 833 q 390 781 390 794 q 392 772 390 778 q 397 767 393 767 m 79 42 q 75 56 78 50 q 69 70 72 63 q 63 90 65 78 q 61 119 61 101 q 60 134 61 125 q 51 143 58 143 q 44 133 46 143 q 43 119 43 124 q 44 100 43 114 q 49 72 46 86 q 57 48 51 58 q 71 38 63 38 l 79 42 m 425 28 q 424 32 425 31 q 421 36 422 33 q 406 70 411 49 q 400 107 400 92 l 397 113 q 389 99 390 113 q 388 81 388 85 q 394 44 388 65 q 421 24 400 24 q 425 28 425 24 z "},"i":{"ha":217,"x_min":25,"x_max":193,"o":"m 106 776 q 47 798 69 776 q 25 856 25 819 q 48 917 25 893 q 108 940 71 940 q 169 919 146 940 q 193 863 193 897 q 167 801 193 826 q 106 776 142 776 m 61 858 q 69 877 64 871 q 79 887 74 883 q 89 894 85 890 q 93 903 93 897 q 79 917 93 917 q 51 898 63 917 q 40 858 40 879 q 42 835 40 849 q 53 822 44 822 q 60 838 60 822 q 61 858 60 854 m 104 -6 q 53 9 71 -6 q 35 44 35 24 l 35 653 q 38 682 35 665 q 49 713 42 699 q 70 736 57 726 q 104 746 83 746 q 140 738 125 746 q 163 717 154 729 q 177 689 172 704 q 182 660 182 674 l 182 44 q 160 8 182 22 q 104 -6 138 -6 m 60 611 q 65 619 64 611 q 67 640 67 628 q 67 665 67 651 q 71 686 68 678 q 75 701 72 692 q 74 711 78 711 q 62 703 67 711 q 53 685 57 696 q 49 665 50 675 q 47 647 47 654 q 50 623 47 635 q 60 611 53 611 z "},"j":{"ha":217,"x_min":-82,"x_max":193,"o":"m 106 776 q 47 798 69 776 q 25 856 25 819 q 48 917 25 893 q 108 940 71 940 q 169 919 146 940 q 193 863 193 897 q 167 801 193 826 q 106 776 142 776 m 61 858 q 69 877 64 871 q 79 887 74 883 q 89 894 85 890 q 93 903 93 897 q 79 917 93 917 q 51 898 63 917 q 40 858 40 879 q 42 835 40 849 q 53 822 44 822 q 60 838 60 822 q 61 858 60 854 m 182 114 q 173 -5 182 49 q 143 -97 164 -58 q 87 -156 122 -135 q -3 -176 51 -176 q -64 -158 -46 -176 q -82 -100 -82 -139 q -75 -53 -82 -78 q -49 -29 -68 -29 q -30 -33 -39 -29 q -10 -36 -21 -36 q 24 -4 13 -36 q 35 114 35 28 l 35 653 q 38 682 35 665 q 49 713 42 699 q 70 736 57 726 q 104 746 83 746 q 140 738 125 746 q 163 717 154 729 q 177 689 172 704 q 182 660 182 674 l 182 114 m 60 611 q 65 619 64 611 q 67 640 67 628 q 67 665 67 651 q 71 686 68 678 q 75 701 72 692 q 74 711 78 711 q 62 703 67 711 q 53 685 57 696 q 49 665 50 675 q 47 647 47 654 q 50 623 47 635 q 60 611 53 611 m -21 -143 q -33 -115 -21 -126 q -44 -92 -44 -104 q -48 -66 -44 -72 q -57 -60 -51 -60 q -63 -69 -61 -60 q -65 -89 -65 -78 q -56 -135 -65 -115 q -35 -154 -46 -154 q -26 -152 -31 -154 q -21 -143 -21 -150 z "},"k":{"ha":553,"x_min":26,"x_max":560,"o":"m 94 0 q 51 15 65 0 q 33 53 38 31 q 28 101 28 76 q 28 146 28 126 l 28 283 l 26 558 l 26 696 q 29 763 26 733 q 40 813 32 792 q 65 844 49 833 q 108 856 81 856 q 165 830 140 856 q 189 763 189 804 q 188 733 189 756 q 188 682 188 711 q 188 620 188 653 q 188 560 188 588 q 190 515 188 533 q 194 497 192 497 q 217 524 200 497 q 256 590 233 550 q 304 676 278 631 q 357 763 331 722 q 406 829 383 803 q 444 856 429 856 q 472 851 457 856 q 500 839 488 847 q 521 818 513 831 q 529 788 529 806 q 514 748 529 776 q 476 683 499 719 q 427 608 454 647 q 378 535 400 568 q 340 478 356 501 q 325 450 325 454 q 342 417 325 444 q 386 352 360 390 q 442 269 413 314 q 499 185 472 225 q 542 113 525 144 q 560 67 560 81 q 548 36 560 49 q 519 15 536 24 q 486 3 503 7 q 458 -1 469 -1 q 418 24 439 -1 q 381 79 397 50 q 356 122 375 90 q 314 189 336 153 q 269 259 292 225 q 235 310 247 293 q 224 317 231 317 q 211 310 218 318 l 197 292 q 186 247 186 276 l 186 215 l 188 174 l 188 142 q 165 35 188 71 q 94 0 143 0 m 53 779 q 67 783 60 778 q 80 795 74 788 q 91 811 86 803 q 97 825 96 819 q 94 833 99 829 q 86 836 90 836 q 74 830 81 836 q 62 815 68 824 q 52 797 56 806 q 49 785 49 789 q 53 779 49 779 m 408 775 q 420 781 413 775 q 435 797 428 788 q 447 815 442 806 q 450 829 451 824 q 444 835 450 835 q 432 830 440 836 q 416 815 424 824 q 403 797 408 806 q 399 783 397 788 q 408 775 401 776 m 74 113 q 74 135 74 118 q 72 172 74 153 q 68 205 71 190 q 60 219 65 219 q 52 213 56 219 q 47 196 49 206 q 45 177 46 186 q 44 165 44 168 q 44 145 44 160 q 47 115 44 131 q 53 88 49 100 q 65 75 57 75 q 70 81 68 75 q 73 92 72 86 q 74 105 74 99 q 74 113 74 111 m 463 29 q 458 42 463 33 q 448 60 454 51 q 435 75 442 68 q 424 82 428 82 q 419 77 421 82 q 418 69 418 72 q 422 57 418 65 q 430 40 425 49 q 442 26 435 32 q 454 21 449 21 q 463 29 463 21 m 86 43 q 83 57 89 50 q 71 64 78 64 q 58 57 63 64 q 56 43 53 50 q 71 29 61 29 q 86 43 81 29 z "},"l":{"ha":267,"x_min":25,"x_max":247,"o":"m 125 0 q 70 12 90 0 q 40 44 50 24 q 27 94 29 65 q 25 157 25 122 l 25 782 q 42 835 25 813 q 99 858 58 858 q 133 851 119 858 q 156 832 147 843 q 167 808 164 821 q 171 786 171 796 l 171 190 q 174 147 171 163 q 189 131 176 131 l 204 131 q 236 111 225 131 q 247 65 247 92 q 231 15 247 29 q 186 0 214 0 l 125 0 m 53 726 q 60 735 57 726 q 65 757 63 744 q 72 783 68 769 q 81 806 75 797 q 92 831 88 818 q 85 843 96 843 q 56 823 69 843 q 42 765 42 803 q 46 735 42 744 q 53 726 50 726 z "},"m":{"ha":811,"x_min":31,"x_max":779,"o":"m 93 0 q 60 8 72 0 q 41 28 47 15 q 33 56 35 40 q 31 90 31 72 l 31 753 q 31 786 31 768 q 38 819 32 804 q 56 845 43 835 q 90 856 68 856 q 132 835 118 856 q 152 790 146 815 q 160 745 158 765 q 164 725 161 725 q 172 747 167 725 q 192 793 178 768 q 233 840 207 818 q 306 861 260 861 q 369 840 344 861 q 410 794 394 819 q 433 747 425 768 q 446 726 442 726 q 458 747 450 726 q 481 794 465 768 q 523 840 496 819 q 594 861 550 861 q 688 833 651 861 q 744 756 724 806 q 772 640 764 707 q 779 494 779 572 l 779 38 q 753 9 779 18 q 699 0 726 0 q 656 8 671 0 q 640 36 640 15 l 640 482 q 640 538 640 499 q 634 619 640 578 q 613 692 628 661 q 569 724 599 724 q 528 704 544 724 q 503 651 513 685 q 488 569 493 617 q 481 463 483 521 q 475 325 476 394 q 474 197 474 256 q 476 97 475 138 q 476 43 476 56 q 453 12 476 24 q 397 0 431 0 q 350 10 364 0 q 336 53 336 19 l 336 482 q 336 538 336 497 q 331 619 336 578 q 311 693 325 661 q 269 725 297 725 q 227 703 244 725 q 199 649 210 682 q 181 574 188 615 q 172 493 175 532 q 169 421 169 454 q 168 371 168 388 l 168 63 q 146 18 168 36 q 93 0 124 0 m 64 725 q 73 741 72 726 q 74 767 74 756 q 76 788 74 776 q 81 810 79 800 q 83 826 83 819 q 78 833 83 833 q 62 824 68 833 q 53 803 56 815 q 49 779 50 790 q 47 764 47 768 q 50 738 47 753 q 64 725 53 724 m 385 32 q 376 51 385 46 q 367 71 367 56 q 367 81 367 74 q 366 97 367 89 q 363 110 365 104 q 356 117 360 117 q 351 110 353 117 q 349 96 350 104 q 349 80 349 88 q 349 69 349 72 q 353 34 349 53 q 372 15 358 15 q 385 32 385 15 m 685 33 q 677 58 685 47 q 669 83 669 68 q 669 103 669 89 q 660 117 668 117 q 652 101 653 117 q 651 82 651 86 q 652 67 651 78 q 656 45 653 56 q 663 26 658 35 q 674 18 667 18 q 682 24 679 18 q 685 33 685 31 m 90 33 q 84 50 90 49 q 71 61 78 51 q 69 72 69 64 q 68 87 68 79 q 66 101 68 94 q 60 107 64 107 q 52 94 53 107 q 51 71 51 81 q 53 57 51 65 q 58 40 54 49 q 66 26 61 32 q 78 19 71 19 q 90 33 90 19 z "},"n":{"ha":543,"x_min":31,"x_max":513,"o":"m 93 0 q 44 20 58 0 q 31 90 31 40 l 31 753 q 44 835 31 814 q 97 856 57 856 q 149 842 124 856 q 174 793 174 829 l 174 774 q 179 718 174 718 q 192 740 185 718 q 215 790 199 763 q 263 839 232 817 q 343 861 293 861 q 472 774 432 861 q 513 494 513 686 l 513 43 q 435 0 513 0 q 381 16 397 0 q 364 47 364 32 l 364 482 q 360 599 364 554 q 347 668 356 643 q 326 702 339 693 q 293 711 313 711 q 242 684 264 711 q 207 611 221 657 q 187 503 193 565 q 181 371 181 442 l 181 63 q 170 29 181 42 q 146 10 160 17 q 117 2 132 4 q 93 0 103 0 m 58 715 q 65 732 63 715 q 71 769 68 749 q 75 808 74 790 q 76 826 76 825 q 76 833 76 829 q 72 838 75 838 q 60 827 65 838 q 53 803 56 817 q 49 777 50 790 q 47 760 47 764 q 50 732 47 749 q 58 715 53 715 m 415 40 q 413 53 415 49 q 406 60 410 57 q 400 68 403 63 q 397 83 397 74 q 395 111 397 106 q 386 117 393 117 q 377 106 379 117 q 375 82 375 96 q 383 38 375 54 q 403 21 392 21 q 411 26 407 21 q 415 40 415 31 m 92 36 q 88 47 92 43 q 81 53 85 50 q 73 63 76 57 q 69 78 69 68 q 60 107 69 107 q 54 97 57 107 q 51 71 51 86 q 60 33 51 50 q 81 17 69 17 q 88 22 83 17 q 92 36 92 28 z "},"o":{"ha":544,"x_min":21,"x_max":524,"o":"m 274 -10 q 153 28 201 -10 q 75 126 104 65 q 33 262 46 186 q 21 414 21 338 q 33 570 21 490 q 74 716 44 650 q 151 824 103 782 q 274 865 200 865 q 395 828 347 865 q 472 730 443 792 q 512 589 500 668 q 524 426 524 510 q 512 264 524 343 q 472 124 500 185 q 395 27 443 64 q 274 -10 347 -10 m 118 701 q 140 741 125 717 q 172 779 156 765 q 174 794 181 786 q 165 801 168 801 q 145 788 157 801 q 122 755 133 774 q 101 715 110 736 q 93 682 93 694 q 100 671 93 671 q 118 701 106 671 m 274 78 q 330 116 308 78 q 363 209 351 154 q 379 324 375 264 q 383 428 383 385 q 381 482 383 449 q 374 554 379 515 q 362 633 369 593 q 342 706 354 674 q 313 759 329 739 q 274 779 296 779 q 235 758 251 779 q 206 704 218 738 q 187 631 194 671 q 175 551 179 590 q 169 479 171 513 q 168 426 168 446 q 172 323 168 383 q 188 208 176 263 q 220 116 200 154 q 274 78 240 78 m 99 640 q 96 658 99 654 q 86 661 93 661 q 76 653 79 661 q 72 638 72 646 q 77 622 72 626 q 86 618 82 618 q 94 624 89 618 q 99 640 99 629 z "},"p":{"ha":539,"x_min":24,"x_max":518,"o":"m 24 738 q 42 826 24 797 q 107 856 60 856 q 148 841 133 856 q 163 814 163 826 q 171 767 163 767 q 183 782 175 767 q 208 816 192 797 q 250 850 225 835 q 313 865 275 865 q 396 844 358 865 q 460 783 433 822 q 503 688 488 743 q 518 563 518 632 q 453 306 518 401 q 272 208 388 211 l 210 207 q 185 182 189 207 q 182 131 182 157 l 182 90 q 174 49 182 65 q 154 21 167 32 q 127 5 142 10 q 99 0 113 0 q 47 21 71 0 q 24 96 24 42 l 24 738 m 74 743 q 71 749 72 746 q 67 767 67 756 q 73 790 67 779 q 87 808 79 800 q 101 822 94 817 q 107 831 107 828 q 93 838 107 838 q 58 815 74 838 q 43 757 43 792 q 47 731 43 742 q 58 721 51 721 q 68 727 63 721 q 74 743 74 733 m 250 335 q 328 395 297 335 q 358 556 358 456 q 340 685 358 639 q 285 731 322 731 q 240 721 260 731 q 208 695 221 711 q 189 659 196 679 q 182 618 182 639 l 182 379 q 190 347 182 360 q 208 335 197 335 l 250 335 m 79 49 q 67 74 72 56 q 63 111 63 92 q 53 146 63 146 q 44 134 46 146 q 42 106 42 122 q 51 50 42 72 q 75 28 61 28 q 82 31 78 28 q 86 36 86 33 q 79 49 86 42 z "},"q":{"ha":544,"x_min":21,"x_max":524,"o":"m 342 0 q 337 -14 338 -3 q 337 -42 336 -25 q 340 -78 338 -58 q 342 -115 342 -97 q 329 -152 342 -132 q 282 -172 317 -172 q 235 -151 247 -172 q 224 -104 224 -129 q 224 -67 224 -85 q 225 -31 225 -49 q 218 -3 225 -7 q 126 61 164 19 q 65 158 88 103 q 31 280 42 214 q 21 414 21 346 q 33 570 21 490 q 74 716 44 650 q 151 824 103 782 q 274 865 200 865 q 395 828 347 865 q 472 730 443 792 q 512 589 500 668 q 524 426 524 510 q 514 287 524 354 q 482 163 504 219 q 425 65 460 107 q 342 0 390 24 m 118 701 q 140 741 125 717 q 172 779 156 765 q 174 794 181 786 q 165 801 168 801 q 145 788 157 801 q 122 755 133 774 q 101 715 110 736 q 93 682 93 694 q 100 671 93 671 q 118 701 106 671 m 274 78 q 330 116 308 78 q 363 209 351 154 q 379 324 375 264 q 383 428 383 385 q 381 482 383 449 q 374 554 379 515 q 362 633 369 593 q 342 706 354 674 q 313 759 329 739 q 274 779 296 779 q 235 758 251 779 q 206 704 218 738 q 187 631 194 671 q 175 551 179 590 q 169 479 171 513 q 168 426 168 446 q 172 323 168 383 q 188 208 176 263 q 220 116 200 154 q 274 78 240 78 m 99 640 q 96 658 99 654 q 86 661 93 661 q 76 653 79 661 q 72 638 72 646 q 77 622 72 626 q 86 618 82 618 q 94 624 89 618 q 99 640 99 629 m 289 -135 q 285 -122 289 -126 q 276 -112 281 -117 q 267 -105 271 -108 q 263 -94 263 -101 q 250 -69 263 -69 q 243 -97 243 -69 q 251 -131 243 -111 q 274 -151 258 -151 q 284 -148 279 -151 q 289 -135 289 -144 z "},"r":{"ha":361,"x_min":19,"x_max":351,"o":"m 82 0 q 33 24 47 0 q 19 89 19 47 l 19 728 q 35 831 19 803 q 86 858 50 858 q 137 833 118 858 q 156 758 156 807 q 156 735 156 743 q 160 728 156 728 q 163 732 163 728 q 167 742 164 736 q 178 771 171 751 q 201 810 186 790 q 238 844 215 829 q 290 858 260 858 q 335 842 318 858 q 351 799 351 825 q 340 747 351 771 q 300 722 328 722 q 248 697 272 722 q 206 631 224 671 q 178 544 189 592 q 168 454 168 497 l 168 76 q 140 17 168 35 q 82 0 113 0 m 57 800 q 60 812 58 806 q 64 824 63 818 q 65 833 65 829 q 58 836 64 836 q 44 822 51 836 q 38 792 38 807 q 47 763 38 763 q 55 778 54 763 q 57 800 56 794 m 57 69 q 51 99 53 86 q 44 113 49 113 q 38 89 38 113 q 44 44 38 64 q 61 25 51 25 q 67 26 64 25 q 71 35 71 28 q 65 47 71 39 q 57 69 60 56 z "},"s":{"ha":500,"x_min":4,"x_max":474,"o":"m 243 -12 q 157 6 200 -12 q 80 60 114 25 q 25 146 46 94 q 4 261 4 197 q 29 332 4 304 q 92 357 54 360 q 126 340 115 356 q 136 288 136 324 q 142 231 136 263 q 161 171 149 199 q 191 124 174 143 q 229 106 208 106 q 318 196 318 106 q 309 250 318 225 q 285 296 300 275 q 253 336 271 317 q 215 374 235 356 q 73 540 115 474 q 31 663 31 607 q 90 813 31 758 q 251 867 149 867 q 338 846 299 867 q 405 792 376 825 q 449 717 433 758 q 464 638 464 676 q 440 562 464 596 q 379 528 415 528 q 343 542 363 528 q 324 579 324 556 q 300 699 324 661 q 246 738 276 738 q 188 671 188 738 q 193 630 188 650 q 213 586 199 610 q 252 534 228 563 q 314 468 276 506 q 390 386 360 422 q 440 319 421 350 q 466 263 458 289 q 474 210 474 236 q 456 120 474 161 q 408 50 439 79 q 335 4 378 21 q 243 -12 293 -12 m 111 754 q 126 777 117 764 q 147 799 136 790 q 162 815 158 806 q 161 824 165 824 q 139 815 153 825 q 113 789 125 804 q 90 757 100 774 q 79 728 81 740 q 88 719 79 719 q 99 729 94 718 q 111 754 103 740 m 89 692 q 81 701 89 701 q 73 697 76 701 q 69 690 69 693 q 79 682 69 683 q 89 692 86 682 m 56 264 q 70 296 63 283 q 79 319 78 308 q 75 326 79 326 q 54 319 64 328 q 38 296 44 310 q 31 265 32 282 q 35 231 29 247 q 46 217 40 217 q 51 231 53 217 q 56 264 49 244 z "},"t":{"ha":324,"x_min":3,"x_max":311,"o":"m 203 0 q 121 24 150 0 q 78 89 92 49 q 63 181 65 129 q 61 286 61 232 l 61 525 l 46 525 q 14 540 25 525 q 3 579 3 556 q 12 617 3 603 q 46 631 21 631 l 61 631 l 61 767 q 78 839 61 819 q 128 858 96 858 q 182 837 160 858 q 204 763 204 815 l 204 631 l 247 631 q 283 619 272 631 q 293 588 293 607 q 284 542 293 560 q 253 525 275 525 l 204 525 l 204 264 q 208 156 204 188 q 226 124 211 124 l 238 124 l 260 128 q 300 110 289 128 q 311 64 311 92 q 308 42 311 54 q 294 22 306 31 q 262 6 283 13 q 203 0 240 0 m 97 796 q 110 825 103 811 q 107 839 118 839 q 94 833 100 839 q 85 817 89 826 q 80 799 82 808 q 78 785 78 790 q 85 756 78 756 q 92 771 90 756 q 97 796 94 786 m 31 589 q 33 605 31 596 q 32 614 35 614 q 20 603 25 614 q 15 578 15 593 q 19 558 15 568 q 29 547 22 547 q 33 562 36 547 q 31 589 31 576 m 138 69 q 126 97 138 75 q 113 139 114 119 q 106 156 111 150 q 96 163 100 163 q 87 151 88 163 q 86 132 86 139 q 90 113 86 126 q 99 87 93 100 q 111 64 104 74 q 125 54 118 54 q 133 60 129 54 q 138 69 138 65 z "},"u":{"ha":535,"x_min":18,"x_max":514,"o":"m 433 0 q 392 24 404 0 q 381 82 381 47 q 375 117 381 117 q 367 109 371 117 q 353 90 363 101 q 330 62 343 78 q 299 33 317 46 q 260 10 282 19 q 213 0 239 0 q 70 60 122 0 q 18 228 18 121 l 18 790 q 38 840 18 822 q 85 857 57 857 q 141 837 115 857 q 167 786 167 817 l 167 242 q 185 165 167 194 q 235 135 204 135 q 283 153 260 135 q 326 201 307 172 q 356 264 344 231 q 367 326 367 297 l 367 769 q 432 857 367 857 q 489 835 464 857 q 514 753 514 813 l 514 104 q 507 51 514 71 q 489 19 500 31 q 463 3 478 7 q 433 0 449 0 m 415 817 q 423 834 426 828 q 411 840 419 840 q 390 822 400 840 q 381 788 381 803 q 383 776 381 778 q 390 774 386 774 q 400 790 396 774 q 415 817 404 806 m 74 829 q 68 839 74 839 q 47 822 61 839 q 33 789 33 804 q 40 775 33 775 q 50 782 44 775 q 61 799 56 789 q 70 817 67 808 q 74 829 74 825 m 132 72 q 126 84 132 79 q 113 94 121 89 q 98 108 106 100 q 86 128 90 115 q 77 152 81 143 q 68 161 74 161 q 57 143 57 161 q 64 118 57 133 q 81 89 71 103 q 102 65 92 75 q 121 56 113 56 q 132 72 132 56 m 417 72 q 415 96 415 86 q 410 106 415 106 q 402 97 404 106 q 400 76 400 88 q 408 38 400 58 q 426 17 417 17 q 428 22 429 17 q 425 35 428 26 q 419 53 422 43 q 417 72 417 63 z "},"v":{"ha":493,"x_min":11,"x_max":486,"o":"m 260 -3 q 180 7 211 -3 q 136 40 149 17 q 115 108 128 54 q 89 235 103 161 q 61 395 75 310 q 36 559 47 481 q 18 699 25 638 q 11 788 11 761 q 31 838 11 817 q 79 858 50 858 q 136 844 108 858 q 171 790 164 831 q 178 724 174 778 q 191 597 183 669 q 208 442 199 524 q 226 291 217 360 q 243 177 235 222 q 257 132 251 132 q 272 190 261 132 q 296 343 282 247 q 306 412 300 372 q 317 497 311 451 q 331 588 324 542 q 344 676 338 635 q 356 753 350 718 q 367 808 363 788 q 384 844 372 832 q 410 857 396 857 q 431 854 418 857 q 456 846 444 851 q 477 832 468 840 q 486 813 486 824 q 479 751 486 804 q 460 624 472 699 q 434 460 449 549 q 405 290 419 371 q 378 145 390 208 q 357 56 365 82 q 339 26 351 38 q 313 9 326 15 q 284 0 299 3 q 260 -3 269 -3 m 404 811 q 399 829 404 829 q 387 814 392 829 q 382 783 382 799 q 383 769 382 776 q 388 763 385 763 q 394 769 390 763 q 399 783 397 775 q 403 800 401 792 q 404 811 404 808 m 56 804 q 59 822 63 815 q 50 828 56 828 q 35 806 42 828 q 29 757 29 785 q 36 725 29 725 q 42 735 40 725 q 45 759 43 746 q 49 785 47 772 q 56 804 51 799 m 174 56 q 159 94 164 72 q 146 115 154 115 q 141 109 142 115 q 140 99 140 103 q 142 83 140 94 q 149 61 144 72 q 158 41 153 50 q 168 32 163 32 q 178 38 175 32 q 174 56 181 44 z "},"w":{"ha":789,"x_min":10,"x_max":788,"o":"m 246 -3 q 166 7 197 -3 q 122 40 135 17 q 103 108 114 54 q 79 235 92 161 q 54 395 67 310 q 32 559 42 481 q 16 699 22 638 q 10 788 10 761 q 29 838 10 817 q 78 858 49 858 q 131 844 107 858 q 163 790 156 831 q 170 723 165 778 q 182 594 175 668 q 197 438 189 521 q 214 287 206 356 q 230 172 222 218 q 243 126 238 126 q 251 174 244 126 q 269 292 258 221 q 290 449 279 364 q 312 609 301 533 q 331 740 322 685 q 342 808 339 796 q 365 849 349 840 q 408 858 381 858 q 463 844 438 858 q 494 790 488 831 q 499 747 496 781 q 507 664 503 713 q 516 556 511 615 q 526 437 521 497 q 538 319 532 376 q 549 219 543 263 q 560 149 554 175 q 569 122 565 122 q 578 169 571 122 q 595 289 585 217 q 617 447 606 361 q 638 608 628 532 q 657 740 649 685 q 668 808 665 796 q 685 844 674 832 q 711 857 697 857 q 733 854 719 857 q 758 846 746 851 q 778 832 769 840 q 788 813 788 824 q 781 751 788 804 q 765 624 775 699 q 741 460 754 549 q 715 290 728 371 q 690 145 701 208 q 669 56 678 82 q 651 26 664 38 q 625 9 639 15 q 597 0 611 3 q 572 -3 582 -3 q 493 7 524 -3 q 449 40 463 17 q 441 76 446 46 q 431 146 436 106 q 421 232 426 186 q 410 317 415 278 q 402 381 406 356 q 396 407 399 407 q 388 383 393 407 q 378 324 383 360 q 367 246 372 289 q 358 163 363 203 q 348 94 353 124 q 340 56 343 65 q 323 26 335 38 q 297 9 311 15 q 269 0 283 3 q 246 -3 256 -3 m 706 811 q 700 829 706 829 q 688 814 693 829 q 683 783 683 799 q 685 769 683 776 q 689 763 686 763 q 695 769 692 763 q 701 783 699 775 q 704 800 703 792 q 706 811 706 808 m 379 811 q 374 829 379 829 q 362 814 367 829 q 357 783 357 799 q 358 769 357 776 q 363 763 360 763 q 369 769 365 763 q 374 783 372 775 q 378 800 376 792 q 379 811 379 808 m 54 804 q 58 822 61 815 q 49 828 54 828 q 34 806 40 828 q 28 757 28 785 q 35 725 28 725 q 40 735 39 725 q 44 759 42 746 q 48 785 46 772 q 54 804 50 799 m 486 56 q 472 94 476 72 q 458 115 467 115 q 453 109 454 115 q 453 99 453 103 q 455 83 453 94 q 461 61 457 72 q 470 41 465 50 q 481 32 475 32 q 490 38 488 32 q 486 56 493 44 m 160 56 q 145 94 150 72 q 132 115 140 115 q 127 109 128 115 q 126 99 126 103 q 128 83 126 94 q 135 61 131 72 q 144 41 139 50 q 154 32 149 32 q 164 38 161 32 q 160 56 167 44 z "},"x":{"ha":578,"x_min":6,"x_max":589,"o":"m 58 -4 q 22 10 38 -4 q 6 40 6 25 q 11 60 6 50 l 181 392 q 203 446 203 433 q 197 466 203 454 q 185 489 192 478 l 39 731 q 26 760 32 743 q 19 797 19 776 q 40 836 19 817 q 97 856 60 856 q 113 853 106 856 q 129 842 121 850 q 147 819 138 833 q 171 781 157 804 l 269 610 q 283 588 278 596 q 290 579 288 579 q 296 587 293 579 q 310 610 299 594 l 451 836 q 467 851 458 847 q 486 856 476 856 q 513 851 496 856 q 543 838 529 847 q 563 814 557 828 q 557 779 569 800 l 390 514 q 373 481 378 493 q 368 463 368 468 q 377 442 368 457 q 406 392 386 428 l 586 60 q 583 44 589 54 q 566 24 578 33 q 536 7 554 14 q 497 0 518 0 q 480 3 490 0 q 464 15 469 6 l 315 279 q 302 302 308 292 q 290 313 296 313 q 279 304 285 313 q 263 275 274 296 l 139 47 q 103 7 124 18 q 58 -4 82 -4 m 468 789 q 489 819 468 801 q 497 839 508 839 q 477 835 489 839 q 457 815 465 831 q 448 788 446 796 q 457 781 450 781 q 468 789 468 781 m 63 782 q 70 805 63 799 q 76 817 78 811 q 64 828 74 828 q 53 820 58 828 q 44 801 47 813 q 42 778 42 790 q 49 756 43 765 q 60 749 54 747 q 65 763 67 751 q 63 782 63 775 m 507 18 q 492 38 511 25 q 482 48 488 40 q 472 64 476 56 q 464 79 468 72 q 457 86 460 86 q 450 78 450 86 q 453 63 450 72 q 463 42 457 53 q 477 24 469 32 q 493 14 485 15 q 502 14 497 14 q 507 18 507 14 m 69 26 q 55 40 65 31 q 47 57 44 50 q 45 68 51 68 q 31 60 39 68 q 29 34 21 49 q 51 17 38 19 q 69 15 63 14 q 69 26 76 17 z "},"y":{"ha":532,"x_min":11,"x_max":511,"o":"m 261 -8 q 185 3 221 -8 q 124 36 150 15 q 82 87 97 57 q 67 153 67 117 q 80 207 67 185 q 114 229 93 229 q 151 218 135 229 q 168 188 168 207 q 196 130 168 150 q 261 110 224 110 q 340 149 318 110 q 363 268 363 188 l 363 329 q 363 365 363 344 q 360 385 363 385 q 351 367 360 385 q 323 330 342 350 q 275 292 304 310 q 206 275 246 275 q 138 289 172 275 q 75 337 103 303 q 29 428 47 371 q 11 575 11 486 l 11 797 q 26 841 11 822 q 74 860 42 860 q 137 842 114 860 q 160 793 160 824 l 160 561 q 165 480 160 510 q 178 434 169 450 q 200 414 188 418 q 228 410 213 410 q 276 428 253 410 q 319 478 300 447 q 349 547 338 508 q 360 628 360 586 l 360 776 q 378 842 360 821 q 426 863 397 863 q 452 858 438 863 q 480 841 467 853 q 502 809 493 829 q 511 760 511 789 l 511 244 q 444 57 511 122 q 261 -8 378 -8 m 65 832 q 68 842 71 836 q 60 849 65 849 q 47 841 53 849 q 36 824 40 833 q 30 806 32 815 q 28 793 28 797 q 30 778 28 782 q 35 775 32 775 q 43 783 39 775 q 51 800 47 790 q 58 819 54 810 q 65 832 61 829 m 400 811 q 414 835 407 822 q 413 849 421 849 q 400 842 407 849 q 388 826 393 836 q 378 807 382 817 q 375 789 375 797 q 378 778 375 783 q 385 774 382 774 q 392 787 390 774 q 400 811 393 800 m 96 376 q 81 395 88 385 q 71 417 75 406 q 64 442 65 432 q 60 451 63 451 q 53 425 53 451 q 58 402 53 417 q 72 374 64 388 q 88 349 79 360 q 100 339 96 339 q 106 342 103 339 q 110 353 110 346 q 105 366 110 360 q 96 376 100 372 m 89 111 q 98 117 96 111 q 101 134 100 124 q 105 156 103 144 q 113 181 107 168 q 117 199 115 185 q 113 213 119 213 q 92 190 101 213 q 83 146 83 168 q 85 121 83 131 q 89 111 86 111 z "},"z":{"ha":501,"x_min":13,"x_max":483,"o":"m 108 0 q 76 3 93 0 q 44 16 58 7 q 22 40 31 25 q 13 76 13 54 q 15 106 13 90 q 28 142 17 121 l 140 364 l 107 364 q 75 379 86 364 q 64 418 64 394 q 73 456 64 442 q 107 469 82 469 l 193 469 l 317 713 q 321 729 321 721 q 306 738 319 738 l 58 740 q 28 755 40 740 q 17 790 17 769 q 37 844 17 831 q 83 858 57 858 l 425 856 q 453 847 442 856 q 470 824 464 838 q 479 794 476 811 q 482 761 482 778 q 461 678 482 719 l 351 469 l 393 469 q 428 458 418 469 q 439 426 439 446 q 430 381 439 399 q 399 364 421 364 l 296 364 l 219 219 q 194 169 203 188 q 185 139 185 150 q 224 121 185 121 l 429 119 q 470 100 457 119 q 483 49 483 81 q 470 15 483 29 q 446 0 457 0 l 108 0 m 58 797 q 67 813 61 803 q 71 826 72 822 q 66 833 71 829 q 58 836 61 836 q 39 814 43 833 q 38 778 35 794 q 40 771 38 775 q 46 767 43 767 q 54 781 51 768 q 58 797 57 794 m 96 425 q 100 442 96 432 q 97 453 104 453 q 83 442 90 453 q 76 417 76 432 q 80 397 76 407 q 90 386 83 386 q 97 399 97 386 q 96 425 96 413 m 49 68 q 60 80 54 68 q 71 108 65 92 q 80 140 76 124 q 83 163 83 156 q 78 168 83 168 q 64 158 71 168 q 51 138 57 149 q 40 115 44 126 q 36 99 36 103 q 38 78 35 88 q 49 68 42 68 m 69 38 q 63 47 69 47 q 50 35 50 47 q 57 26 50 26 q 65 30 61 26 q 69 38 69 33 z "},"%":{"ha":669,"x_min":24,"x_max":650,"o":"m 146 -8 q 130 -6 140 -8 q 110 3 119 -3 q 93 16 100 8 q 86 32 86 24 q 92 65 86 42 q 114 129 97 88 q 160 234 131 171 q 239 389 190 297 q 360 625 314 532 q 436 772 407 718 q 490 844 465 828 q 532 860 514 860 q 565 843 556 860 q 572 802 574 826 q 563 752 571 778 q 547 708 556 726 q 496 603 528 668 q 427 466 464 539 q 352 318 390 393 q 282 181 314 243 q 228 78 250 119 q 203 31 207 36 q 173 -1 188 7 q 146 -8 158 -8 m 154 546 q 98 559 122 546 q 57 594 74 572 q 32 646 40 617 q 24 708 24 675 q 33 761 24 735 q 58 809 42 788 q 99 844 75 831 q 151 858 122 858 q 243 826 210 858 q 276 718 276 793 q 267 649 276 681 q 240 595 257 618 q 201 559 224 572 q 154 546 179 546 m 154 639 q 171 647 164 639 q 182 666 178 654 q 188 692 186 678 q 190 718 190 706 q 181 758 190 742 q 154 775 171 775 q 128 755 139 775 q 117 711 117 735 q 126 663 117 688 q 154 639 136 639 m 60 711 q 60 744 60 733 q 56 754 60 754 q 44 737 47 754 q 42 714 42 719 q 42 702 42 710 q 44 687 42 694 q 49 673 46 679 q 60 667 53 667 q 63 678 65 667 q 60 711 60 689 m 94 629 q 82 644 94 644 q 74 633 74 644 q 77 625 74 631 q 85 619 81 619 q 94 629 94 619 m 528 -8 q 472 5 496 -8 q 431 40 447 18 q 406 92 414 63 q 397 154 397 121 q 406 207 397 181 q 432 255 415 233 q 472 290 449 276 q 525 304 496 304 q 617 272 583 304 q 650 164 650 239 q 640 95 650 126 q 614 41 631 64 q 575 5 597 18 q 528 -8 553 -8 m 528 85 q 544 92 538 85 q 556 112 551 100 q 562 138 560 124 q 564 164 564 151 q 554 204 564 188 q 528 221 544 221 q 501 201 513 221 q 490 157 490 181 q 500 109 490 133 q 528 85 510 85 m 433 157 q 433 190 433 179 q 429 200 433 200 q 418 183 421 200 q 415 160 415 165 q 415 148 415 156 q 417 133 415 140 q 423 119 419 125 q 433 113 426 113 q 436 124 439 113 q 433 157 433 135 m 143 114 q 128 114 136 121 q 117 96 121 107 q 108 69 113 85 q 104 47 104 54 q 110 32 106 32 q 125 56 115 32 q 139 92 132 72 q 143 114 146 111 m 468 75 q 456 90 468 90 q 447 79 447 90 q 451 71 447 76 q 458 65 454 65 q 468 75 468 65 z "},"":{"ha":631,"x_min":42,"x_max":593,"o":"m 497 -18 q 353 0 414 -18 q 251 53 293 18 q 182 142 208 89 q 140 263 156 194 q 114 263 131 263 q 81 265 97 263 q 53 275 65 268 q 42 297 42 282 q 50 324 42 315 q 71 336 58 333 q 99 339 83 339 q 128 339 114 339 q 126 402 125 371 q 133 465 128 433 q 110 465 124 465 q 85 467 97 465 q 63 476 72 469 q 54 496 54 482 q 65 519 54 511 q 92 531 76 528 q 124 535 107 535 q 151 536 140 536 q 203 649 171 594 q 281 744 236 703 q 383 811 325 786 q 510 836 440 836 q 532 834 518 836 q 559 826 546 832 q 582 813 572 821 q 592 794 592 806 q 576 758 592 764 q 533 747 560 751 q 386 675 443 732 q 294 536 329 618 l 474 536 q 511 531 492 536 q 531 503 531 525 q 507 470 531 475 q 461 465 483 465 l 274 465 q 265 371 265 418 l 267 350 l 267 340 l 449 343 q 485 341 468 343 q 503 313 503 339 q 485 273 503 281 q 439 265 468 265 l 275 264 q 366 123 299 172 q 518 74 433 74 q 569 63 546 74 q 593 29 593 53 q 583 3 593 13 q 558 -12 572 -7 q 526 -17 543 -17 q 497 -18 510 -18 m 269 682 q 292 698 272 682 q 336 734 313 714 q 378 772 360 754 q 397 794 397 790 q 393 797 397 797 q 362 783 383 797 q 318 751 340 769 q 278 714 296 732 q 261 686 261 696 q 264 683 261 683 q 269 682 267 682 m 250 643 q 247 654 250 649 q 238 660 243 660 q 225 646 225 660 q 236 631 225 635 q 245 635 240 631 q 250 643 250 639 z "},"$":{"ha":492,"x_min":53,"x_max":451,"o":"m 240 -57 q 217 -45 225 -57 q 205 -17 208 -33 q 201 19 201 0 q 201 51 201 38 l 201 132 q 99 159 140 132 q 57 226 57 186 q 72 260 57 251 q 101 269 86 269 q 163 258 132 269 q 235 247 193 247 q 263 251 247 247 q 293 264 279 256 q 317 284 307 272 q 326 313 326 296 q 300 361 326 344 q 232 378 274 378 q 101 422 149 378 q 53 557 53 465 q 94 690 53 639 q 201 753 135 742 l 201 815 q 201 845 201 825 q 203 885 200 865 q 215 921 206 906 q 242 936 224 936 q 268 899 260 936 q 276 794 276 861 q 279 760 276 767 q 299 753 282 753 q 333 747 315 753 q 365 731 350 742 q 388 706 379 721 q 397 674 397 692 q 389 649 397 656 q 366 642 381 643 q 331 642 351 640 q 285 644 310 644 q 213 622 232 644 q 193 561 193 599 q 201 531 193 543 q 222 513 210 519 q 248 503 235 507 q 271 499 261 500 q 344 481 311 493 q 401 449 378 469 q 438 396 425 428 q 451 319 451 364 q 403 190 451 239 q 276 135 354 142 l 276 51 q 276 20 276 39 q 274 -16 276 1 q 263 -45 271 -33 q 240 -57 256 -57 m 140 661 q 161 681 149 674 q 174 699 174 688 q 164 707 174 707 q 142 699 153 707 q 122 678 131 690 q 108 653 114 667 q 103 629 103 640 q 108 619 103 619 q 126 635 118 619 q 140 661 133 650 m 115 590 q 103 603 115 603 q 94 597 96 603 q 94 582 92 590 q 104 574 97 574 q 113 578 111 574 q 115 590 115 583 z "},"":{"ha":539,"x_min":28,"x_max":500,"o":"m 44 39 q 47 56 44 49 q 53 74 49 64 q 63 99 57 85 q 78 133 69 113 q 92 172 86 154 q 101 208 97 189 q 106 251 104 228 q 108 303 108 274 l 108 349 l 81 349 q 41 361 54 349 q 28 390 28 374 q 37 425 28 406 q 71 444 46 444 l 106 444 l 106 538 q 116 660 106 601 q 152 763 126 718 q 222 835 178 808 q 332 861 265 861 q 394 851 364 861 q 447 820 424 840 q 485 771 471 800 q 500 706 500 742 q 468 644 500 644 q 421 686 444 644 q 385 733 406 713 q 339 753 364 753 q 285 736 306 753 q 254 690 265 719 q 239 618 243 660 q 235 526 235 576 l 235 447 l 329 447 q 381 442 363 447 q 410 430 400 438 q 422 412 419 422 q 425 389 425 401 q 423 373 425 381 q 413 360 421 365 q 390 352 406 356 q 349 349 375 349 l 235 349 l 235 258 q 221 160 235 193 q 199 110 207 128 q 200 99 193 99 q 221 103 207 100 q 237 106 229 104 q 254 108 244 107 q 278 108 264 108 q 314 108 292 108 l 393 108 q 475 98 451 108 q 499 60 499 88 q 481 11 499 24 q 425 1 464 -1 q 280 2 353 4 q 128 0 207 0 q 68 10 92 0 q 44 39 44 19 m 154 639 q 163 654 157 639 q 177 692 168 669 q 200 738 186 714 q 235 781 214 763 q 255 805 253 797 q 253 813 257 813 q 228 805 242 813 q 194 778 214 797 q 174 750 183 767 q 159 715 165 733 q 150 681 153 697 q 147 651 147 664 q 154 639 147 639 m 154 600 q 150 608 154 606 q 142 611 146 611 q 131 603 136 611 q 128 594 129 599 q 142 582 128 582 q 154 600 154 582 z "},"":{"ha":599,"x_min":38,"x_max":575,"o":"m 299 0 q 254 23 263 0 q 246 72 246 46 l 246 211 l 138 211 q 92 228 113 211 q 71 263 71 246 q 85 300 71 281 q 138 319 99 319 l 246 319 q 243 335 244 328 q 239 350 242 343 l 138 350 q 91 369 113 350 q 69 411 69 388 q 84 446 69 429 q 138 463 99 463 l 190 463 l 42 772 q 38 797 38 782 q 45 824 39 811 q 64 847 51 838 q 93 856 76 856 q 126 849 106 856 q 156 826 147 843 l 281 565 q 297 533 288 550 q 314 517 306 517 q 329 530 322 517 q 347 565 336 543 l 482 833 q 506 852 489 849 q 532 856 522 856 q 560 846 550 856 q 572 822 569 836 q 573 793 575 808 q 565 767 571 778 l 415 463 l 481 463 q 522 448 507 463 q 538 414 538 433 q 514 364 538 378 q 454 350 490 350 l 381 350 q 379 336 379 343 q 379 319 379 329 l 481 319 q 522 306 507 319 q 538 268 538 293 q 511 226 538 242 q 454 211 485 211 l 379 211 l 379 72 q 372 38 379 51 q 351 15 364 24 q 325 3 339 7 q 299 0 311 0 m 67 793 q 70 805 67 800 q 75 814 74 810 q 76 822 76 818 q 74 826 76 826 q 58 813 63 826 q 54 793 54 800 q 61 782 54 782 q 65 786 64 782 q 67 793 67 790 m 283 43 q 281 57 283 47 q 278 82 278 67 q 274 101 274 101 q 268 88 272 101 q 283 33 268 33 q 286 37 286 33 q 283 43 286 40 z "},"":{"ha":658,"x_min":51,"x_max":617,"o":"m 131 181 q 92 252 107 222 q 67 311 76 282 q 55 374 58 340 q 51 457 51 408 q 70 567 51 513 q 119 667 89 621 q 77 733 97 699 q 57 807 57 767 q 65 832 57 819 q 89 844 74 844 q 119 833 104 844 q 149 804 135 821 q 176 770 164 788 q 194 743 188 753 q 258 776 224 764 q 329 788 293 788 q 405 774 369 788 q 472 738 440 761 q 492 764 479 746 q 522 800 506 782 q 554 831 538 818 q 585 844 571 844 q 608 832 600 844 q 617 807 617 819 q 597 735 617 771 q 557 669 576 699 q 597 565 582 621 q 613 454 613 510 q 594 319 613 386 q 532 199 576 251 q 549 172 535 193 q 578 128 563 151 q 605 82 593 104 q 617 53 617 60 q 604 18 617 36 q 574 0 592 0 q 545 18 564 0 q 507 59 526 36 q 471 103 488 82 q 449 129 454 124 q 388 107 419 114 q 324 100 356 100 q 266 110 294 100 q 210 119 238 119 q 190 101 200 119 q 168 60 181 82 q 139 19 156 38 q 100 0 122 0 q 69 18 82 0 q 57 53 57 36 q 67 78 57 60 q 90 118 76 97 q 115 157 103 139 q 131 181 126 175 m 104 529 q 113 536 108 529 q 120 552 117 543 q 127 570 124 561 q 132 582 131 579 q 152 613 138 594 q 182 651 167 632 q 209 686 197 669 q 221 711 221 703 q 218 714 221 714 q 178 694 200 714 q 138 646 157 674 q 106 590 119 618 q 93 544 93 561 q 104 529 93 529 m 324 217 q 401 238 369 217 q 452 290 432 258 q 481 363 472 322 q 489 443 489 404 q 482 522 489 482 q 458 594 475 561 q 412 647 442 626 q 336 667 382 667 q 263 647 293 667 q 213 597 232 628 q 186 526 194 565 q 178 450 178 488 q 185 376 178 417 q 210 301 193 336 q 254 241 226 265 q 324 217 282 217 m 110 494 q 97 507 110 507 q 91 503 93 507 q 89 494 89 499 q 99 485 89 485 q 110 494 110 485 z "},"(":{"ha":417,"x_min":19,"x_max":374,"o":"m 286 -100 q 160 -18 211 -71 q 78 99 110 35 q 33 235 47 164 q 19 374 19 307 q 31 504 19 438 q 65 633 43 571 q 118 751 86 696 q 189 846 150 806 q 261 908 226 883 q 324 933 296 933 q 357 917 344 933 q 369 883 369 900 q 352 857 369 872 q 303 808 335 842 q 233 711 261 764 q 189 602 206 658 q 166 488 172 546 q 160 378 160 431 q 168 267 160 325 q 196 157 176 210 q 247 60 215 104 q 326 -10 279 17 q 362 -31 350 -22 q 374 -60 374 -40 q 356 -92 374 -78 q 314 -106 338 -106 q 286 -100 299 -106 m 267 861 q 282 876 274 868 q 281 883 290 883 q 255 873 269 883 q 226 849 240 863 q 203 820 213 835 q 194 797 194 806 q 200 790 194 790 q 213 799 207 790 q 224 815 219 808 q 239 835 229 825 q 267 861 249 846 m 186 760 q 178 771 186 771 q 161 760 161 771 q 165 749 161 751 q 172 747 169 747 q 181 749 175 747 q 186 760 186 751 z "},")":{"ha":417,"x_min":39,"x_max":381,"o":"m 111 -129 q 74 -117 92 -129 q 57 -92 57 -106 q 71 -60 57 -79 q 105 -12 85 -40 q 149 57 125 17 q 194 150 174 97 q 228 271 214 203 q 242 424 242 339 q 231 553 242 489 q 201 672 221 618 q 155 767 182 726 q 94 825 128 807 q 58 848 78 835 q 39 886 39 861 q 57 920 39 907 q 104 933 75 933 q 206 897 156 933 q 294 794 256 861 q 357 633 333 728 q 381 419 381 538 q 369 243 381 315 q 335 118 357 171 q 285 24 314 65 q 221 -61 256 -18 q 162 -115 189 -101 q 111 -129 135 -129 m 67 863 q 77 873 72 863 q 82 894 82 883 q 72 913 82 913 q 62 902 67 913 q 57 881 57 892 q 67 863 57 863 m 104 -83 q 112 -56 111 -69 q 107 -40 113 -42 q 99 -46 104 -40 q 90 -60 94 -51 q 81 -76 85 -68 q 78 -89 78 -85 q 83 -101 78 -100 q 92 -100 88 -103 q 104 -83 97 -97 z "},"}":{"ha":435,"x_min":4,"x_max":410,"o":"m 104 -103 q 82 -101 94 -103 q 58 -93 69 -99 q 38 -79 46 -87 q 29 -58 29 -71 q 36 -41 29 -47 q 52 -32 43 -35 q 72 -29 61 -29 q 92 -29 83 -29 q 146 -17 129 -29 q 169 15 163 -6 q 175 60 175 35 q 178 111 175 85 q 183 170 181 135 q 194 243 186 206 q 213 315 201 281 q 243 367 225 349 q 257 377 246 371 q 268 389 268 383 q 252 402 268 397 q 231 411 236 407 q 194 464 208 425 q 172 549 179 503 q 160 638 164 594 q 156 701 157 681 q 155 735 154 714 q 153 775 156 756 q 147 810 151 794 q 129 828 142 825 q 79 832 104 835 q 22 841 39 829 q 4 876 4 853 q 35 917 4 907 q 113 921 67 928 q 195 892 163 915 q 247 838 228 869 q 276 769 267 806 q 288 697 285 732 q 292 615 290 656 q 299 540 293 575 q 320 478 306 506 q 364 438 335 451 q 393 419 376 432 q 410 390 410 406 q 401 372 410 379 q 385 357 393 364 q 344 316 357 336 q 327 274 332 296 q 322 228 322 253 q 321 175 322 204 q 313 71 318 121 q 288 -17 308 21 q 225 -79 268 -56 q 104 -103 182 -103 m 39 856 q 48 862 43 856 q 56 876 53 868 q 62 891 60 883 q 64 901 64 899 q 54 911 64 911 q 40 906 46 911 q 31 893 35 900 q 26 878 28 886 q 26 868 25 871 q 39 856 31 856 z "},"{":{"ha":447,"x_min":31,"x_max":426,"o":"m 335 -107 q 219 -86 261 -107 q 156 -29 178 -65 q 128 54 135 7 q 119 154 122 101 q 102 247 117 217 q 72 296 88 278 q 43 331 56 314 q 31 383 31 347 q 49 438 31 419 q 89 479 67 457 q 131 538 111 501 q 153 647 150 575 q 160 751 156 701 q 183 837 164 800 q 241 895 201 874 q 356 917 281 917 q 390 911 376 917 q 413 897 404 906 q 424 880 421 889 q 426 864 426 871 q 409 836 426 842 q 368 828 392 831 q 319 821 344 826 q 278 794 294 815 q 268 751 267 781 q 274 684 269 721 q 280 606 278 647 q 274 525 282 564 q 251 483 269 506 q 213 442 232 461 q 177 407 193 422 q 161 385 161 392 q 176 362 161 378 q 210 322 192 346 q 243 267 228 299 q 258 199 258 236 q 257 160 258 188 q 255 103 256 133 q 256 47 254 74 q 265 13 258 21 q 296 -14 278 -3 q 338 -25 314 -25 q 362 -26 349 -25 q 385 -30 375 -26 q 403 -42 396 -33 q 410 -65 410 -50 q 402 -86 410 -78 q 383 -99 394 -94 q 359 -106 372 -104 q 335 -107 346 -107 m 222 811 q 244 835 232 825 q 266 854 256 846 q 283 869 276 863 q 289 883 289 876 q 282 889 289 889 q 257 879 272 889 q 228 856 242 869 q 204 826 214 842 q 194 797 194 810 q 197 793 194 794 q 201 792 200 792 q 213 799 208 792 q 222 811 218 806 z "},"|":{"ha":249,"x_min":65,"x_max":199,"o":"m 135 -137 q 81 -111 97 -137 q 65 -60 65 -85 l 67 925 q 81 964 67 947 q 124 981 96 981 q 176 969 157 981 q 199 933 196 958 l 199 -53 q 185 -110 199 -83 q 135 -137 172 -137 m 104 907 q 108 933 104 922 q 113 949 111 943 q 115 958 115 956 q 108 961 115 961 q 95 953 100 961 q 88 935 90 946 q 84 915 85 925 q 83 897 83 904 q 88 865 83 879 q 100 850 92 850 q 105 856 104 850 q 106 872 106 863 q 105 892 106 882 q 104 907 104 901 z "},"[":{"ha":361,"x_min":50,"x_max":350,"o":"m 61 -97 q 55 -78 57 -93 q 51 -17 53 -64 q 50 120 50 29 q 50 369 50 211 q 50 563 50 482 q 50 699 50 643 q 51 792 50 756 q 56 849 53 828 q 63 882 58 871 q 74 901 67 893 q 95 913 79 908 q 133 919 111 917 q 181 922 154 921 q 236 922 208 922 q 322 903 293 922 q 324 856 350 883 q 297 842 317 847 q 236 836 278 836 q 206 833 217 836 q 192 824 196 831 q 188 805 188 817 q 188 774 188 793 l 188 -28 l 213 -28 q 292 -38 272 -28 q 313 -78 313 -49 q 308 -99 313 -92 q 288 -110 303 -107 q 249 -115 274 -114 q 182 -115 224 -115 q 123 -115 144 -115 q 89 -113 101 -115 q 71 -108 76 -111 q 61 -97 65 -104 m 113 856 q 128 875 115 867 q 149 883 140 883 q 161 893 161 883 q 159 894 161 894 q 149 894 157 894 q 108 881 128 894 q 89 847 89 867 q 94 831 89 831 q 105 838 100 831 q 113 856 110 844 z "},"]":{"ha":332,"x_min":19,"x_max":315,"o":"m 69 -111 q 34 -99 49 -111 q 19 -76 19 -87 q 38 -35 19 -46 q 85 -24 57 -24 q 137 -21 118 -24 q 165 -12 156 -18 q 176 5 174 -6 q 178 29 178 15 l 178 765 q 161 819 178 806 q 129 833 144 833 q 97 831 114 833 q 65 828 81 828 q 33 838 46 828 q 19 879 19 847 q 42 908 19 896 q 106 919 65 919 q 174 919 140 919 q 234 917 207 919 q 279 911 261 915 q 301 899 297 907 q 306 869 306 892 q 307 792 307 846 q 308 647 307 739 q 310 410 308 556 q 314 177 313 268 q 314 29 315 86 q 308 -35 314 -10 q 294 -75 303 -60 q 274 -97 286 -90 q 249 -106 263 -104 q 194 -110 224 -108 q 138 -111 164 -111 q 92 -111 111 -111 q 69 -111 72 -111 m 63 894 q 47 896 57 901 q 38 879 38 890 q 43 865 38 865 q 49 875 49 865 q 59 884 50 881 q 63 894 68 888 z "},"/":{"ha":554,"x_min":18,"x_max":525,"o":"m 114 -107 q 92 -104 108 -107 q 60 -95 76 -101 q 31 -79 43 -89 q 18 -57 18 -69 q 33 -13 18 -53 q 71 89 47 26 q 126 231 94 151 q 190 393 157 310 q 257 558 224 476 q 318 708 290 640 q 367 822 346 775 q 396 883 388 869 q 422 912 406 899 q 457 925 438 925 q 478 922 467 925 q 501 912 490 918 q 518 897 511 906 q 525 879 525 889 q 513 833 525 868 q 485 756 501 797 q 453 677 469 715 q 429 621 438 639 q 408 570 424 608 q 372 478 393 532 q 326 360 351 425 q 275 231 301 296 q 223 106 249 167 q 176 -3 197 44 q 138 -78 154 -50 q 114 -107 121 -107 m 79 -51 q 96 -10 85 -35 q 117 38 107 15 q 131 78 126 61 q 129 97 136 96 q 119 99 126 99 q 108 92 113 99 q 97 67 106 86 q 78 27 88 49 q 63 -15 69 6 q 56 -43 56 -35 q 66 -56 56 -53 q 79 -51 76 -58 z "},"\\":{"ha":533,"x_min":18,"x_max":525,"o":"m 114 925 q 149 876 124 925 q 206 751 174 826 q 275 587 239 676 q 343 416 311 497 q 398 274 375 335 q 429 197 421 214 q 453 141 438 179 q 485 62 469 103 q 513 -15 501 21 q 525 -61 525 -50 q 518 -79 525 -71 q 501 -94 511 -87 q 478 -103 490 -100 q 457 -107 467 -107 q 422 -94 438 -107 q 396 -65 406 -81 q 367 -4 388 -51 q 318 110 346 43 q 257 260 290 178 q 190 425 224 342 q 126 588 157 508 q 71 729 94 667 q 33 831 47 792 q 18 875 18 871 q 31 897 18 888 q 60 913 43 907 q 92 922 76 919 q 114 925 108 925 m 79 869 q 66 874 76 876 q 56 861 56 871 q 63 833 56 853 q 78 791 69 813 q 97 751 88 769 q 108 726 106 732 q 119 719 113 719 q 129 721 126 719 q 131 740 136 722 q 117 780 126 757 q 96 828 107 803 q 79 869 85 853 z "},"?":{"ha":417,"x_min":28,"x_max":401,"o":"m 136 144 q 108 155 119 144 q 90 180 97 165 q 81 211 83 194 q 78 240 78 228 q 103 363 78 313 q 168 444 128 413 q 232 527 217 485 q 247 615 247 569 q 242 656 247 635 q 226 694 238 676 q 196 722 214 711 q 151 733 178 733 q 134 732 143 733 q 115 728 125 731 q 51 738 75 717 q 28 793 28 758 q 59 846 28 829 q 147 868 90 863 q 242 859 196 872 q 323 815 288 846 q 380 737 358 785 q 401 624 401 689 q 364 489 401 549 q 278 381 326 429 q 242 349 257 360 q 219 325 228 338 q 205 294 210 313 q 199 239 200 275 q 197 207 199 224 q 188 176 194 190 q 169 153 182 163 q 136 144 157 144 m 71 810 q 86 827 78 821 q 90 836 94 833 q 76 835 83 839 q 62 825 68 832 q 51 810 56 818 q 47 794 47 801 q 57 778 47 778 q 63 788 63 778 q 71 810 64 799 m 138 196 q 128 226 131 210 q 125 257 125 242 l 126 261 l 126 263 l 129 282 l 129 285 l 131 289 q 125 300 131 300 q 110 283 114 300 q 107 254 107 265 q 108 231 107 244 q 113 204 110 217 q 122 183 115 192 q 138 174 128 174 q 141 181 140 174 q 138 196 142 188 m 136 -12 q 83 38 83 -12 q 99 81 83 61 q 140 100 115 100 q 177 83 160 100 q 194 47 194 65 q 179 5 194 22 q 136 -12 164 -12 m 124 79 q 112 64 117 79 q 107 38 107 49 q 111 25 107 25 q 119 31 115 25 q 124 47 124 36 q 128 71 124 63 q 124 79 132 79 z "},"!":{"ha":232,"x_min":50,"x_max":189,"o":"m 113 156 q 78 171 90 156 q 59 224 65 186 q 51 324 53 261 q 50 483 50 388 q 51 693 50 618 q 61 804 53 768 q 87 848 69 840 q 136 856 104 856 q 163 846 153 856 q 178 804 172 836 q 187 710 185 772 q 189 540 189 647 q 175 251 189 346 q 113 156 161 156 m 94 824 q 81 807 89 824 q 72 756 72 790 q 74 720 72 738 q 86 703 76 703 q 97 708 94 703 q 100 722 100 714 q 99 739 100 729 q 99 757 99 749 q 103 802 100 781 q 94 824 106 824 m 114 -11 q 72 6 88 -11 q 56 53 56 24 q 69 102 56 79 q 114 125 83 125 q 163 103 146 125 q 179 53 179 82 q 160 5 179 21 q 114 -11 142 -11 m 89 61 q 96 89 90 76 q 94 101 101 101 q 78 81 85 101 q 72 46 72 61 q 79 32 72 32 q 86 42 85 32 q 89 61 88 53 z "},"'":{"ha":146,"x_min":13,"x_max":133,"o":"m 72 733 q 48 744 58 733 q 31 769 38 754 q 19 800 24 783 q 14 828 15 817 q 13 863 13 840 q 19 906 13 885 q 38 942 25 926 q 72 957 50 957 q 108 942 96 957 q 127 907 121 928 q 133 865 133 886 q 131 828 133 843 q 125 801 129 817 q 114 769 121 785 q 97 744 107 754 q 72 733 86 733 m 65 903 q 58 933 74 933 q 51 927 54 933 q 44 913 47 921 q 38 897 40 906 q 36 885 36 889 q 46 864 36 864 q 65 903 56 864 z "},"\"":{"ha":272,"x_min":13,"x_max":265,"o":"m 72 733 q 48 744 58 733 q 31 769 38 754 q 19 800 24 783 q 14 828 15 817 q 13 863 13 840 q 19 906 13 885 q 38 942 25 926 q 72 957 50 957 q 108 942 96 957 q 127 907 121 928 q 133 865 133 886 q 131 828 133 843 q 125 801 129 817 q 114 769 121 785 q 97 744 107 754 q 72 733 86 733 m 204 733 q 180 744 190 733 q 163 769 169 754 q 151 800 156 783 q 146 828 147 817 q 144 863 144 840 q 151 906 144 885 q 169 942 157 926 q 204 957 182 957 q 240 942 228 957 q 259 907 253 928 q 265 865 265 886 q 263 828 265 843 q 257 801 261 817 q 246 769 253 785 q 228 744 239 754 q 204 733 218 733 m 65 903 q 58 933 74 933 q 51 927 54 933 q 44 913 47 921 q 38 897 40 906 q 36 885 36 889 q 46 864 36 864 q 65 903 56 864 m 197 903 q 190 933 206 933 q 183 927 186 933 q 176 913 179 921 q 170 897 172 906 q 168 885 168 889 q 178 864 168 864 q 197 903 188 864 z "},"":{"ha":147,"x_min":7,"x_max":140,"o":"m 72 731 q 22 758 38 731 q 7 825 7 785 q 13 866 7 843 q 32 910 19 889 q 63 944 44 931 q 104 958 81 958 q 131 935 131 958 q 123 925 131 929 q 111 918 115 921 q 81 894 93 908 q 65 858 68 879 q 65 849 65 849 q 71 856 67 849 q 92 864 75 864 q 126 847 111 864 q 140 803 140 829 q 124 751 140 771 q 72 731 107 731 m 43 789 q 38 808 40 800 q 29 815 35 815 q 26 806 25 815 q 31 783 26 796 q 41 761 35 771 q 53 751 47 751 q 56 756 56 751 q 51 769 56 761 q 43 789 47 778 z "},"":{"ha":157,"x_min":10,"x_max":143,"o":"m 78 958 q 128 931 113 958 q 143 864 143 904 q 137 823 143 846 q 118 779 131 800 q 88 744 106 758 q 46 731 69 731 q 19 754 19 731 q 27 764 19 760 q 39 771 35 768 q 69 795 57 781 q 85 831 82 810 q 85 840 85 840 q 79 833 83 840 q 58 825 75 825 q 24 842 39 825 q 10 886 10 860 q 26 938 10 918 q 78 958 43 958 m 51 933 q 49 938 51 938 q 37 928 43 938 q 26 906 31 918 q 22 883 22 893 q 25 874 21 874 q 33 881 31 874 q 39 900 36 889 q 47 919 43 911 q 51 933 51 928 z "},"":{"ha":290,"x_min":7,"x_max":278,"o":"m 72 731 q 22 758 38 731 q 7 825 7 785 q 13 866 7 843 q 32 910 19 889 q 63 944 44 931 q 104 958 81 958 q 131 935 131 958 q 123 925 131 929 q 111 918 115 921 q 81 894 93 908 q 65 858 68 879 q 65 849 65 849 q 71 856 67 849 q 92 864 75 864 q 126 847 111 864 q 140 803 140 829 q 124 751 140 771 q 72 731 107 731 m 210 731 q 160 758 175 731 q 144 825 144 785 q 151 866 144 843 q 169 910 157 889 q 200 944 182 931 q 242 958 218 958 q 268 935 268 958 q 260 925 268 929 q 249 918 253 921 q 218 894 231 908 q 203 858 206 879 q 203 849 203 849 q 208 856 204 849 q 229 864 213 864 q 263 847 249 864 q 278 803 278 829 q 261 751 278 771 q 210 731 244 731 m 43 789 q 38 808 40 800 q 29 815 35 815 q 26 806 25 815 q 31 783 26 796 q 41 761 35 771 q 53 751 47 751 q 56 756 56 751 q 51 769 56 761 q 43 789 47 778 m 181 789 q 175 808 178 800 q 167 815 172 815 q 163 806 163 815 q 168 783 164 796 q 178 761 172 771 q 190 751 185 751 q 193 756 193 751 q 189 769 193 761 q 181 789 185 778 z "},"":{"ha":293,"x_min":10,"x_max":282,"o":"m 78 958 q 128 931 113 958 q 143 864 143 904 q 137 823 143 846 q 118 779 131 800 q 88 744 106 758 q 46 731 69 731 q 19 754 19 731 q 27 764 19 760 q 39 771 35 768 q 69 795 57 781 q 85 831 82 810 q 85 840 85 840 q 79 833 83 840 q 58 825 75 825 q 24 842 39 825 q 10 886 10 860 q 26 938 10 918 q 78 958 43 958 m 217 958 q 267 931 251 958 q 282 864 282 904 q 276 823 282 846 q 257 779 269 800 q 226 744 244 758 q 185 731 208 731 q 158 754 158 731 q 166 764 158 760 q 178 771 174 768 q 208 795 196 781 q 224 831 221 810 q 224 840 224 840 q 218 833 222 840 q 197 825 214 825 q 163 842 178 825 q 149 886 149 860 q 165 938 149 918 q 217 958 182 958 m 51 933 q 49 938 51 938 q 37 928 43 938 q 26 906 31 918 q 22 883 22 893 q 25 874 21 874 q 33 881 31 874 q 39 900 36 889 q 47 919 43 911 q 51 933 51 928 m 190 933 q 188 938 190 938 q 176 928 182 938 q 165 906 169 918 q 160 883 161 893 q 164 874 160 874 q 172 881 169 874 q 178 900 175 889 q 186 919 182 911 q 190 933 190 928 z "},"":{"ha":156,"x_min":15,"x_max":149,"o":"m 83 139 q 133 112 118 139 q 149 44 149 85 q 142 3 149 26 q 124 -40 136 -19 q 93 -75 111 -61 q 51 -89 75 -89 q 25 -65 25 -89 q 33 -56 25 -60 q 44 -49 40 -51 q 75 -24 63 -39 q 90 11 88 -10 q 90 21 90 21 q 85 13 89 21 q 64 6 81 6 q 30 23 44 6 q 15 67 15 40 q 32 119 15 99 q 83 139 49 139 m 57 114 q 54 118 57 118 q 42 108 49 118 q 32 86 36 99 q 27 64 28 74 q 31 54 26 54 q 39 62 36 54 q 44 81 42 69 q 53 100 49 92 q 57 114 57 108 z "},"":{"ha":297,"x_min":15,"x_max":288,"o":"m 83 139 q 133 112 118 139 q 149 44 149 85 q 142 3 149 26 q 124 -40 136 -19 q 93 -75 111 -61 q 51 -89 75 -89 q 25 -65 25 -89 q 33 -56 25 -60 q 44 -49 40 -51 q 75 -24 63 -39 q 90 11 88 -10 q 90 21 90 21 q 85 13 89 21 q 64 6 81 6 q 30 23 44 6 q 15 67 15 40 q 32 119 15 99 q 83 139 49 139 m 222 139 q 272 112 257 139 q 288 44 288 85 q 281 3 288 26 q 263 -40 275 -19 q 232 -75 250 -61 q 190 -89 214 -89 q 164 -65 164 -89 q 172 -56 164 -60 q 183 -49 179 -51 q 214 -24 201 -39 q 229 11 226 -10 q 229 21 229 21 q 224 13 228 21 q 203 6 219 6 q 169 23 183 6 q 154 67 154 40 q 171 119 154 99 q 222 139 188 139 m 57 114 q 54 118 57 118 q 42 108 49 118 q 32 86 36 99 q 27 64 28 74 q 31 54 26 54 q 39 62 36 54 q 44 81 42 69 q 53 100 49 92 q 57 114 57 108 m 196 114 q 193 118 196 118 q 181 108 188 118 q 171 86 175 99 q 166 64 167 74 q 169 54 165 54 q 178 62 175 54 q 183 81 181 69 q 192 100 188 92 q 196 114 196 108 z "},"":{"ha":274,"x_min":29,"x_max":257,"o":"m 143 339 q 62 368 94 339 q 29 446 29 397 q 35 490 29 467 q 56 532 42 513 q 90 564 69 551 q 138 576 110 576 q 181 571 160 576 q 219 552 203 565 q 247 517 236 539 q 257 463 257 494 q 226 374 257 410 q 143 339 196 339 m 76 400 q 83 406 81 400 q 85 421 85 413 q 84 438 85 429 q 83 450 83 446 q 89 481 83 467 q 102 506 94 494 q 115 525 110 517 q 121 539 121 533 q 110 547 121 547 q 91 538 100 547 q 74 515 82 529 q 62 481 67 500 q 57 442 57 463 q 61 417 57 433 q 76 400 65 400 z "},"-":{"ha":499,"x_min":71,"x_max":400,"o":"m 400 457 q 371 400 400 414 q 308 385 342 386 q 227 383 268 383 q 144 382 186 382 q 92 397 114 382 q 71 443 71 411 q 79 474 71 463 q 100 493 88 486 q 128 503 113 500 q 160 506 144 506 q 248 508 204 507 q 336 508 292 508 q 380 498 360 508 q 400 457 400 488 m 96 417 q 108 424 101 417 q 119 441 114 432 q 127 459 124 450 q 131 471 131 468 q 130 481 131 476 q 122 486 129 486 q 95 467 104 486 q 86 435 86 449 q 90 420 86 424 q 96 417 93 417 z "},"":{"ha":564,"x_min":71,"x_max":483,"o":"m 483 457 q 454 400 483 414 q 392 385 425 386 q 338 384 371 385 q 268 383 304 383 q 199 382 232 382 q 144 382 165 382 q 92 397 114 382 q 71 443 71 411 q 79 474 71 463 q 100 493 88 486 q 128 503 113 500 q 160 506 144 506 q 217 506 182 506 q 289 508 251 507 q 362 508 326 508 q 419 508 397 508 q 463 498 443 508 q 483 457 483 488 m 96 417 q 108 424 101 417 q 119 441 114 432 q 127 459 124 450 q 131 471 131 468 q 130 481 131 476 q 122 486 129 486 q 95 467 104 486 q 86 435 86 449 q 90 420 86 424 q 96 417 93 417 z "},"":{"ha":651,"x_min":71,"x_max":567,"o":"m 567 457 q 538 400 567 414 q 475 385 508 386 q 408 384 454 385 q 310 383 363 383 q 212 382 258 382 q 144 382 165 382 q 92 397 114 382 q 71 443 71 411 q 79 474 71 463 q 100 493 88 486 q 128 503 113 500 q 160 506 144 506 q 230 506 182 506 q 331 508 278 507 q 432 508 383 508 q 503 508 481 508 q 547 498 526 508 q 567 457 567 488 m 96 417 q 108 424 101 417 q 119 441 114 432 q 127 459 124 450 q 131 471 131 468 q 130 481 131 476 q 122 486 129 486 q 95 467 104 486 q 86 435 86 449 q 90 420 86 424 q 96 417 93 417 z "},"":{"ha":343,"x_min":29,"x_max":288,"o":"m 240 258 q 188 290 224 267 q 117 340 153 313 q 56 392 82 367 q 29 429 29 417 q 43 455 29 438 q 78 494 57 472 q 124 539 99 515 q 175 581 150 563 q 220 613 200 600 q 250 625 240 625 q 274 614 263 625 q 285 590 285 603 q 266 556 285 581 q 224 506 247 532 q 180 459 201 481 q 154 432 158 438 q 189 406 167 422 q 233 372 211 390 q 272 335 256 353 q 288 304 288 317 q 283 287 288 296 q 271 270 278 278 q 256 259 264 263 q 240 258 247 256 m 104 482 q 100 489 104 489 q 88 483 96 489 q 74 468 81 476 q 62 451 67 460 q 58 439 57 443 q 66 438 61 435 q 75 444 71 442 q 94 461 83 451 q 104 482 104 471 z "},"":{"ha":446,"x_min":31,"x_max":417,"o":"m 213 797 q 213 827 213 807 q 217 867 213 847 q 231 903 221 888 q 258 918 240 918 q 287 881 276 918 q 297 776 297 843 q 300 742 297 749 q 380 697 351 733 q 408 600 408 660 q 361 518 408 518 q 328 533 342 518 q 314 576 314 549 q 298 617 314 603 q 258 632 282 632 q 185 572 213 632 q 158 417 158 513 q 188 284 158 326 q 272 242 217 242 q 314 249 299 242 q 340 267 329 257 q 361 284 351 276 q 385 292 371 292 q 417 249 417 292 q 384 176 417 208 q 299 132 351 143 q 297 119 296 126 q 297 99 297 111 q 287 -6 297 32 q 258 -43 276 -43 q 231 -28 240 -43 q 217 8 221 -12 q 214 48 214 28 q 214 78 214 68 l 214 131 q 83 219 135 144 q 31 415 31 293 q 81 642 31 565 q 213 739 132 718 l 213 797 m 93 608 q 106 615 100 608 q 120 633 113 622 q 135 654 128 643 q 150 674 142 665 q 164 687 156 679 q 172 701 172 694 q 168 704 172 704 q 147 693 160 704 q 121 667 133 682 q 99 636 108 651 q 90 613 90 621 q 93 608 90 608 m 92 581 q 85 590 92 590 q 74 579 74 590 q 81 569 74 569 q 88 573 83 569 q 92 581 92 576 z "},"":{"ha":349,"x_min":46,"x_max":306,"o":"m 92 250 q 60 265 75 250 q 46 297 46 281 q 63 336 46 317 q 105 374 81 356 q 153 409 129 393 q 189 438 176 425 q 156 469 178 449 q 112 512 133 489 q 74 558 90 535 q 57 599 57 582 q 68 622 57 617 q 94 628 79 628 q 148 604 113 628 q 218 549 183 581 q 279 485 253 517 q 306 438 306 454 q 292 406 306 425 q 257 367 278 388 q 210 325 236 346 q 161 288 185 304 q 119 260 138 271 q 92 250 100 250 m 94 607 q 84 601 88 607 q 81 592 81 596 q 83 581 81 589 q 88 574 85 574 q 94 583 92 574 q 103 599 97 590 q 101 607 108 607 l 94 607 m 96 306 q 94 320 96 313 q 88 328 93 328 q 80 317 83 328 q 76 301 76 307 q 80 289 76 297 q 88 281 83 281 q 95 290 94 281 q 96 306 96 300 z "},"":{"ha":556,"x_min":47,"x_max":513,"o":"m 282 251 q 252 263 274 251 q 205 293 231 275 q 151 333 179 311 q 100 375 124 354 q 62 413 76 396 q 47 439 47 431 q 76 488 47 456 q 141 551 104 519 q 215 607 178 583 q 268 631 251 631 q 289 622 279 631 q 299 601 299 613 q 278 567 299 592 q 231 515 257 542 q 182 468 204 489 q 156 443 160 447 q 194 411 167 432 q 251 367 222 390 q 301 321 279 343 q 324 286 324 299 q 310 262 324 272 q 282 251 296 251 m 471 264 q 444 275 463 264 q 404 303 426 286 q 358 342 382 321 q 316 384 335 364 q 285 421 297 404 q 272 444 272 438 q 299 488 272 458 q 360 549 325 518 q 430 604 396 581 q 481 628 464 628 q 503 620 494 628 q 513 599 513 613 q 495 558 513 579 q 453 517 478 538 q 406 478 429 496 q 369 447 382 460 q 398 420 376 440 q 443 376 419 400 q 485 330 467 353 q 504 294 504 307 q 493 273 504 282 q 471 264 482 264 m 92 425 q 103 451 100 436 q 114 475 107 467 q 117 485 117 479 q 113 492 118 492 q 93 472 103 492 q 83 436 83 453 q 85 429 83 433 q 92 425 86 425 m 317 433 q 323 442 319 433 q 331 462 326 451 q 337 481 335 472 q 336 489 339 489 q 316 473 322 489 q 310 446 310 457 q 310 438 310 443 q 317 433 311 433 m 332 418 q 325 425 332 425 q 317 418 317 425 q 325 410 317 410 q 332 418 332 410 z "},"":{"ha":536,"x_min":43,"x_max":497,"o":"m 282 253 q 262 263 271 253 q 253 283 253 272 q 267 310 253 292 q 299 347 281 328 q 335 383 318 367 q 361 406 353 400 l 396 435 q 374 456 392 440 q 335 488 356 471 q 297 519 315 504 q 274 538 279 533 q 229 590 229 568 q 243 619 229 606 q 272 632 257 632 q 309 624 290 632 q 364 586 328 617 q 395 560 374 578 q 440 523 417 543 q 480 483 463 503 q 497 451 497 464 q 469 400 497 432 q 435 362 458 386 q 383 313 411 338 q 328 271 356 289 q 282 253 301 253 m 72 251 q 51 263 60 251 q 43 285 43 274 q 69 335 43 306 q 149 406 96 364 l 186 435 l 133 479 q 64 546 85 519 q 43 589 43 572 q 54 610 43 601 q 78 619 65 619 q 124 596 90 619 q 191 542 157 572 q 251 481 225 511 q 278 439 278 451 q 250 396 278 426 q 187 333 222 365 q 118 276 151 300 q 72 251 85 251 m 274 589 q 279 610 274 601 q 281 617 282 615 q 279 618 281 618 q 267 609 275 618 q 258 589 258 600 q 265 581 258 581 q 274 589 274 581 m 83 589 q 85 602 86 600 q 83 604 85 604 q 63 588 63 604 q 67 578 63 582 q 75 575 71 575 q 79 579 76 576 q 82 584 81 582 q 83 589 83 586 m 75 304 q 77 319 79 315 q 69 313 75 324 q 64 294 64 301 q 69 289 64 289 q 73 294 74 289 q 75 304 72 299 m 288 297 q 285 308 288 308 q 278 301 281 308 q 275 292 275 294 q 279 283 275 283 q 287 287 286 283 q 288 297 288 290 z "},"":{"ha":306,"x_min":39,"x_max":267,"o":"m 149 664 q 71 694 103 664 q 39 769 39 724 q 47 807 39 789 q 69 838 56 825 q 100 858 82 851 q 138 861 118 865 q 157 859 153 858 q 161 869 161 860 q 156 882 161 874 q 141 897 151 890 q 117 905 131 903 q 83 901 103 907 q 54 909 64 896 q 44 932 44 922 q 67 962 44 950 q 126 974 90 974 q 188 960 163 974 q 231 923 214 947 q 255 867 247 899 q 263 801 263 836 q 232 694 263 725 q 149 664 201 664 m 83 789 q 89 800 85 793 q 97 813 93 807 q 101 824 100 819 q 97 828 101 828 q 74 811 86 828 q 63 782 63 794 q 72 774 63 774 q 83 789 81 774 m 178 760 q 170 778 178 772 q 151 785 163 785 q 132 778 140 785 q 124 758 124 771 q 128 739 124 749 q 153 729 133 729 q 170 737 163 729 q 178 760 178 744 m 101 561 q 83 563 93 561 q 63 568 72 564 q 47 581 53 572 q 40 603 40 589 q 53 636 40 624 q 101 649 65 649 l 203 647 q 224 647 213 647 q 244 645 235 647 q 260 636 254 643 q 267 614 267 629 q 249 574 267 583 q 204 564 232 565 l 101 561 m 76 619 q 81 626 79 622 q 82 632 83 629 q 76 636 81 636 q 58 619 64 636 q 51 596 51 603 q 56 589 51 589 q 65 597 61 589 q 76 619 69 604 z "},"":{"ha":306,"x_min":22,"x_max":272,"o":"m 153 686 q 92 698 117 686 q 51 728 67 710 q 29 769 36 746 q 22 815 22 793 q 32 874 22 847 q 59 922 42 901 q 100 953 76 942 q 150 964 124 964 q 238 923 203 964 q 272 819 272 882 q 239 724 272 761 q 153 686 206 686 m 85 894 q 91 902 86 897 q 99 911 96 907 q 104 919 103 915 q 101 922 106 922 q 81 915 90 922 q 65 896 72 907 q 55 874 58 885 q 51 857 51 864 q 52 853 51 856 q 56 850 53 850 q 72 866 67 850 q 85 894 78 882 m 149 765 q 188 780 176 765 q 200 819 200 794 q 187 862 200 846 q 153 878 174 878 q 115 861 129 878 q 100 817 100 844 q 112 779 100 793 q 149 765 124 765 m 97 564 q 60 569 81 564 q 40 603 40 574 q 53 637 40 624 q 103 651 67 650 l 204 654 q 245 649 224 656 q 267 614 267 643 q 247 576 267 583 q 200 567 228 568 l 97 564 m 74 615 q 78 621 76 618 q 79 626 81 624 q 74 631 78 631 q 58 617 64 631 q 51 596 51 603 q 54 592 51 592 q 74 615 63 592 z "},"":{"ha":181,"x_min":15,"x_max":164,"o":"m 88 693 q 77 729 78 700 q 76 825 76 758 q 71 856 76 856 q 58 844 64 854 q 40 835 53 835 q 15 871 15 835 q 26 900 15 885 q 52 928 38 915 q 83 948 67 940 q 108 956 99 956 q 149 928 135 956 q 164 828 164 901 q 163 768 164 790 q 162 733 163 746 q 159 715 161 721 q 154 704 157 708 q 133 690 149 694 q 110 686 118 686 q 88 693 99 686 m 56 890 q 63 909 65 906 q 57 914 61 913 q 50 911 54 915 q 41 901 46 907 q 33 888 36 894 q 29 879 29 882 q 29 864 25 867 q 56 890 36 863 z "},"":{"ha":221,"x_min":15,"x_max":203,"o":"m 72 694 q 39 699 58 694 q 19 722 19 704 q 32 751 19 736 q 60 783 44 765 q 89 824 76 801 q 101 874 101 846 q 83 892 101 892 q 66 881 72 892 q 40 869 60 869 q 21 880 26 869 q 15 903 15 890 q 41 947 15 931 q 106 964 67 964 q 164 941 143 964 q 185 882 185 918 q 165 813 185 842 q 118 757 144 785 l 167 757 q 192 750 182 757 q 203 725 203 743 q 193 703 203 713 q 168 694 183 694 l 72 694 m 54 747 q 51 751 54 751 q 43 746 47 750 q 35 735 39 742 q 32 725 32 729 q 36 718 32 718 q 47 725 40 718 q 54 739 51 729 q 54 747 54 743 z "},"":{"ha":232,"x_min":15,"x_max":199,"o":"m 86 692 q 67 693 78 692 q 47 699 57 694 q 29 710 36 703 q 22 726 22 717 q 34 745 22 736 q 69 747 46 754 q 111 750 96 739 q 126 772 126 761 q 117 792 126 783 q 99 800 108 801 q 61 800 75 797 q 47 821 47 803 q 81 849 47 849 q 105 860 96 849 q 114 888 114 872 q 110 903 114 899 q 90 908 106 908 q 76 904 82 908 q 65 895 71 900 q 54 886 60 890 q 39 882 49 882 q 22 892 28 882 q 15 915 15 901 q 35 945 15 929 q 104 961 54 961 q 165 942 144 961 q 186 890 186 922 q 179 861 186 872 q 164 843 172 850 q 149 833 156 836 q 142 828 142 831 q 151 824 142 826 q 170 817 160 822 q 190 800 181 811 q 199 769 199 789 q 165 709 199 726 q 86 692 131 692 m 74 826 q 74 837 76 833 q 67 838 72 840 q 57 822 60 832 q 60 813 54 813 q 74 826 68 813 z "},"":{"ha":208,"x_min":50,"x_max":189,"o":"m 114 856 q 160 840 142 856 q 179 792 179 824 q 163 741 179 763 q 114 719 146 719 q 69 742 83 719 q 56 792 56 765 q 72 838 56 821 q 114 856 88 856 m 94 772 q 88 790 92 781 q 79 799 83 800 q 75 783 72 796 q 88 753 78 768 q 110 742 99 738 q 108 751 117 744 q 94 772 99 757 m 113 689 q 175 594 161 689 q 189 304 189 499 q 187 135 189 199 q 178 40 185 72 q 163 -1 172 8 q 136 -11 153 -11 q 87 -3 104 -11 q 61 40 69 4 q 51 151 53 76 q 50 361 50 226 q 51 520 50 457 q 59 621 53 583 q 78 674 65 658 q 113 689 90 689 m 99 522 q 107 544 110 522 q 103 589 104 565 q 103 607 103 597 q 104 624 104 617 q 101 638 104 632 q 90 643 99 643 q 78 626 81 643 q 76 590 76 608 q 85 539 76 556 q 99 522 93 522 z "},"":{"ha":414,"x_min":28,"x_max":401,"o":"m 293 839 q 346 789 346 839 q 330 746 346 765 q 289 726 314 726 q 249 744 264 726 q 235 779 235 761 q 250 822 235 804 q 293 839 265 839 m 267 818 q 253 803 257 818 q 250 779 250 789 q 258 763 250 763 q 267 786 267 763 q 271 810 267 801 q 267 818 275 818 m 293 682 q 321 672 310 682 q 339 647 332 661 q 349 615 346 632 q 351 586 351 599 q 326 464 351 514 q 261 382 301 414 q 197 299 213 342 q 182 211 182 257 q 188 171 182 192 q 204 133 193 150 q 233 104 215 115 q 278 93 251 93 q 295 94 286 93 q 314 99 304 96 q 378 89 354 110 q 401 33 401 68 q 370 -19 401 -3 q 282 -42 339 -36 q 188 -33 233 -46 q 106 11 142 -19 q 49 90 71 42 q 28 203 28 138 q 65 338 28 278 q 151 446 103 397 q 187 478 172 467 q 211 501 201 489 q 225 533 221 514 q 231 588 229 553 q 233 619 231 603 q 241 650 235 636 q 260 673 247 664 q 293 682 272 682 m 281 556 q 275 580 275 568 q 278 610 275 592 q 279 618 278 615 l 285 638 q 286 646 286 640 q 282 657 286 657 q 272 654 276 658 q 263 643 267 650 q 257 629 260 636 q 254 617 254 622 q 253 594 253 608 q 255 566 253 579 q 263 543 257 553 q 278 533 268 533 q 283 540 283 533 q 281 556 283 547 z "},"":{"ha":551,"x_min":25,"x_max":540,"o":"m 96 -18 q 60 3 74 -18 q 40 54 47 25 q 31 115 33 83 q 28 167 28 146 q 26 467 25 338 q 47 685 28 597 q 113 817 67 772 q 243 863 158 863 q 447 797 378 863 q 515 610 515 732 q 496 524 515 560 q 453 465 476 489 q 410 428 429 442 q 392 408 392 415 q 415 394 392 400 q 467 367 439 388 q 517 308 494 347 q 540 194 540 268 q 517 90 540 131 q 453 28 493 50 q 363 -3 414 6 q 257 -11 311 -11 q 210 6 228 -11 q 193 53 193 22 q 222 105 193 89 q 317 121 250 121 q 345 122 331 121 q 372 131 360 124 q 392 155 385 138 q 401 203 400 172 q 388 263 403 240 q 351 297 374 285 q 301 317 328 310 q 251 333 274 325 q 213 353 228 340 q 197 388 197 365 q 224 431 197 415 q 283 467 250 447 q 342 519 315 488 q 368 610 368 551 q 359 663 368 639 q 335 705 350 688 q 303 732 321 722 q 269 742 286 742 q 222 719 240 742 q 193 663 204 697 q 177 587 182 629 q 171 503 172 544 q 170 428 169 463 q 171 374 171 393 q 172 202 171 281 q 172 40 172 124 q 149 1 172 21 q 96 -18 126 -18 m 97 701 q 120 747 107 726 q 145 784 133 768 q 165 811 157 800 q 174 826 174 822 q 153 822 174 833 q 126 799 139 815 q 103 763 113 782 q 88 728 93 744 q 82 706 82 713 q 88 694 82 694 q 97 701 94 694 m 86 665 q 75 675 86 675 q 66 671 68 675 q 64 664 64 667 q 75 656 64 656 q 86 665 86 656 z "},",":{"ha":213,"x_min":32,"x_max":194,"o":"m 60 -64 q 40 -58 49 -64 q 32 -37 32 -53 q 42 -26 32 -31 q 67 -18 51 -21 q 91 1 88 -14 q 82 17 94 17 q 54 34 65 17 q 43 72 43 51 q 64 132 43 104 q 125 160 85 160 q 177 135 160 160 q 194 81 194 110 q 183 28 194 54 q 154 -18 172 3 q 112 -51 136 -39 q 60 -64 88 -64 m 82 89 q 89 104 83 96 q 97 117 94 113 q 100 129 103 126 q 99 133 100 132 q 75 114 86 133 q 64 81 64 94 q 68 63 64 63 q 82 89 75 63 z "},"":{"ha":364,"x_min":65,"x_max":303,"o":"m 65 1014 q 78 1053 65 1043 q 110 1063 90 1063 q 133 1049 125 1063 q 147 1018 140 1035 q 162 988 154 1001 q 185 974 169 974 q 208 988 200 974 q 224 1018 217 1001 q 238 1048 231 1035 q 260 1061 246 1061 q 290 1051 276 1061 q 303 1022 303 1040 q 297 980 303 1003 q 277 937 290 957 q 242 903 264 917 q 186 889 219 889 q 130 901 153 889 q 92 931 107 913 q 72 972 78 950 q 65 1014 65 994 z "},";":{"ha":244,"x_min":28,"x_max":182,"o":"m 110 711 q 60 729 81 711 q 39 779 39 747 q 60 835 39 811 q 113 860 81 860 q 182 790 182 860 q 162 737 182 763 q 110 711 142 711 m 69 767 q 76 775 75 767 q 79 788 76 783 q 92 810 83 800 q 107 832 100 819 q 107 838 108 835 q 103 842 106 842 q 89 835 96 842 q 76 818 82 828 q 66 798 69 808 q 63 781 63 788 q 63 772 63 778 q 69 767 64 767 m 53 -67 q 35 -62 42 -67 q 28 -43 28 -57 q 37 -32 28 -36 q 60 -25 46 -28 q 81 -8 79 -22 q 72 6 83 6 q 47 21 57 6 q 38 56 38 36 q 56 110 38 85 q 111 135 75 135 q 158 113 143 135 q 174 64 174 90 q 164 17 174 40 q 138 -24 154 -6 q 99 -55 121 -43 q 53 -67 78 -67 m 72 71 q 78 85 74 78 q 86 96 83 92 q 89 108 89 101 q 88 111 89 110 q 67 93 76 111 q 57 64 57 75 q 60 47 57 47 q 72 71 68 47 z "},"":{"ha":646,"x_min":36,"x_max":594,"o":"m 374 -87 q 325 -67 346 -87 q 304 3 304 -46 l 304 267 q 292 285 304 279 q 268 290 281 290 l 228 290 q 163 308 197 290 q 101 358 129 325 q 55 440 74 392 q 36 551 36 489 q 56 692 36 633 q 108 786 76 750 q 181 839 140 822 q 265 856 222 856 l 508 856 q 569 846 544 856 q 593 801 593 836 l 594 8 q 572 -67 594 -46 q 521 -87 549 -87 q 478 -67 493 -87 q 463 3 463 -46 l 463 672 q 458 717 463 703 q 447 732 453 732 q 432 674 432 732 l 432 8 q 417 -67 432 -46 q 374 -87 401 -87 m 169 769 q 193 794 193 789 q 186 800 193 800 q 163 787 176 800 q 138 756 150 774 q 116 722 125 739 q 107 696 107 704 q 111 686 107 686 q 119 693 115 686 q 131 713 124 700 q 149 746 140 731 q 169 769 158 761 m 114 646 q 103 660 114 660 q 89 646 89 660 q 101 639 89 639 q 114 646 114 639 m 349 -50 q 338 -8 338 -39 q 331 14 338 14 q 324 -12 324 14 q 330 -49 324 -35 q 346 -64 336 -64 q 353 -58 353 -64 q 349 -50 353 -54 m 507 -50 q 496 -8 496 -39 q 489 14 496 14 q 482 -12 482 14 q 488 -49 482 -35 q 504 -64 494 -64 q 511 -58 511 -64 q 507 -50 511 -54 z "},"&":{"ha":744,"x_min":43,"x_max":706,"o":"m 322 -8 q 115 65 188 -8 q 43 268 43 138 q 69 404 43 353 q 127 485 96 456 q 184 526 158 514 q 210 546 210 539 q 203 565 210 551 q 188 598 196 579 q 174 640 181 617 q 167 688 167 663 q 220 815 167 767 q 361 864 274 864 q 463 840 419 864 q 519 788 506 815 q 522 767 524 781 q 513 740 519 753 q 496 716 507 726 q 468 706 485 706 q 440 712 451 706 q 419 726 429 718 q 399 740 410 733 q 376 746 389 746 q 333 727 350 746 q 315 668 315 708 q 335 603 315 643 q 388 513 356 563 q 461 407 421 463 q 542 297 501 351 q 571 368 558 331 q 594 403 578 392 q 629 415 611 415 q 661 402 647 415 q 675 361 675 389 q 668 323 675 344 q 651 279 661 301 q 629 236 640 257 q 610 203 618 215 q 678 99 651 144 q 706 32 706 54 q 698 8 706 18 q 679 -7 690 -1 q 654 -15 668 -12 q 629 -17 640 -17 q 589 15 617 -17 q 525 93 561 46 q 430 20 481 49 q 322 -8 379 -8 m 214 693 q 228 708 224 693 q 236 729 233 722 q 251 762 243 746 q 272 792 260 778 q 283 804 274 794 q 293 817 293 814 q 292 819 293 819 q 263 806 278 819 q 235 772 247 792 q 216 734 224 753 q 208 704 208 715 q 210 697 208 701 q 214 693 211 693 m 228 656 q 227 663 228 658 q 219 667 226 667 q 211 663 214 667 q 208 656 208 658 q 218 644 208 644 q 226 649 224 644 q 228 656 228 653 m 457 186 q 393 275 425 231 q 335 354 361 319 q 291 410 310 389 q 265 432 272 432 q 230 418 247 432 q 200 383 213 404 q 180 335 188 361 q 172 283 172 308 q 183 226 172 254 q 215 175 194 197 q 264 140 235 153 q 328 126 293 126 q 457 186 390 126 m 104 175 q 108 195 111 181 q 101 217 104 210 q 93 255 96 235 q 99 303 90 275 q 101 328 106 322 q 94 331 97 333 q 77 302 82 322 q 72 259 72 282 q 78 215 72 236 q 93 181 83 193 q 98 175 94 178 q 104 175 101 172 z "},"@":{"ha":799,"x_min":10,"x_max":765,"o":"m 363 1 q 219 28 285 1 q 108 102 154 54 q 35 219 61 150 q 10 371 10 288 q 40 546 10 465 q 123 687 69 626 q 249 781 176 747 q 406 815 321 815 q 557 787 490 815 q 670 708 624 758 q 741 592 717 658 q 765 451 765 526 q 751 351 765 397 q 711 269 736 304 q 653 213 686 233 q 582 193 619 193 q 535 204 553 193 q 506 229 517 215 q 490 254 496 243 q 478 265 483 265 q 460 253 472 265 q 429 228 447 242 q 388 203 411 215 q 335 192 364 192 q 281 205 306 192 q 238 242 256 218 q 209 297 219 265 q 199 365 199 328 q 215 456 199 413 q 256 534 231 500 q 316 588 282 568 q 386 608 350 608 q 415 603 404 608 q 433 593 426 599 q 444 583 440 588 q 453 578 449 578 q 461 584 457 578 q 471 597 465 590 q 485 610 476 604 q 507 617 493 617 q 547 590 536 617 q 560 528 558 564 q 560 458 563 493 q 557 406 557 422 q 561 369 557 388 q 572 334 565 350 q 588 308 579 318 q 606 299 596 299 q 636 332 622 299 q 650 421 650 365 q 638 540 650 488 q 598 630 625 593 q 526 687 571 667 q 418 707 482 707 q 301 683 354 707 q 208 615 247 658 q 148 514 169 572 q 126 388 126 456 q 145 275 126 326 q 197 186 164 224 q 275 128 231 149 q 371 107 319 107 q 444 116 407 107 q 514 136 481 125 q 577 156 547 147 q 629 165 607 165 q 668 136 668 165 q 641 88 668 113 q 570 44 614 64 q 472 13 526 25 q 363 1 417 1 m 249 439 q 260 453 254 439 q 269 471 267 468 q 295 507 281 490 q 325 539 310 524 q 324 546 332 546 q 299 534 314 546 q 272 507 285 522 q 251 475 260 492 q 242 449 242 458 q 244 442 242 446 q 249 439 246 439 m 368 306 q 397 318 382 306 q 424 350 411 331 q 444 394 436 369 q 451 444 451 419 q 407 503 451 503 q 371 493 389 503 q 338 467 353 483 q 315 429 324 450 q 307 386 307 408 q 322 328 307 351 q 368 306 336 306 m 246 404 q 239 417 246 414 q 230 413 235 418 q 225 404 225 408 q 228 394 225 399 q 236 389 232 389 q 243 394 240 389 q 246 404 246 400 z "},":":{"ha":243,"x_min":39,"x_max":185,"o":"m 110 711 q 60 729 81 711 q 39 779 39 747 q 60 835 39 811 q 113 860 81 860 q 182 790 182 860 q 162 737 182 763 q 110 711 142 711 m 69 767 q 76 775 75 767 q 79 788 76 783 q 92 810 83 800 q 107 832 100 819 q 107 838 108 835 q 103 842 106 842 q 89 835 96 842 q 76 818 82 828 q 66 798 69 808 q 63 781 63 788 q 63 772 63 778 q 69 767 64 767 m 113 -8 q 63 10 83 -8 q 42 60 42 28 q 63 116 42 92 q 115 140 83 140 q 185 71 185 140 q 165 17 185 43 q 113 -8 144 -8 m 72 47 q 78 56 78 47 q 82 68 79 64 q 94 90 86 81 q 110 113 103 100 q 110 119 111 115 q 106 122 108 122 q 92 115 99 122 q 78 99 85 108 q 69 78 72 89 q 65 61 65 68 q 66 53 65 58 q 72 47 67 47 z "},"":{"ha":214,"x_min":22,"x_max":192,"o":"m 106 371 q 47 392 71 371 q 22 451 22 414 q 47 517 22 488 q 110 547 71 547 q 192 464 192 547 q 167 401 192 431 q 106 371 143 371 m 58 436 q 66 446 65 436 q 69 461 67 456 q 85 488 75 476 q 103 514 94 499 q 102 521 104 517 q 97 525 100 525 q 81 517 89 525 q 65 497 72 508 q 54 472 58 485 q 50 453 50 460 q 51 443 50 450 q 58 436 51 436 z "},"":{"ha":599,"x_min":38,"x_max":572,"o":"m 292 486 q 189 510 236 486 q 108 573 142 533 q 56 663 75 613 q 38 768 38 714 q 56 880 38 828 q 110 970 75 932 q 194 1031 144 1008 q 304 1053 243 1053 q 412 1033 363 1053 q 497 976 461 1013 q 552 890 532 940 q 572 781 572 840 q 551 670 572 724 q 492 576 529 617 q 403 510 454 535 q 292 486 351 486 m 301 565 q 381 583 347 565 q 439 629 415 600 q 474 697 463 658 q 486 781 486 736 q 474 859 486 822 q 440 923 463 896 q 383 965 417 950 q 306 981 350 981 q 224 964 258 981 q 166 918 189 947 q 132 851 143 889 q 121 768 121 813 q 133 690 121 726 q 167 625 144 653 q 224 581 190 597 q 301 565 258 565 m 372 621 q 342 638 354 621 q 322 676 331 656 q 306 713 313 696 q 289 731 299 731 q 281 714 282 731 q 281 693 281 697 q 265 639 278 657 q 231 621 251 621 q 210 633 217 621 q 199 661 203 644 q 196 697 196 678 q 196 731 196 715 q 199 800 196 763 q 213 869 201 838 q 247 922 224 901 q 314 943 271 943 q 374 921 346 943 q 401 864 401 899 q 378 810 401 829 q 332 785 356 790 q 385 733 363 768 q 408 663 408 699 q 400 633 408 646 q 372 621 392 621 m 229 839 q 233 848 233 839 q 236 867 233 857 q 245 891 240 881 q 247 901 250 901 q 231 886 238 903 q 222 863 224 869 q 223 847 222 856 q 229 839 224 839 m 281 826 q 307 842 294 826 q 319 869 319 857 q 317 878 319 874 q 310 882 315 882 q 288 867 299 882 q 278 832 278 853 q 281 826 278 826 m 232 825 q 229 831 233 828 q 221 832 225 833 q 213 826 215 832 q 219 817 213 821 q 228 818 224 815 q 232 825 232 821 z "},"":{"ha":875,"x_min":39,"x_max":835,"o":"m 433 -14 q 259 24 333 -14 q 136 123 185 63 q 63 258 88 183 q 39 408 39 333 q 67 578 39 500 q 147 712 94 656 q 274 800 199 768 q 442 832 349 832 q 600 801 528 832 q 724 715 672 769 q 806 584 776 660 q 835 421 835 508 q 805 253 835 332 q 722 115 775 174 q 594 21 668 56 q 433 -14 521 -14 m 436 93 q 648 181 576 93 q 719 421 719 269 q 701 538 719 482 q 646 638 682 594 q 558 706 610 681 q 442 732 507 732 q 327 707 379 732 q 238 640 275 682 q 179 543 200 599 q 158 425 158 488 q 177 303 158 363 q 231 197 196 243 q 318 122 267 150 q 436 93 369 93 m 454 163 q 367 181 407 163 q 297 233 326 200 q 252 310 268 265 q 236 407 236 354 q 251 497 236 453 q 295 576 267 542 q 364 633 324 611 q 453 654 404 654 q 499 648 476 654 q 541 630 522 642 q 572 601 560 618 q 583 563 583 585 q 569 528 583 543 q 539 514 556 514 q 522 518 528 514 q 510 526 515 522 q 497 535 504 531 q 476 539 489 539 q 428 527 447 539 q 396 495 408 515 q 378 450 383 475 q 372 400 372 425 q 377 364 372 383 q 392 327 382 344 q 415 299 401 310 q 447 288 429 288 q 492 298 472 288 q 536 308 513 308 q 571 292 556 308 q 586 253 586 275 q 572 210 586 228 q 539 183 558 193 q 497 167 519 172 q 454 163 474 163 m 306 500 q 321 517 308 500 q 349 551 333 533 q 378 581 364 568 q 393 600 393 593 q 389 606 393 606 q 364 595 379 606 q 334 570 349 585 q 308 540 319 556 q 297 514 297 525 q 298 506 297 511 q 306 500 299 500 z "},"_":{"ha":433,"x_min":18,"x_max":403,"o":"m 403 -53 q 374 -110 403 -96 q 311 -125 344 -124 q 262 -126 290 -125 q 202 -127 233 -126 q 142 -128 171 -128 q 92 -128 113 -128 q 40 -113 61 -128 q 18 -67 18 -99 q 26 -36 18 -49 q 47 -17 35 -24 q 76 -7 60 -10 q 107 -4 92 -4 q 160 -3 129 -4 q 222 -2 190 -3 q 285 -1 254 -1 q 339 -1 317 -1 q 383 -12 363 -1 q 403 -53 403 -22 m 43 -93 q 55 -85 49 -93 q 66 -69 61 -78 q 74 -51 71 -60 q 78 -39 78 -42 q 77 -28 78 -33 q 69 -24 76 -24 q 42 -42 51 -24 q 33 -75 33 -61 q 37 -90 33 -86 q 43 -93 40 -93 z "},"#":{"ha":638,"x_min":26,"x_max":603,"o":"m 333 150 q 299 167 308 150 q 289 204 290 183 q 297 251 288 228 q 304 293 306 275 q 294 299 304 297 q 281 300 283 300 l 238 300 q 225 267 233 288 q 206 225 217 246 q 180 190 194 204 q 147 175 165 175 q 116 189 125 175 q 106 222 107 203 q 110 260 104 246 q 115 297 117 275 q 102 309 115 308 q 72 313 89 310 q 42 326 56 315 q 26 367 28 336 q 35 394 26 383 q 56 410 43 404 q 83 417 68 415 q 113 419 99 419 q 140 430 129 419 q 156 456 150 440 q 165 488 161 471 q 171 517 168 504 q 143 519 160 517 q 110 526 126 521 q 83 541 94 531 q 72 568 72 551 q 91 614 71 604 q 164 624 111 624 q 194 628 186 624 q 210 656 203 633 q 218 680 214 665 q 230 708 222 694 q 250 732 238 722 q 283 742 263 742 q 322 725 311 742 q 333 693 332 708 q 328 667 333 679 q 325 642 324 656 q 331 631 325 635 q 345 626 338 628 q 361 624 353 624 q 374 624 369 624 q 396 640 388 624 q 413 678 404 657 q 432 715 421 699 q 464 732 443 732 q 504 710 492 732 q 518 671 517 688 q 514 649 518 660 q 510 626 510 639 q 524 616 510 617 q 556 613 539 615 q 586 603 572 611 q 601 572 600 596 q 589 542 603 553 q 556 524 575 531 q 517 516 538 518 q 483 514 496 514 q 467 465 474 488 q 451 415 461 443 q 483 416 467 415 q 514 413 500 417 q 537 400 528 410 q 547 368 546 390 q 540 335 549 349 q 518 314 532 322 q 488 302 504 306 q 457 299 472 299 l 450 299 l 435 300 l 428 300 q 419 258 424 283 q 405 209 414 233 q 379 167 396 185 q 333 150 363 150 m 239 635 q 249 643 243 635 q 259 662 254 651 q 268 683 264 672 q 272 699 272 694 q 265 706 272 706 q 253 700 260 707 q 242 683 247 693 q 234 663 238 674 q 231 647 231 653 q 233 639 231 643 q 239 635 236 635 m 97 561 q 108 576 104 561 q 111 597 113 592 q 107 603 111 603 q 94 596 100 606 q 89 578 88 586 q 97 561 89 561 m 301 414 q 328 424 317 414 q 346 449 339 435 q 356 480 353 464 q 358 508 358 496 q 357 517 358 513 q 350 521 356 521 q 306 513 318 521 q 282 475 293 504 q 273 449 279 467 q 268 422 267 431 l 268 421 q 284 415 275 417 q 301 414 293 414 m 72 388 q 63 396 72 396 q 46 379 50 396 q 44 356 42 363 q 50 347 47 349 q 57 352 53 347 q 65 364 61 357 q 70 378 68 371 q 72 388 72 385 z "},"":{"ha":379,"x_min":39,"x_max":324,"o":"m 174 619 q 78 658 118 619 q 39 758 39 697 q 51 822 39 792 q 83 873 63 851 q 133 908 104 894 q 197 921 163 921 q 249 909 225 921 q 289 876 272 897 q 315 829 306 856 q 324 774 324 803 q 312 708 324 736 q 279 660 300 679 q 231 630 258 640 q 174 619 204 619 m 122 860 q 134 876 132 869 q 133 883 136 883 q 110 873 122 883 q 87 848 97 863 q 69 817 76 833 q 63 786 63 800 q 65 775 63 783 q 71 767 67 767 q 85 797 76 767 q 100 833 89 817 q 122 860 111 849 m 179 699 q 219 718 196 699 q 242 774 242 738 q 227 820 242 801 q 189 839 213 839 q 146 820 165 839 q 126 768 126 801 q 142 717 126 735 q 179 699 157 699 z "},"+":{"ha":554,"x_min":58,"x_max":493,"o":"m 281 161 q 242 181 256 161 q 221 230 228 201 q 212 290 214 258 q 208 344 210 322 q 169 341 186 343 q 131 339 153 339 q 81 352 104 339 q 58 401 58 365 q 75 440 58 426 q 115 458 92 453 q 164 465 139 464 q 207 468 189 467 q 208 519 207 486 q 216 584 210 551 q 235 640 222 617 q 275 664 249 664 q 322 640 307 664 q 342 585 336 617 q 347 520 347 553 q 349 468 347 488 q 402 471 376 471 q 448 465 428 471 q 481 446 468 458 q 493 413 493 433 q 476 374 493 389 q 437 352 460 360 q 390 342 414 344 q 349 340 365 340 q 347 288 349 318 q 339 229 346 257 q 319 181 332 201 q 281 161 306 161 m 249 550 q 260 559 256 550 q 268 579 265 568 q 274 601 271 590 q 281 617 276 613 q 285 626 285 621 q 283 632 285 628 q 275 636 281 636 q 260 628 267 636 q 250 608 254 619 q 244 584 246 596 q 242 565 242 572 q 243 556 242 563 q 249 550 244 550 m 260 521 q 258 526 260 524 q 251 529 256 529 q 241 523 244 529 q 238 510 238 517 q 242 501 238 503 q 249 500 246 500 q 256 508 253 500 q 260 521 260 515 z "},"*":{"ha":393,"x_min":38,"x_max":349,"o":"m 108 638 q 60 641 82 638 q 38 668 38 644 q 57 702 38 689 q 113 714 76 715 q 78 753 89 732 q 83 794 68 775 q 103 803 92 803 q 129 794 115 803 q 153 778 143 785 q 156 795 154 786 q 160 813 157 804 q 169 826 163 821 q 185 832 175 832 q 211 816 203 832 q 222 775 219 800 q 247 793 233 783 q 275 803 261 803 q 292 797 285 803 q 298 760 307 782 q 271 713 289 739 q 295 713 282 713 q 320 710 308 713 q 340 700 332 707 q 349 681 349 693 q 342 658 349 667 q 326 646 336 650 q 302 640 315 642 q 275 638 289 639 q 297 597 289 618 q 283 558 304 576 q 272 554 278 554 q 251 565 261 554 q 235 586 240 576 q 231 568 233 579 q 224 547 229 557 q 213 528 219 536 q 197 521 207 521 q 178 528 186 521 q 167 545 171 535 q 160 567 163 556 q 156 589 157 579 q 114 550 135 550 q 93 558 104 550 q 83 576 83 567 q 85 597 82 586 q 96 617 89 607 q 108 638 103 628 m 82 679 q 90 684 85 682 q 94 693 94 686 q 90 697 94 696 q 82 699 86 699 q 60 686 68 699 q 53 667 53 674 q 61 653 53 653 q 71 658 68 653 q 82 679 74 664 z "},"":{"ha":581,"x_min":68,"x_max":535,"o":"m 125 -275 q 96 -244 107 -275 q 78 -163 85 -212 q 70 -54 72 -114 q 68 63 68 6 q 69 167 68 119 q 69 238 69 214 l 69 432 q 69 487 69 449 q 71 566 69 525 q 74 642 72 607 q 81 688 76 676 q 97 715 88 704 q 140 725 107 725 q 168 713 156 725 q 189 683 181 701 q 201 646 197 665 q 206 610 206 626 q 203 547 206 589 q 201 451 201 504 q 203 344 200 399 q 217 243 207 289 q 247 168 228 197 q 299 139 267 139 q 359 171 338 139 q 391 253 381 203 q 403 367 401 304 q 406 492 406 431 q 408 606 406 561 q 417 678 410 651 q 438 716 425 706 q 472 726 451 726 q 515 716 496 726 q 535 682 535 706 l 535 131 q 531 67 535 97 q 519 15 528 38 q 497 -20 511 -7 q 461 -33 483 -33 q 426 -15 440 -33 q 413 24 413 4 q 413 34 413 26 q 413 50 413 42 q 411 65 413 58 q 407 71 410 71 q 394 60 400 71 q 376 35 388 49 q 347 11 365 22 q 296 0 328 0 q 260 6 274 0 q 239 18 247 11 q 225 31 231 25 q 213 36 219 36 q 205 24 206 36 q 204 8 204 13 l 204 -179 q 187 -244 204 -214 q 125 -275 169 -275 m 433 604 q 442 615 438 604 q 450 641 447 626 q 455 669 453 656 q 457 686 457 682 l 453 696 q 440 685 444 696 q 433 661 436 675 q 430 634 431 647 q 429 614 429 621 q 430 608 429 611 q 433 604 431 604 m 100 564 q 110 581 106 564 q 119 618 115 597 q 124 659 122 639 q 125 685 125 679 q 121 692 125 692 q 106 678 111 693 q 97 644 100 664 q 94 605 94 624 q 94 578 94 586 q 95 569 94 575 q 100 564 96 564 m 114 539 q 109 548 114 543 q 100 553 104 553 q 89 539 89 553 q 92 528 89 533 q 101 522 94 522 q 110 528 107 522 q 114 539 114 533 z "},"":{"ha":978,"x_min":24,"x_max":928,"o":"m 146 -8 q 130 -6 140 -8 q 110 3 119 -3 q 93 16 100 8 q 86 32 86 24 q 108 104 86 50 q 163 231 129 158 q 239 388 197 304 q 319 547 281 471 q 390 684 358 624 q 436 772 421 744 q 490 844 465 828 q 532 860 514 860 q 565 843 556 860 q 572 802 574 826 q 563 752 571 778 q 547 708 556 726 q 496 603 528 668 q 427 466 464 539 q 352 318 390 393 q 282 181 314 243 q 228 78 250 119 q 203 31 207 36 q 173 -1 188 7 q 146 -8 158 -8 m 154 546 q 98 559 122 546 q 57 594 74 572 q 32 646 40 617 q 24 708 24 675 q 33 761 24 735 q 58 809 42 788 q 99 844 75 831 q 151 858 122 858 q 243 826 210 858 q 276 718 276 793 q 267 649 276 681 q 240 595 257 618 q 201 559 224 572 q 154 546 179 546 m 154 639 q 171 647 164 639 q 182 666 178 654 q 188 692 186 678 q 190 718 190 706 q 181 758 190 742 q 154 775 171 775 q 128 755 139 775 q 117 711 117 735 q 126 663 117 688 q 154 639 136 639 m 60 711 q 60 744 60 733 q 56 754 60 754 q 44 737 47 754 q 42 714 42 719 q 42 702 42 710 q 44 687 42 694 q 49 673 46 679 q 60 667 53 667 q 63 678 65 667 q 60 711 60 689 m 94 629 q 82 644 94 644 q 74 633 74 644 q 77 625 74 631 q 85 619 81 619 q 94 629 94 619 m 528 -8 q 472 5 496 -8 q 431 40 447 18 q 406 92 414 63 q 397 154 397 121 q 406 207 397 181 q 432 255 415 233 q 472 290 449 276 q 525 304 496 304 q 617 272 583 304 q 650 164 650 239 q 640 95 650 126 q 614 41 631 64 q 575 5 597 18 q 528 -8 553 -8 m 806 -8 q 749 5 774 -8 q 708 40 725 18 q 683 92 692 63 q 675 154 675 121 q 684 207 675 181 q 710 255 693 233 q 750 290 726 276 q 803 304 774 304 q 894 272 861 304 q 928 164 928 239 q 918 95 928 126 q 892 41 908 64 q 853 5 875 18 q 806 -8 831 -8 m 528 85 q 544 92 538 85 q 556 112 551 100 q 562 138 560 124 q 564 164 564 151 q 554 204 564 188 q 528 221 544 221 q 501 201 513 221 q 490 157 490 181 q 500 109 490 133 q 528 85 510 85 m 806 85 q 822 92 815 85 q 833 112 829 100 q 840 138 838 124 q 842 164 842 151 q 832 204 842 188 q 806 221 822 221 q 779 201 790 221 q 768 157 768 181 q 778 109 768 133 q 806 85 788 85 m 433 157 q 433 190 433 179 q 429 200 433 200 q 418 183 421 200 q 415 160 415 165 q 415 148 415 156 q 417 133 415 140 q 423 119 419 125 q 433 113 426 113 q 436 124 439 113 q 433 157 433 135 m 711 157 q 711 190 711 179 q 707 200 711 200 q 696 183 699 200 q 693 160 693 165 q 693 148 693 156 q 695 133 693 140 q 701 119 697 125 q 711 113 704 113 q 714 124 717 113 q 711 157 711 135 m 143 114 q 128 114 136 121 q 117 96 121 107 q 108 69 113 85 q 104 47 104 54 q 110 32 106 32 q 125 56 115 32 q 139 92 132 72 q 143 114 146 111 m 468 75 q 456 90 468 90 q 447 79 447 90 q 451 71 447 76 q 458 65 454 65 q 468 75 468 65 m 746 75 q 733 90 746 90 q 725 79 725 90 q 728 71 725 76 q 736 65 732 65 q 746 75 746 65 z "},"":{"ha":513,"x_min":42,"x_max":458,"o":"m 265 -94 q 195 -83 231 -94 q 131 -49 160 -71 q 83 5 101 -26 q 65 75 65 36 q 70 104 65 89 q 83 132 75 119 q 104 152 92 144 q 133 160 117 160 q 172 141 158 160 q 185 99 185 122 q 204 44 185 63 q 258 25 224 25 q 311 42 290 25 q 332 90 332 58 q 312 141 332 119 q 261 181 292 163 q 195 215 231 199 q 129 253 160 232 q 78 303 99 275 q 58 369 58 331 q 81 453 58 422 q 125 506 103 485 q 102 527 117 517 q 74 551 88 538 q 51 585 61 565 q 42 639 42 606 q 58 719 42 678 q 103 793 74 760 q 176 847 133 826 q 271 868 218 868 q 339 858 307 868 q 396 829 371 849 q 435 782 421 810 q 450 718 450 754 q 446 681 450 703 q 432 640 442 660 q 408 605 422 619 q 374 590 393 590 q 343 603 354 590 q 332 635 332 615 q 330 669 332 651 q 322 702 328 688 q 305 726 315 717 q 276 735 294 735 q 213 708 242 735 q 183 639 183 681 q 203 613 183 628 q 251 580 222 599 q 315 537 281 561 q 379 483 350 513 q 428 419 408 454 q 447 343 447 385 q 442 288 447 310 q 431 254 438 267 q 419 235 425 242 q 414 222 414 228 q 421 204 414 214 q 436 178 428 194 q 451 141 444 163 q 458 89 458 119 q 444 13 458 47 q 403 -45 429 -21 q 342 -82 376 -69 q 265 -94 307 -94 m 154 769 q 178 794 178 789 q 173 800 178 797 q 157 793 168 803 q 135 772 147 785 q 114 747 124 760 q 98 720 104 733 q 92 696 92 707 q 96 686 92 686 q 104 693 100 686 q 115 713 108 700 q 134 746 125 731 q 154 769 143 761 m 99 646 q 88 660 99 660 q 74 646 74 660 q 86 639 74 639 q 99 646 99 639 m 335 319 q 320 355 335 333 q 285 396 306 376 q 245 428 265 415 q 214 436 225 440 q 199 419 203 432 q 194 389 194 406 q 211 365 194 381 q 250 333 228 349 q 294 305 272 317 q 326 293 317 293 q 332 301 329 293 q 335 319 335 308 z "},"":{"ha":508,"x_min":51,"x_max":436,"o":"m 381 178 q 337 199 358 178 q 297 244 315 219 q 264 290 278 269 q 242 311 250 311 q 222 291 236 311 q 190 247 208 271 q 149 202 171 222 q 103 182 126 182 q 66 195 81 182 q 51 232 51 208 q 69 276 51 251 q 108 325 88 300 q 147 371 129 350 q 165 401 165 392 q 147 426 165 407 q 108 468 129 444 q 69 515 88 492 q 51 556 51 539 q 55 572 51 563 q 65 592 58 582 q 81 610 72 603 q 103 617 90 617 q 141 598 119 617 q 183 556 163 579 q 219 514 203 533 q 242 494 236 494 q 264 514 250 494 q 296 558 278 533 q 335 601 314 582 q 379 621 356 621 q 409 606 394 621 q 424 575 424 590 q 408 531 424 557 q 373 478 392 504 q 338 431 354 453 q 321 399 321 410 q 338 367 321 389 q 378 322 356 346 q 418 276 400 299 q 436 240 436 253 q 431 220 436 231 q 417 200 425 210 q 399 184 408 190 q 381 178 389 178 m 103 585 q 96 594 103 592 q 80 584 89 596 q 71 557 71 572 q 74 549 71 553 q 81 544 76 544 q 95 561 88 544 q 103 585 103 578 m 104 199 q 103 217 110 203 q 90 239 97 232 q 81 245 88 242 q 69 246 74 249 q 69 228 64 240 q 82 207 75 215 q 104 199 96 193 z "},"=":{"ha":535,"x_min":82,"x_max":464,"o":"m 131 465 q 101 484 113 472 q 85 510 89 496 q 87 539 82 525 q 106 563 92 553 q 123 569 113 567 q 152 574 133 572 q 199 577 171 576 q 268 578 226 578 q 364 576 329 578 q 416 567 399 574 q 438 547 433 560 q 442 514 442 535 q 434 487 442 497 q 407 470 426 476 q 354 461 388 464 q 268 458 321 458 q 177 460 217 458 q 131 465 138 463 m 142 550 q 138 555 142 553 q 129 553 135 557 q 119 536 122 549 q 115 514 115 524 q 118 504 115 504 q 129 522 125 504 q 138 542 135 536 q 142 550 139 546 m 135 303 q 95 327 108 307 q 92 367 82 347 q 109 386 99 379 q 141 397 119 393 q 197 401 163 400 q 285 401 232 401 q 374 399 339 401 q 429 392 410 397 q 456 378 449 388 q 464 354 464 369 q 456 324 464 336 q 426 304 447 311 q 368 294 404 297 q 276 290 332 290 q 185 295 225 290 q 135 303 146 300 m 139 371 q 135 375 139 375 q 129 374 131 375 q 122 366 126 372 q 118 350 118 360 q 120 336 118 338 q 129 342 122 335 q 137 356 135 347 q 139 371 139 364 z "},"":{"ha":524,"x_min":31,"x_max":479,"o":"m 249 -104 q 217 -96 228 -104 q 197 -74 206 -87 q 194 -47 196 -71 q 192 11 193 -24 q 191 85 192 46 q 190 161 190 125 q 189 224 189 197 q 189 257 189 250 l 193 592 q 152 590 179 592 q 98 590 125 588 q 51 604 71 593 q 31 642 31 615 q 48 688 31 674 q 90 706 65 701 q 142 708 115 710 q 190 706 169 706 q 192 758 192 721 q 199 832 193 794 q 217 898 204 869 q 256 926 229 926 q 293 913 279 926 q 314 880 307 900 q 323 836 321 860 q 325 790 325 813 l 325 703 q 369 703 343 701 q 420 701 396 706 q 462 684 444 697 q 479 640 479 671 q 460 602 479 613 q 414 590 440 592 q 361 590 388 588 q 319 592 335 593 q 319 526 319 579 q 320 400 319 472 q 320 247 321 328 q 319 95 319 165 q 315 -24 318 25 q 308 -78 313 -72 q 249 -104 290 -104 m 221 825 q 230 838 226 825 q 233 856 233 851 q 243 880 233 868 q 258 903 253 892 q 256 904 260 904 q 251 904 254 904 q 235 896 242 904 q 225 876 229 888 q 219 853 221 865 q 218 832 218 840 q 221 825 218 825 m 228 803 q 227 810 228 806 q 222 815 226 815 q 214 811 215 815 q 213 801 213 807 q 219 792 213 792 q 226 796 224 792 q 228 803 228 800 z "},"":{"ha":514,"x_min":31,"x_max":497,"o":"m 193 592 q 152 590 179 592 q 98 590 125 588 q 51 604 71 593 q 31 642 31 615 q 40 676 31 663 q 63 696 49 689 q 94 705 76 703 q 128 707 111 707 q 159 707 143 707 q 190 706 175 707 q 192 758 192 721 q 199 832 193 794 q 218 898 204 869 q 258 926 232 926 q 295 913 281 926 q 318 880 310 900 q 329 836 326 860 q 332 790 332 813 l 332 703 q 363 703 347 703 q 396 704 379 704 q 430 702 413 704 q 463 694 447 700 q 488 674 478 688 q 497 640 497 661 q 476 602 497 613 q 426 590 454 592 q 370 590 399 588 q 326 592 342 593 q 326 542 326 581 q 326 448 326 503 q 326 327 326 393 q 325 197 326 261 l 343 197 l 378 199 l 396 199 q 430 197 413 199 q 463 188 447 194 q 488 169 478 182 q 497 135 497 157 q 476 97 497 107 q 426 84 454 86 q 370 85 399 82 q 326 86 342 88 l 324 86 q 322 -19 321 19 q 313 -76 324 -57 q 287 -100 301 -96 q 257 -104 272 -104 q 219 -97 238 -104 q 197 -74 201 -89 q 197 -56 197 -71 q 194 -20 196 -42 q 192 29 193 1 q 192 86 192 57 q 151 84 178 86 q 97 85 124 82 q 50 100 69 89 q 31 136 31 111 q 40 171 31 158 q 63 190 49 183 q 94 199 76 197 q 128 201 111 201 l 189 201 l 189 257 l 193 592 m 221 825 q 230 838 226 825 q 233 856 233 851 q 243 880 233 868 q 258 903 253 892 q 256 904 260 904 q 251 904 254 904 q 235 896 242 904 q 225 876 229 888 q 219 853 221 865 q 218 832 218 840 q 221 825 218 825 m 228 803 q 227 810 228 806 q 222 815 226 815 q 214 811 215 815 q 213 801 213 807 q 219 792 213 792 q 226 796 224 792 q 228 803 228 800 z "},"":{"ha":528,"x_min":64,"x_max":479,"o":"m 265 506 q 218 528 238 506 q 199 582 199 550 q 217 646 199 621 q 272 671 236 671 q 320 652 300 671 q 340 600 340 633 q 322 536 340 567 q 265 506 304 506 m 229 574 q 238 585 235 576 q 243 605 240 594 q 249 626 246 615 q 256 643 251 638 q 260 653 260 647 q 242 644 250 653 q 228 625 233 636 q 220 601 222 614 q 219 579 218 589 q 229 574 219 571 m 374 335 q 251 336 311 335 q 131 339 192 338 q 87 356 110 340 q 64 404 64 371 q 81 438 64 426 q 119 453 97 449 q 165 458 142 458 q 199 458 188 458 q 251 459 222 458 q 310 460 281 460 q 369 458 340 460 q 419 453 397 457 q 463 430 447 449 q 479 392 479 411 q 467 361 479 372 q 437 344 454 350 q 401 336 419 338 q 374 335 383 335 m 265 138 q 219 158 232 138 q 206 214 206 178 q 221 267 206 240 q 267 294 236 294 q 317 274 297 294 q 338 221 338 253 q 333 192 338 207 q 318 165 328 178 q 295 145 308 153 q 265 138 282 138 m 232 197 q 239 208 236 197 q 242 222 242 219 q 258 264 244 247 l 258 268 l 258 269 q 257 271 258 271 q 245 265 251 271 q 234 253 239 260 q 226 238 229 246 q 224 225 224 229 q 224 208 224 218 q 232 197 225 197 z "},"<":{"ha":354,"x_min":29,"x_max":332,"o":"m 278 233 q 244 252 267 239 q 193 283 221 265 q 136 323 165 301 q 83 364 107 344 q 44 401 60 383 q 29 429 29 418 q 46 463 29 442 q 88 507 63 483 q 144 554 114 531 q 204 597 175 578 q 257 628 233 617 q 290 640 281 640 q 313 619 303 640 q 324 586 324 599 q 301 553 324 576 q 249 504 278 529 q 194 458 219 479 q 164 432 168 438 q 204 405 176 422 q 260 367 232 388 q 310 328 289 347 q 332 296 332 308 q 326 276 332 288 q 313 253 321 264 q 294 237 304 243 q 278 233 285 231 m 110 481 q 109 488 111 483 q 101 492 107 492 q 90 485 97 492 q 74 469 82 478 q 62 451 67 460 q 58 439 57 443 q 76 439 65 431 q 95 458 85 446 q 110 481 106 469 z "},">":{"ha":375,"x_min":24,"x_max":315,"o":"m 74 238 q 40 258 57 238 q 24 296 24 279 q 44 335 24 315 q 94 373 65 354 q 149 408 122 392 q 189 438 176 425 q 151 468 178 449 q 97 510 125 488 q 49 554 69 532 q 28 593 28 576 q 43 624 28 611 q 74 636 58 636 q 108 624 86 636 q 158 594 131 613 q 213 553 185 576 q 263 508 240 531 q 301 467 286 486 q 315 438 315 449 q 299 405 315 425 q 260 363 283 385 q 207 318 236 340 q 151 278 178 296 q 103 249 124 260 q 74 238 82 238 m 79 618 q 64 614 71 621 q 56 597 57 607 q 56 583 54 590 q 65 575 58 575 q 70 582 68 575 q 74 592 72 589 q 81 607 76 599 q 79 618 86 615 m 78 293 q 76 313 78 300 q 68 325 74 325 q 59 313 64 325 q 54 290 54 301 q 60 274 54 279 q 69 268 65 268 q 77 278 76 268 q 78 293 78 288 z "},"^":{"ha":329,"x_min":24,"x_max":297,"o":"m 25 646 q 47 708 28 667 q 90 790 65 749 q 137 863 114 832 q 172 894 160 894 q 193 878 181 894 q 219 835 206 861 q 247 779 233 810 q 272 719 261 749 q 290 667 283 690 q 297 633 297 643 q 286 610 297 621 q 263 599 275 599 q 240 620 253 599 q 214 667 226 642 q 190 715 201 693 q 172 736 179 736 q 156 715 167 736 q 130 667 144 693 q 99 620 115 642 q 71 599 83 599 q 39 615 54 599 q 25 646 24 631 m 131 810 q 148 828 139 810 q 164 856 157 847 q 168 867 167 860 q 164 874 169 874 q 153 867 160 874 q 140 850 146 860 q 128 831 133 840 q 124 818 124 822 q 131 810 124 810 z "},"":{"ha":443,"x_min":29,"x_max":376,"o":"m 264 883 q 224 895 242 883 q 191 921 206 907 q 165 947 176 935 q 142 958 153 958 q 119 945 131 958 q 103 924 107 932 q 89 903 96 908 q 65 897 82 897 q 40 910 51 897 q 29 935 29 922 q 39 975 29 954 q 64 1013 49 996 q 99 1040 79 1029 q 136 1051 118 1051 q 175 1040 157 1051 q 209 1014 193 1028 q 240 988 225 1000 q 269 976 256 976 q 292 989 285 976 q 305 1016 299 1001 q 319 1042 311 1031 q 343 1054 328 1054 q 367 1040 358 1054 q 376 1014 376 1025 q 367 968 376 992 q 343 926 358 944 q 308 895 328 907 q 264 883 288 883 z "},"":{"ha":372,"x_min":49,"x_max":328,"o":"m 207 894 q 169 894 185 894 q 143 895 154 894 q 123 896 132 896 q 103 896 114 896 q 61 909 74 896 q 49 936 49 922 q 63 974 49 958 q 97 990 76 990 q 133 990 118 990 q 161 989 149 989 q 186 988 174 989 q 213 988 199 988 q 254 987 242 988 q 289 986 267 986 q 319 972 311 986 q 328 939 328 958 q 317 915 328 924 q 290 901 307 906 q 252 896 274 897 q 207 894 231 894 z "},"":{"ha":543,"x_min":64,"x_max":479,"o":"m 407 343 q 272 342 339 343 q 138 344 204 342 q 88 358 113 346 q 64 407 64 371 q 88 453 64 440 q 150 467 113 467 q 217 467 178 467 q 299 468 257 468 q 378 467 340 468 q 442 460 417 465 q 468 439 457 457 q 479 397 479 421 q 454 356 479 368 q 407 343 429 343 m 97 372 q 107 384 110 372 q 108 411 104 396 q 118 436 113 425 q 115 447 124 447 q 101 441 107 447 q 92 427 96 435 q 85 411 88 419 q 83 399 83 403 q 97 372 83 372 z "},"":{"ha":576,"x_min":74,"x_max":508,"o":"m 296 250 q 257 270 271 250 q 236 319 243 290 q 227 379 229 347 q 224 433 225 411 q 185 430 201 432 q 146 428 168 428 q 97 441 119 428 q 74 490 74 454 q 90 528 74 515 q 131 547 107 542 q 179 554 154 553 q 222 557 204 556 q 224 608 222 575 q 231 673 225 640 q 251 729 238 706 q 290 753 264 753 q 337 729 322 753 q 357 674 351 706 q 363 609 363 642 q 364 557 363 576 q 417 560 392 560 q 463 553 443 560 q 496 535 483 547 q 508 501 508 522 q 492 463 508 478 q 452 441 475 449 q 405 431 429 433 q 364 429 381 429 q 363 376 364 407 q 354 318 361 346 q 334 270 347 290 q 296 250 321 250 m 264 639 q 276 648 271 639 q 283 668 281 657 q 289 690 286 679 q 296 706 292 701 q 300 715 300 710 q 298 721 300 717 q 290 725 296 725 q 276 717 282 725 q 265 697 269 708 q 259 673 261 685 q 257 654 257 661 q 258 645 257 651 q 264 639 260 639 m 275 610 q 273 615 275 613 q 267 618 271 618 q 256 612 260 618 q 253 599 253 606 q 257 590 253 592 q 264 589 261 589 q 272 597 268 589 q 275 610 275 604 m 435 107 q 299 106 367 107 q 165 108 232 106 q 116 122 140 110 q 92 171 92 135 q 116 217 92 204 q 178 231 140 231 q 245 231 206 231 q 326 232 285 232 q 406 231 368 232 q 469 224 444 229 q 496 203 485 221 q 507 161 507 185 q 482 119 507 132 q 435 107 457 107 m 125 136 q 135 148 138 136 q 136 175 132 160 q 146 200 140 189 q 143 211 151 211 q 129 205 135 211 q 119 191 124 199 q 113 175 115 183 q 111 163 111 167 q 125 136 111 136 z "},"":{"ha":247,"x_min":65,"x_max":201,"o":"m 199 561 q 177 526 199 538 q 131 514 156 514 q 87 526 107 514 q 67 561 67 538 l 67 925 q 85 966 67 947 q 131 985 103 985 q 179 972 160 985 q 199 933 199 958 l 199 561 m 104 901 q 110 929 106 918 q 117 948 114 940 q 121 959 121 956 q 114 963 121 963 q 98 951 104 963 q 88 924 92 939 q 84 895 85 910 q 83 874 83 881 q 85 858 83 872 q 94 844 86 844 q 101 851 99 844 q 103 866 103 857 q 104 885 104 875 q 104 901 104 894 m 69 307 q 92 343 71 331 q 138 356 113 356 q 181 344 161 356 q 201 307 201 332 l 199 -46 q 181 -103 199 -76 q 126 -131 164 -131 q 77 -104 89 -131 q 65 -53 65 -78 l 69 307 m 124 -97 q 111 -85 124 -90 q 104 -73 104 -82 q 104 -57 104 -64 q 92 -42 104 -42 q 82 -64 82 -42 q 91 -93 82 -79 q 115 -107 100 -107 q 121 -103 118 -107 q 124 -97 124 -100 z "},"":{"ha":575,"x_min":71,"x_max":511,"o":"m 160 479 q 132 479 147 479 q 103 484 117 479 q 81 501 90 489 q 71 535 71 513 q 89 577 71 564 q 160 592 107 590 l 417 594 q 448 594 432 594 q 478 588 464 593 q 502 571 493 582 q 511 540 511 560 l 511 408 q 496 361 511 378 q 453 344 481 344 q 401 426 401 344 l 401 482 l 160 479 m 119 543 q 126 550 122 547 q 126 558 129 553 q 119 564 124 564 q 96 545 106 564 q 86 518 86 526 q 90 513 86 513 q 119 543 103 513 m 456 382 q 446 392 456 388 q 440 402 440 394 q 440 417 440 410 q 431 431 440 431 q 422 411 422 431 q 430 385 422 397 q 449 372 438 372 q 456 382 456 372 z "},"~":{"ha":618,"x_min":61,"x_max":536,"o":"m 393 299 q 334 314 363 299 q 282 347 306 329 q 238 379 258 364 q 203 394 218 394 q 172 382 188 394 q 150 358 156 369 q 131 330 139 338 q 99 322 122 322 q 70 340 79 322 q 61 374 61 357 q 74 422 61 396 q 107 469 88 447 q 150 507 126 492 q 196 522 174 522 q 253 508 225 522 q 308 476 282 493 q 359 444 335 458 q 403 429 383 429 q 433 443 422 429 q 451 473 443 457 q 471 503 460 489 q 503 517 482 517 q 530 497 524 517 q 536 463 536 478 q 525 402 536 432 q 495 349 514 372 q 450 313 476 326 q 393 299 424 299 m 111 410 q 117 418 113 414 q 114 429 121 422 q 108 432 111 432 q 103 432 104 432 q 88 422 93 431 q 80 402 82 413 q 78 382 78 392 q 79 368 78 372 q 88 363 81 360 q 100 376 94 365 q 111 410 106 386 z "},"":{"ha":401,"x_min":-62,"x_max":399,"o":"m -62 -112 q -55 -80 -62 -93 q -36 -58 -47 -67 q -12 -47 -25 -50 q 10 -40 1 -43 q 58 -8 38 -33 q 81 71 78 17 l 108 517 l 86 517 q 63 535 71 517 q 54 572 54 553 q 63 606 54 592 q 86 621 71 621 l 115 621 l 119 664 q 178 828 131 776 q 318 879 225 879 q 378 863 358 879 q 399 819 399 846 q 392 788 399 800 q 376 770 386 776 q 357 763 367 764 q 339 764 347 763 q 300 766 315 768 q 274 752 285 764 q 258 718 264 740 q 247 658 251 696 l 243 621 l 331 621 q 361 607 351 621 q 371 571 371 593 q 362 535 371 550 q 332 519 353 519 q 303 518 321 519 q 271 517 286 517 l 238 517 l 210 61 q 154 -97 203 -42 q 31 -164 106 -153 q -37 -158 -12 -171 q -62 -112 -61 -144 m 168 731 q 179 768 168 746 q 201 801 190 790 q 214 819 213 813 q 210 825 215 825 q 188 813 199 825 q 168 783 176 800 q 154 750 160 767 q 149 724 149 733 q 157 710 149 710 q 168 731 168 710 m -32 -117 q -27 -111 -29 -117 q -23 -99 -25 -106 q -16 -85 -21 -92 q -1 -76 -11 -79 q 14 -72 6 -74 q 22 -60 22 -71 q 14 -56 22 -56 q -3 -60 7 -56 q -22 -73 -12 -65 q -38 -90 -32 -81 q -44 -107 -44 -99 q -40 -114 -44 -111 q -32 -117 -35 -117 z "},"":{"ha":554,"x_min":44,"x_max":532,"o":"m 104 -8 q 88 -6 99 -8 q 68 3 78 -3 q 51 16 58 8 q 44 32 44 24 q 66 104 44 50 q 122 231 88 158 q 197 388 156 304 q 278 547 239 471 q 348 684 317 624 q 394 772 379 744 q 448 844 424 828 q 490 860 472 860 q 523 843 514 860 q 531 802 532 826 q 522 752 529 778 q 506 708 514 726 q 454 603 486 668 q 385 466 422 539 q 310 318 349 393 q 240 181 272 243 q 187 78 208 119 q 161 31 165 36 q 131 -1 146 7 q 104 -8 117 -8 m 101 114 q 87 114 94 121 q 75 96 79 107 q 67 69 71 85 q 63 47 63 54 q 69 32 64 32 q 83 56 74 32 q 97 92 90 72 q 101 114 104 111 z "},"":{"ha":817,"x_min":31,"x_max":754,"o":"m 167 357 q 141 366 156 357 q 126 394 126 375 l 126 715 q 126 728 126 722 q 125 735 126 735 q 117 728 122 735 q 106 714 113 722 q 93 698 100 706 q 79 688 86 690 q 46 693 61 678 q 36 726 31 708 q 44 742 38 731 q 58 761 51 753 q 81 790 65 772 q 113 826 96 808 q 145 857 129 844 q 171 869 161 869 q 184 869 175 869 q 202 865 193 868 q 218 858 211 863 q 225 844 225 853 l 225 396 q 204 369 225 381 q 167 357 183 357 m 203 -8 q 187 -6 197 -8 q 167 3 176 -3 q 150 16 157 8 q 143 32 143 24 q 165 104 143 50 q 220 231 186 158 q 296 388 254 304 q 376 547 338 471 q 447 684 415 624 q 493 772 478 744 q 547 844 522 828 q 589 860 571 860 q 622 843 613 860 q 629 802 631 826 q 620 752 628 778 q 604 708 613 726 q 553 603 585 668 q 484 466 521 539 q 409 318 447 393 q 339 181 371 243 q 285 78 307 119 q 260 31 264 36 q 230 -1 244 7 q 203 -8 215 -8 m 163 838 q 173 851 169 847 q 174 857 176 854 q 161 853 171 857 q 143 842 151 850 q 131 828 136 835 q 125 815 125 821 q 129 811 125 811 q 149 819 140 808 q 163 838 157 831 m 694 0 q 665 16 675 0 q 654 51 654 32 l 654 115 q 643 125 654 125 l 493 125 q 465 135 472 125 q 457 161 457 146 q 465 190 457 165 q 486 251 474 215 q 513 326 499 286 q 541 402 528 367 q 564 463 554 438 q 575 493 574 489 q 590 508 582 506 q 607 511 599 511 q 632 506 615 511 q 649 489 649 500 q 640 446 649 482 q 618 365 631 410 q 592 276 606 319 q 571 210 579 232 q 568 204 569 207 q 567 199 567 201 q 574 194 567 194 l 643 194 q 654 203 654 194 l 654 447 q 667 501 654 489 q 703 514 679 514 q 735 501 715 514 q 754 457 754 488 l 754 57 q 733 11 754 22 q 694 0 713 0 m 675 464 q 683 476 679 464 q 688 493 688 489 q 683 497 688 497 q 674 488 678 497 q 671 472 671 479 q 675 464 671 464 m 158 397 q 158 407 158 400 q 156 422 157 414 q 153 435 154 429 q 149 440 151 440 q 142 431 144 440 q 140 409 140 421 q 142 388 140 397 q 149 378 144 378 q 158 397 158 378 m 493 196 q 499 213 496 207 q 501 225 501 218 q 497 232 501 232 q 492 226 496 232 q 485 212 488 219 q 479 196 482 204 q 476 183 476 188 q 481 174 476 174 q 493 196 485 174 m 493 156 q 486 164 493 164 q 479 156 479 164 q 481 153 479 154 q 486 150 483 150 q 490 151 488 150 q 493 156 493 153 m 200 114 q 185 114 193 121 q 174 96 178 107 q 165 69 169 85 q 161 47 161 54 q 167 32 163 32 q 182 56 172 32 q 196 92 189 72 q 200 114 203 111 m 689 35 q 683 48 686 42 q 681 58 681 54 q 679 64 681 61 q 672 69 679 69 q 667 54 667 69 q 670 32 667 46 q 681 18 674 18 q 689 23 686 18 q 689 35 692 28 z "},"":{"ha":792,"x_min":31,"x_max":764,"o":"m 167 357 q 141 366 156 357 q 126 394 126 375 l 126 715 q 126 728 126 722 q 125 735 126 735 q 117 728 122 735 q 106 714 113 722 q 93 698 100 706 q 79 688 86 690 q 46 693 61 678 q 36 726 31 708 q 44 742 38 731 q 58 761 51 753 q 81 790 65 772 q 113 826 96 808 q 145 857 129 844 q 171 869 161 869 q 184 869 175 869 q 202 865 193 868 q 218 858 211 863 q 225 844 225 853 l 225 396 q 204 369 225 381 q 167 357 183 357 m 203 -8 q 187 -6 197 -8 q 167 3 176 -3 q 150 16 157 8 q 143 32 143 24 q 165 104 143 50 q 220 231 186 158 q 296 388 254 304 q 376 547 338 471 q 447 684 415 624 q 493 772 478 744 q 547 844 522 828 q 589 860 571 860 q 622 843 613 860 q 629 802 631 826 q 620 752 628 778 q 604 708 613 726 q 553 603 585 668 q 484 466 521 539 q 409 318 447 393 q 339 181 371 243 q 285 78 307 119 q 260 31 264 36 q 230 -1 244 7 q 203 -8 215 -8 m 163 838 q 173 851 169 847 q 174 857 176 854 q 161 853 171 857 q 143 842 151 850 q 131 828 136 835 q 125 815 125 821 q 129 811 125 811 q 149 819 140 808 q 163 838 157 831 m 517 0 q 503 10 510 0 q 499 32 496 21 q 509 59 501 42 q 538 104 517 76 q 626 248 596 181 q 657 379 657 315 q 648 427 657 414 q 621 440 639 440 q 592 428 603 440 q 581 388 581 415 q 585 360 581 369 q 590 338 590 350 q 577 320 590 326 q 554 314 564 314 q 517 336 532 314 q 503 392 503 358 q 536 481 503 444 q 622 518 569 518 q 722 479 686 518 q 757 376 757 440 q 735 264 757 317 q 689 171 714 211 q 642 106 664 131 q 621 76 621 81 l 647 76 l 724 79 q 753 71 743 81 q 764 44 764 61 q 710 0 764 0 l 517 0 m 542 419 q 540 447 546 447 q 531 440 535 447 q 524 425 526 433 q 519 409 521 417 q 518 399 518 401 q 522 383 518 388 q 532 385 529 378 q 542 419 535 392 m 158 397 q 158 407 158 400 q 156 422 157 414 q 153 435 154 429 q 149 440 151 440 q 142 431 144 440 q 140 409 140 421 q 142 388 140 397 q 149 378 144 378 q 158 397 158 378 m 540 354 q 531 363 540 363 q 522 354 522 363 q 524 349 522 351 q 529 346 526 346 q 537 349 533 346 q 540 354 540 351 m 200 114 q 185 114 193 121 q 174 96 178 107 q 165 69 169 85 q 161 47 161 54 q 167 32 163 32 q 182 56 172 32 q 196 92 189 72 q 200 114 203 111 m 535 42 q 536 67 539 67 q 522 51 529 64 q 517 25 514 38 q 525 15 518 15 q 535 42 531 17 z "},"":{"ha":794,"x_min":36,"x_max":765,"o":"m 154 344 q 67 369 99 344 q 36 428 36 394 q 41 449 36 440 q 56 457 46 457 q 76 452 67 457 q 97 442 86 447 q 122 433 108 438 q 154 428 136 428 q 201 447 188 428 q 214 507 214 465 q 191 578 214 557 q 119 600 168 600 q 70 607 85 600 q 56 631 56 614 q 65 665 56 646 q 101 717 74 685 q 136 761 124 742 q 149 783 149 781 q 132 789 149 789 l 81 790 q 56 801 65 790 q 47 831 47 811 q 58 858 47 854 q 81 863 68 863 l 257 863 q 276 851 272 863 q 279 833 279 840 q 267 805 279 825 q 238 763 254 785 q 207 722 222 740 q 185 696 192 703 q 162 665 164 672 q 178 656 160 658 q 229 642 206 651 q 272 615 253 632 q 301 571 290 597 q 311 507 311 544 q 267 388 311 431 q 154 344 222 344 m 214 -8 q 198 -6 208 -8 q 178 3 188 -3 q 161 16 168 8 q 154 32 154 24 q 176 104 154 50 q 231 231 197 158 q 307 388 265 304 q 388 547 349 471 q 458 684 426 624 q 504 772 489 744 q 558 844 533 828 q 600 860 582 860 q 633 846 624 860 q 642 811 642 832 q 634 767 642 790 q 618 726 626 744 q 565 618 597 685 q 494 476 532 551 q 419 324 457 401 q 350 184 382 247 q 297 78 318 121 q 271 31 275 36 q 241 -1 256 7 q 214 -8 226 -8 m 74 840 q 74 856 78 856 q 63 847 65 856 q 60 831 60 838 q 68 815 60 815 q 71 824 71 815 q 74 840 71 833 m 85 642 q 92 654 88 647 q 100 668 96 661 q 105 680 103 675 q 104 685 107 685 q 94 679 100 685 q 83 665 89 674 q 74 648 78 657 q 69 633 69 639 q 75 625 69 625 q 85 642 81 625 m 706 0 q 676 16 686 0 q 665 51 665 32 l 665 115 q 654 125 665 125 l 504 125 q 476 135 483 125 q 468 161 468 146 q 476 190 468 165 q 497 251 485 215 q 524 326 510 286 q 552 402 539 367 q 575 463 565 438 q 586 493 585 489 q 601 508 593 506 q 618 511 610 511 q 643 506 626 511 q 660 489 660 500 q 651 446 660 482 q 629 365 642 410 q 603 276 617 319 q 582 210 590 232 q 579 204 581 207 q 578 199 578 201 q 585 194 578 194 l 654 194 q 665 203 665 194 l 665 447 q 678 501 665 489 q 714 514 690 514 q 746 501 726 514 q 765 457 765 488 l 765 57 q 744 11 765 22 q 706 0 724 0 m 686 464 q 694 476 690 464 q 699 493 699 489 q 694 497 699 497 q 685 488 689 497 q 682 472 682 479 q 686 464 682 464 m 65 425 q 54 439 65 454 q 49 428 51 435 q 49 415 47 422 q 58 407 49 407 q 65 425 65 407 m 504 196 q 510 213 507 207 q 513 225 513 218 q 508 232 513 232 q 503 226 507 232 q 496 212 499 219 q 490 196 493 204 q 488 183 488 188 q 492 174 488 174 q 504 196 496 174 m 504 156 q 497 164 504 164 q 490 156 490 164 q 492 153 490 154 q 497 150 494 150 q 501 151 499 150 q 504 156 504 153 m 211 114 q 197 114 204 121 q 185 96 189 107 q 176 69 181 85 q 172 47 172 54 q 178 32 174 32 q 193 56 183 32 q 207 92 200 72 q 211 114 214 111 m 700 35 q 694 48 697 42 q 692 58 692 54 q 690 64 692 61 q 683 69 690 69 q 678 54 678 69 q 681 32 678 46 q 692 18 685 18 q 700 23 697 18 q 700 35 703 28 z "},"":{"ha":254,"x_min":60,"x_max":189,"o":"m 125 894 q 81 910 101 894 q 60 957 60 926 q 81 1004 60 988 q 125 1021 101 1021 q 169 1004 149 1021 q 189 957 189 988 q 169 910 189 926 q 125 894 149 894 z "},"":{"ha":265,"x_min":43,"x_max":226,"o":"m 133 867 q 70 888 97 867 q 43 951 43 910 q 69 1026 43 999 q 131 1054 96 1054 q 197 1027 168 1054 q 226 960 226 1000 q 199 895 226 924 q 133 867 171 867 m 131 929 q 151 941 143 929 q 160 964 160 953 q 152 978 160 969 q 133 988 144 988 q 106 954 106 988 q 114 936 106 943 q 131 929 122 929 z "},"":{"ha":379,"x_min":50,"x_max":347,"o":"m 65 889 q 52 928 50 900 q 76 986 54 956 q 128 1050 108 1031 q 160 1069 149 1069 q 186 1052 171 1069 q 200 1019 201 1035 q 185 982 197 1006 q 158 935 174 958 q 124 896 142 913 q 90 879 106 879 q 78 882 83 879 q 65 889 72 885 m 233 878 q 197 885 208 878 q 183 913 186 893 q 194 955 181 929 q 227 1006 207 981 q 267 1049 247 1031 q 300 1067 288 1067 q 326 1054 310 1067 q 344 1031 343 1042 q 333 991 347 1017 q 301 940 319 965 q 263 897 282 915 q 233 878 243 878 z "},"":{"ha":283,"x_min":33,"x_max":269,"o":"m 176 -229 q 115 -219 142 -229 q 71 -190 89 -208 q 43 -151 53 -172 q 33 -106 33 -129 q 45 -45 33 -74 q 75 4 57 -17 q 116 38 93 25 q 161 50 139 50 q 189 38 181 50 q 197 14 197 25 q 188 -8 197 1 q 168 -27 179 -17 q 148 -52 157 -37 q 139 -92 139 -67 q 149 -125 139 -111 q 176 -139 160 -139 q 210 -134 192 -139 q 243 -129 228 -129 q 262 -135 254 -129 q 269 -158 269 -142 q 260 -187 269 -174 q 238 -210 251 -200 q 207 -224 224 -219 q 176 -229 190 -229 z "},"":{"ha":367,"x_min":53,"x_max":303,"o":"m 53 1046 q 69 1073 53 1060 q 99 1086 85 1086 q 125 1078 114 1086 q 145 1057 136 1069 q 163 1030 154 1044 q 182 1004 172 1015 q 197 1029 190 1015 q 213 1055 204 1043 q 231 1075 221 1067 q 254 1083 240 1083 q 287 1073 271 1083 q 303 1044 303 1063 q 290 1004 303 1031 q 257 951 276 978 q 217 906 238 925 q 181 886 196 886 q 143 906 165 886 q 101 951 121 925 q 67 1003 81 976 q 53 1046 53 1031 z "},"`":{"ha":296,"x_min":63,"x_max":210,"o":"m 190 886 q 169 875 179 875 q 140 893 157 875 q 106 935 122 911 q 78 983 90 958 q 64 1019 67 1007 q 74 1053 63 1035 q 104 1072 86 1072 q 135 1053 115 1072 q 188 989 156 1033 q 208 931 210 958 q 190 886 207 903 z "},"":{"ha":351,"x_min":53,"x_max":303,"o":"m 53 926 q 67 969 53 942 q 101 1022 81 996 q 143 1067 121 1047 q 181 1086 165 1086 q 217 1067 196 1086 q 257 1021 238 1047 q 290 968 276 994 q 303 928 303 942 q 287 899 303 910 q 254 889 271 889 q 231 897 240 889 q 213 917 221 906 q 197 943 204 929 q 182 968 190 957 q 163 942 172 957 q 145 915 154 928 q 125 894 136 903 q 99 886 114 886 q 69 899 85 886 q 53 926 53 913 z "},"":{"ha":399,"x_min":60,"x_max":342,"o":"m 125 894 q 81 910 101 894 q 60 957 60 926 q 81 1004 60 988 q 125 1021 101 1021 q 169 1004 149 1021 q 189 957 189 988 q 169 910 189 926 q 125 894 149 894 m 278 894 q 233 910 254 894 q 213 957 213 926 q 233 1004 213 988 q 278 1021 254 1021 q 322 1004 301 1021 q 342 957 342 988 q 322 910 342 926 q 278 894 301 894 z "},"":{"ha":269,"x_min":50,"x_max":201,"o":"m 65 889 q 52 928 50 900 q 76 986 54 956 q 128 1050 108 1031 q 160 1069 149 1069 q 186 1052 171 1069 q 200 1019 201 1035 q 185 982 197 1006 q 158 935 174 958 q 124 896 142 913 q 90 879 106 879 q 78 882 83 879 q 65 889 72 885 z "},"":{"ha":311,"x_min":36,"x_max":276,"o":"m 135 -235 q 103 -231 121 -235 q 72 -217 86 -226 q 47 -192 57 -207 q 36 -153 36 -176 q 42 -130 36 -136 q 58 -124 47 -124 q 99 -134 75 -124 q 140 -144 122 -144 q 165 -140 151 -144 q 179 -118 179 -135 q 166 -103 179 -108 q 136 -90 153 -97 q 106 -71 119 -83 q 93 -35 93 -58 q 102 -5 93 -21 q 124 25 111 11 q 150 48 136 39 q 174 57 164 57 q 190 56 181 57 q 206 51 199 54 q 219 42 214 47 q 221 26 224 36 q 215 9 219 19 q 205 -11 210 -1 q 198 -28 200 -21 q 200 -35 196 -35 q 243 -46 228 -35 q 266 -72 258 -57 q 275 -103 274 -87 q 276 -129 276 -119 q 237 -205 276 -175 q 135 -235 197 -235 z "},"":{"ha":492,"x_min":42,"x_max":478,"o":"m 101 0 q 55 31 68 0 q 42 143 42 61 l 42 753 q 56 835 42 813 q 101 858 69 858 q 157 843 133 858 q 181 775 181 828 l 181 696 q 197 697 188 697 q 221 697 207 697 q 345 681 296 697 q 424 631 394 664 q 466 551 454 599 q 478 442 478 503 q 462 328 478 381 q 410 239 446 276 q 319 181 375 201 q 181 164 263 161 l 181 163 q 179 112 181 140 q 170 58 178 83 q 147 17 163 33 q 101 0 131 0 m 83 782 q 82 786 82 783 q 79 797 79 792 q 92 823 79 814 q 104 836 104 832 q 96 840 104 840 q 73 826 83 840 q 63 792 63 813 q 74 767 63 767 q 83 782 83 767 m 243 279 q 286 285 268 279 q 317 310 304 292 q 335 360 329 328 q 340 444 340 393 q 338 488 340 464 q 328 533 336 513 q 307 569 321 554 q 269 583 293 583 q 231 584 258 583 q 181 579 204 585 l 181 279 l 243 279 m 71 106 q 75 117 74 106 q 77 144 76 129 q 78 172 78 158 q 78 192 78 186 q 75 232 78 224 q 69 240 72 240 q 64 233 67 240 q 61 192 61 225 q 63 124 61 143 q 71 106 64 106 m 71 90 q 63 78 63 90 q 72 63 63 63 q 79 78 79 63 q 78 88 79 85 q 71 90 78 90 z "},"":{"ha":543,"x_min":31,"x_max":529,"o":"m 96 -24 q 44 -1 57 -24 q 31 65 31 22 l 31 769 q 48 835 31 813 q 90 858 65 858 q 144 841 124 858 q 165 792 165 824 q 165 760 165 782 q 166 716 165 739 q 168 676 167 693 q 171 658 169 658 q 188 676 178 658 q 215 714 197 693 q 258 752 232 735 q 324 769 285 769 q 401 746 364 769 q 466 679 438 722 q 512 575 494 636 q 529 439 529 514 q 470 191 529 282 q 308 100 411 100 q 251 110 274 100 q 215 133 229 121 q 194 156 201 146 q 182 167 188 167 q 175 151 175 167 l 175 47 q 155 -3 175 17 q 96 -24 135 -24 m 67 749 q 69 775 68 761 q 78 801 71 789 q 80 820 83 813 q 69 828 76 828 q 51 805 58 828 q 43 753 43 782 q 51 719 43 719 q 60 727 54 719 q 67 749 65 735 m 293 225 q 340 242 321 225 q 370 288 358 258 q 388 359 382 318 q 393 447 393 400 q 369 581 393 531 q 310 631 344 631 q 263 602 286 631 q 222 533 240 574 q 192 450 203 493 q 181 378 181 407 q 189 322 181 349 q 213 273 197 294 q 249 238 228 251 q 293 225 269 225 m 97 25 q 94 33 97 31 q 83 38 90 35 q 76 51 76 42 q 76 71 76 61 q 63 90 76 90 q 51 64 51 90 q 62 28 51 44 q 88 11 72 11 q 97 25 97 11 z "},"":{"ha":550,"x_min":15,"x_max":533,"o":"m 269 -15 q 174 4 219 -15 q 92 58 128 24 q 36 140 57 92 q 15 244 15 188 q 32 338 15 293 q 78 418 49 383 q 150 473 108 453 q 240 493 192 493 q 296 485 272 493 q 336 466 319 476 q 363 447 353 456 q 376 438 372 438 q 382 451 382 438 q 374 503 382 474 q 355 561 367 532 q 329 617 343 590 q 303 663 315 644 l 276 635 q 248 606 265 622 q 211 590 231 590 q 179 606 194 590 q 163 647 160 625 q 204 708 167 669 l 233 739 q 206 756 219 749 q 176 769 192 764 q 148 785 158 776 q 133 802 138 793 q 127 819 128 811 q 126 831 126 826 q 145 854 126 847 q 176 861 164 861 q 210 858 190 861 q 251 850 229 856 q 294 835 272 844 q 332 815 315 826 q 362 847 346 831 q 397 863 378 863 q 428 847 413 863 q 445 821 442 833 q 444 796 449 808 q 431 771 440 783 q 407 744 421 758 q 463 653 439 704 q 501 547 486 603 q 525 431 517 490 q 533 313 533 371 q 520 182 533 242 q 476 78 507 122 q 395 10 446 35 q 269 -15 344 -15 m 272 103 q 329 115 306 103 q 367 147 353 126 q 387 192 381 167 q 393 247 393 218 q 381 296 393 272 q 350 337 369 319 q 306 365 331 354 q 253 375 281 375 q 181 337 206 375 q 157 251 157 299 q 185 144 157 185 q 272 103 214 103 m 94 165 q 85 200 90 183 q 76 236 81 217 q 72 254 74 246 q 63 263 69 263 q 53 249 56 263 q 55 215 50 236 q 67 173 60 193 q 83 138 75 153 q 94 122 90 122 q 103 131 103 122 q 100 146 103 138 q 94 165 97 154 z "},"":{"ha":803,"x_min":68,"x_max":722,"o":"m 197 510 q 169 519 185 510 q 154 543 154 528 l 154 943 q 129 943 144 943 q 101 947 114 943 q 78 958 88 950 q 68 981 68 965 q 79 1008 68 999 q 108 1018 90 1018 l 299 1018 q 318 1006 311 1018 q 325 983 325 994 q 302 949 325 954 q 258 943 279 943 l 251 943 l 251 549 q 233 519 251 529 q 197 510 214 510 m 667 510 q 640 518 650 510 q 626 538 631 526 q 622 563 622 550 q 621 586 621 576 l 624 828 q 622 842 624 835 q 615 849 619 849 q 599 830 610 849 q 577 790 589 811 q 552 749 565 768 q 526 731 539 731 q 506 743 517 731 q 484 773 494 756 q 464 808 474 790 q 447 839 454 826 q 442 844 443 844 q 438 838 439 844 q 438 826 438 832 l 438 582 q 422 528 438 546 q 383 510 406 510 q 358 525 367 510 q 349 579 349 540 l 349 913 q 351 960 349 938 q 361 997 354 983 q 374 1011 367 1004 q 392 1018 382 1018 q 435 997 415 1018 q 472 951 456 976 q 501 900 489 925 q 519 867 513 875 q 528 861 524 861 q 535 867 531 861 q 554 903 542 878 q 583 953 567 928 q 619 999 600 979 q 658 1018 638 1018 q 693 1004 681 1018 q 712 972 706 990 q 720 934 718 953 q 722 906 722 915 l 722 582 q 708 532 722 554 q 667 510 693 510 m 88 967 q 92 972 92 967 q 94 988 92 979 q 101 1003 96 996 q 97 1007 104 1007 q 85 998 90 1007 q 79 979 79 989 q 81 972 79 976 q 88 967 83 967 m 369 933 q 376 965 371 947 q 392 999 382 983 q 392 1003 394 1001 q 386 1004 389 1004 q 377 999 382 1004 q 368 984 372 993 q 361 965 364 975 q 358 949 358 956 q 358 935 357 942 q 361 928 358 929 q 369 933 369 928 m 182 529 q 189 536 189 529 q 186 540 189 540 q 178 551 181 542 q 176 564 176 560 q 178 580 176 567 q 172 593 179 593 q 165 581 165 593 q 164 567 164 569 q 167 544 164 558 q 182 529 171 529 m 657 528 q 651 548 657 538 q 646 574 646 558 q 644 581 646 576 q 638 585 643 585 q 632 575 632 585 q 633 563 632 571 q 638 545 635 554 q 644 530 640 536 q 654 524 649 524 q 657 528 657 524 m 379 525 q 373 547 379 532 q 360 563 367 563 q 358 556 358 563 q 360 541 358 549 q 367 526 363 533 q 376 519 371 519 q 379 525 379 519 z "},"":{"ha":608,"x_min":8,"x_max":583,"o":"m 92 -8 q 33 13 57 -8 q 8 72 8 35 q 33 138 8 108 q 96 168 57 168 q 178 85 178 168 q 153 22 178 51 q 92 -8 129 -8 m 294 -8 q 235 13 260 -8 q 211 72 211 35 q 235 138 211 108 q 299 168 260 168 q 381 85 381 168 q 356 22 381 51 q 294 -8 332 -8 m 497 -8 q 438 13 463 -8 q 414 72 414 35 q 438 138 414 108 q 501 168 463 168 q 583 85 583 168 q 559 22 583 51 q 497 -8 535 -8 m 44 57 q 52 67 51 57 q 56 82 53 76 q 71 108 61 97 q 89 135 81 119 q 88 142 90 138 q 83 146 86 146 q 67 138 75 146 q 51 117 58 129 q 40 93 44 106 q 36 74 36 81 q 37 64 36 71 q 44 57 38 57 m 247 57 q 255 67 254 57 q 258 82 256 76 q 274 108 264 97 q 292 135 283 119 q 291 142 293 138 q 286 146 289 146 q 269 138 278 146 q 254 117 261 129 q 243 93 247 106 q 239 74 239 81 q 240 64 239 71 q 247 57 240 57 m 450 57 q 458 67 457 57 q 461 82 458 76 q 476 108 467 97 q 494 135 486 119 q 494 142 496 138 q 489 146 492 146 q 472 138 481 146 q 457 117 464 129 q 446 93 450 106 q 442 74 442 81 q 442 64 442 71 q 450 57 443 57 z "},"":{"ha":626,"x_min":18,"x_max":607,"o":"m 368 886 q 347 875 357 875 q 317 893 335 875 q 284 935 300 911 q 256 983 268 958 q 242 1019 244 1007 q 252 1053 240 1035 q 282 1072 264 1072 q 313 1053 293 1072 q 365 989 333 1033 q 386 931 388 958 q 368 886 385 903 m 321 863 q 394 849 365 863 q 435 815 424 835 q 459 742 443 799 q 494 607 475 685 q 533 442 513 529 q 569 276 553 354 q 597 141 586 199 q 607 67 607 83 q 578 17 607 39 q 515 -4 549 -4 q 469 15 482 -4 q 456 44 464 24 q 439 93 447 65 q 423 151 431 121 q 410 211 415 182 q 394 245 404 239 q 369 251 383 251 q 299 252 329 251 q 253 253 268 253 q 212 247 225 253 q 194 225 199 240 l 158 86 q 123 22 147 46 q 68 -3 99 -3 q 18 67 18 -3 q 24 133 18 90 q 38 228 29 175 q 60 342 47 282 q 88 465 74 403 q 118 585 103 526 q 149 690 133 643 q 183 776 165 743 q 219 829 200 810 q 263 856 239 849 q 321 863 288 863 m 236 779 q 264 813 251 797 q 267 831 276 829 q 222 804 244 835 q 200 754 207 781 q 204 725 193 728 q 210 730 207 725 q 215 743 213 735 q 223 761 218 751 q 236 779 228 771 m 258 524 q 238 415 243 444 q 246 385 233 385 l 368 385 q 374 412 379 385 q 357 496 368 439 q 350 547 354 511 q 340 618 346 582 q 326 683 333 654 q 311 711 319 711 q 296 686 304 711 q 280 628 288 661 q 267 565 272 596 q 258 524 261 535 m 63 88 q 63 114 65 104 q 54 125 60 124 q 48 122 51 125 q 42 107 44 118 q 40 53 36 79 q 56 25 44 28 q 61 46 69 22 q 59 65 58 54 q 63 88 60 75 m 486 89 q 474 115 476 108 q 468 122 471 122 q 461 108 464 122 q 465 88 461 103 q 474 59 468 74 q 487 33 479 44 q 501 22 494 22 q 506 29 506 22 q 502 47 506 36 q 494 69 499 58 q 486 89 490 81 z "},"":{"ha":626,"x_min":18,"x_max":607,"o":"m 253 889 q 240 928 238 900 q 264 986 242 956 q 316 1050 296 1031 q 347 1069 336 1069 q 374 1052 358 1069 q 388 1019 389 1035 q 373 982 385 1006 q 345 935 361 958 q 311 896 329 913 q 278 879 293 879 q 265 882 271 879 q 253 889 260 885 m 321 863 q 394 849 365 863 q 435 815 424 835 q 459 742 443 799 q 494 607 475 685 q 533 442 513 529 q 569 276 553 354 q 597 141 586 199 q 607 67 607 83 q 578 17 607 39 q 515 -4 549 -4 q 469 15 482 -4 q 456 44 464 24 q 439 93 447 65 q 423 151 431 121 q 410 211 415 182 q 394 245 404 239 q 369 251 383 251 q 299 252 329 251 q 253 253 268 253 q 212 247 225 253 q 194 225 199 240 l 158 86 q 123 22 147 46 q 68 -3 99 -3 q 18 67 18 -3 q 24 133 18 90 q 38 228 29 175 q 60 342 47 282 q 88 465 74 403 q 118 585 103 526 q 149 690 133 643 q 183 776 165 743 q 219 829 200 810 q 263 856 239 849 q 321 863 288 863 m 236 779 q 264 813 251 797 q 267 831 276 829 q 222 804 244 835 q 200 754 207 781 q 204 725 193 728 q 210 730 207 725 q 215 743 213 735 q 223 761 218 751 q 236 779 228 771 m 258 524 q 238 415 243 444 q 246 385 233 385 l 368 385 q 374 412 379 385 q 357 496 368 439 q 350 547 354 511 q 340 618 346 582 q 326 683 333 654 q 311 711 319 711 q 296 686 304 711 q 280 628 288 661 q 267 565 272 596 q 258 524 261 535 m 63 88 q 63 114 65 104 q 54 125 60 124 q 48 122 51 125 q 42 107 44 118 q 40 53 36 79 q 56 25 44 28 q 61 46 69 22 q 59 65 58 54 q 63 88 60 75 m 486 89 q 474 115 476 108 q 468 122 471 122 q 461 108 464 122 q 465 88 461 103 q 474 59 468 74 q 487 33 479 44 q 501 22 494 22 q 506 29 506 22 q 502 47 506 36 q 494 69 499 58 q 486 89 490 81 z "},"":{"ha":626,"x_min":18,"x_max":607,"o":"m 189 926 q 203 969 189 942 q 237 1022 217 996 q 279 1067 257 1047 q 317 1086 301 1086 q 353 1067 332 1086 q 393 1021 374 1047 q 426 968 413 994 q 439 928 439 942 q 423 899 439 910 q 390 889 407 889 q 367 897 376 889 q 349 917 357 906 q 333 943 340 929 q 318 968 326 957 q 299 942 308 957 q 281 915 290 928 q 261 894 272 903 q 235 886 250 886 q 205 899 221 886 q 189 926 189 913 m 321 863 q 394 849 365 863 q 435 815 424 835 q 459 742 443 799 q 494 607 475 685 q 533 442 513 529 q 569 276 553 354 q 597 141 586 199 q 607 67 607 83 q 578 17 607 39 q 515 -4 549 -4 q 469 15 482 -4 q 456 44 464 24 q 439 93 447 65 q 423 151 431 121 q 410 211 415 182 q 394 245 404 239 q 369 251 383 251 q 299 252 329 251 q 253 253 268 253 q 212 247 225 253 q 194 225 199 240 l 158 86 q 123 22 147 46 q 68 -3 99 -3 q 18 67 18 -3 q 24 133 18 90 q 38 228 29 175 q 60 342 47 282 q 88 465 74 403 q 118 585 103 526 q 149 690 133 643 q 183 776 165 743 q 219 829 200 810 q 263 856 239 849 q 321 863 288 863 m 236 779 q 264 813 251 797 q 267 831 276 829 q 222 804 244 835 q 200 754 207 781 q 204 725 193 728 q 210 730 207 725 q 215 743 213 735 q 223 761 218 751 q 236 779 228 771 m 258 524 q 238 415 243 444 q 246 385 233 385 l 368 385 q 374 412 379 385 q 357 496 368 439 q 350 547 354 511 q 340 618 346 582 q 326 683 333 654 q 311 711 319 711 q 296 686 304 711 q 280 628 288 661 q 267 565 272 596 q 258 524 261 535 m 63 88 q 63 114 65 104 q 54 125 60 124 q 48 122 51 125 q 42 107 44 118 q 40 53 36 79 q 56 25 44 28 q 61 46 69 22 q 59 65 58 54 q 63 88 60 75 m 486 89 q 474 115 476 108 q 468 122 471 122 q 461 108 464 122 q 465 88 461 103 q 474 59 468 74 q 487 33 479 44 q 501 22 494 22 q 506 29 506 22 q 502 47 506 36 q 494 69 499 58 q 486 89 490 81 z "},"":{"ha":626,"x_min":18,"x_max":607,"o":"m 375 883 q 335 895 353 883 q 302 921 317 907 q 276 947 288 935 q 253 958 264 958 q 230 945 242 958 q 214 924 218 932 q 200 903 207 908 q 176 897 193 897 q 151 910 163 897 q 140 935 140 922 q 150 975 140 954 q 175 1013 160 996 q 210 1040 190 1029 q 247 1051 229 1051 q 286 1040 268 1051 q 320 1014 304 1028 q 351 988 336 1000 q 381 976 367 976 q 403 989 396 976 q 416 1016 410 1001 q 431 1042 422 1031 q 454 1054 439 1054 q 478 1040 469 1054 q 488 1014 488 1025 q 478 968 488 992 q 454 926 469 944 q 419 895 439 907 q 375 883 399 883 m 321 863 q 394 849 365 863 q 435 815 424 835 q 459 742 443 799 q 494 607 475 685 q 533 442 513 529 q 569 276 553 354 q 597 141 586 199 q 607 67 607 83 q 578 17 607 39 q 515 -4 549 -4 q 469 15 482 -4 q 456 44 464 24 q 439 93 447 65 q 423 151 431 121 q 410 211 415 182 q 394 245 404 239 q 369 251 383 251 q 299 252 329 251 q 253 253 268 253 q 212 247 225 253 q 194 225 199 240 l 158 86 q 123 22 147 46 q 68 -3 99 -3 q 18 67 18 -3 q 24 133 18 90 q 38 228 29 175 q 60 342 47 282 q 88 465 74 403 q 118 585 103 526 q 149 690 133 643 q 183 776 165 743 q 219 829 200 810 q 263 856 239 849 q 321 863 288 863 m 236 779 q 264 813 251 797 q 267 831 276 829 q 222 804 244 835 q 200 754 207 781 q 204 725 193 728 q 210 730 207 725 q 215 743 213 735 q 223 761 218 751 q 236 779 228 771 m 258 524 q 238 415 243 444 q 246 385 233 385 l 368 385 q 374 412 379 385 q 357 496 368 439 q 350 547 354 511 q 340 618 346 582 q 326 683 333 654 q 311 711 319 711 q 296 686 304 711 q 280 628 288 661 q 267 565 272 596 q 258 524 261 535 m 63 88 q 63 114 65 104 q 54 125 60 124 q 48 122 51 125 q 42 107 44 118 q 40 53 36 79 q 56 25 44 28 q 61 46 69 22 q 59 65 58 54 q 63 88 60 75 m 486 89 q 474 115 476 108 q 468 122 471 122 q 461 108 464 122 q 465 88 461 103 q 474 59 468 74 q 487 33 479 44 q 501 22 494 22 q 506 29 506 22 q 502 47 506 36 q 494 69 499 58 q 486 89 490 81 z "},"":{"ha":626,"x_min":18,"x_max":607,"o":"m 238 894 q 193 910 214 894 q 172 957 172 926 q 193 1004 172 988 q 238 1021 214 1021 q 281 1004 261 1021 q 301 957 301 988 q 281 910 301 926 q 238 894 261 894 m 390 894 q 346 910 367 894 q 325 957 325 926 q 346 1004 325 988 q 390 1021 367 1021 q 434 1004 414 1021 q 454 957 454 988 q 434 910 454 926 q 390 894 414 894 m 321 863 q 394 849 365 863 q 435 815 424 835 q 459 742 443 799 q 494 607 475 685 q 533 442 513 529 q 569 276 553 354 q 597 141 586 199 q 607 67 607 83 q 578 17 607 39 q 515 -4 549 -4 q 469 15 482 -4 q 456 44 464 24 q 439 93 447 65 q 423 151 431 121 q 410 211 415 182 q 394 245 404 239 q 369 251 383 251 q 299 252 329 251 q 253 253 268 253 q 212 247 225 253 q 194 225 199 240 l 158 86 q 123 22 147 46 q 68 -3 99 -3 q 18 67 18 -3 q 24 133 18 90 q 38 228 29 175 q 60 342 47 282 q 88 465 74 403 q 118 585 103 526 q 149 690 133 643 q 183 776 165 743 q 219 829 200 810 q 263 856 239 849 q 321 863 288 863 m 236 779 q 264 813 251 797 q 267 831 276 829 q 222 804 244 835 q 200 754 207 781 q 204 725 193 728 q 210 730 207 725 q 215 743 213 735 q 223 761 218 751 q 236 779 228 771 m 258 524 q 238 415 243 444 q 246 385 233 385 l 368 385 q 374 412 379 385 q 357 496 368 439 q 350 547 354 511 q 340 618 346 582 q 326 683 333 654 q 311 711 319 711 q 296 686 304 711 q 280 628 288 661 q 267 565 272 596 q 258 524 261 535 m 63 88 q 63 114 65 104 q 54 125 60 124 q 48 122 51 125 q 42 107 44 118 q 40 53 36 79 q 56 25 44 28 q 61 46 69 22 q 59 65 58 54 q 63 88 60 75 m 486 89 q 474 115 476 108 q 468 122 471 122 q 461 108 464 122 q 465 88 461 103 q 474 59 468 74 q 487 33 479 44 q 501 22 494 22 q 506 29 506 22 q 502 47 506 36 q 494 69 499 58 q 486 89 490 81 z "},"":{"ha":626,"x_min":18,"x_max":607,"o":"m 313 867 q 249 888 276 867 q 222 951 222 910 q 249 1026 222 999 q 310 1054 275 1054 q 376 1027 347 1054 q 406 960 406 1000 q 378 895 406 924 q 313 867 350 867 m 310 929 q 331 941 322 929 q 339 964 339 953 q 331 978 339 969 q 313 988 324 988 q 285 954 285 988 q 293 936 285 943 q 310 929 301 929 m 321 863 q 394 849 365 863 q 435 815 424 835 q 459 742 443 799 q 494 607 475 685 q 533 442 513 529 q 569 276 553 354 q 597 141 586 199 q 607 67 607 83 q 578 17 607 39 q 515 -4 549 -4 q 469 15 482 -4 q 456 44 464 24 q 439 93 447 65 q 423 151 431 121 q 410 211 415 182 q 394 245 404 239 q 369 251 383 251 q 299 252 329 251 q 253 253 268 253 q 212 247 225 253 q 194 225 199 240 l 158 86 q 123 22 147 46 q 68 -3 99 -3 q 18 67 18 -3 q 24 133 18 90 q 38 228 29 175 q 60 342 47 282 q 88 465 74 403 q 118 585 103 526 q 149 690 133 643 q 183 776 165 743 q 219 829 200 810 q 263 856 239 849 q 321 863 288 863 m 236 779 q 264 813 251 797 q 267 831 276 829 q 222 804 244 835 q 200 754 207 781 q 204 725 193 728 q 210 730 207 725 q 215 743 213 735 q 223 761 218 751 q 236 779 228 771 m 258 524 q 238 415 243 444 q 246 385 233 385 l 368 385 q 374 412 379 385 q 357 496 368 439 q 350 547 354 511 q 340 618 346 582 q 326 683 333 654 q 311 711 319 711 q 296 686 304 711 q 280 628 288 661 q 267 565 272 596 q 258 524 261 535 m 63 88 q 63 114 65 104 q 54 125 60 124 q 48 122 51 125 q 42 107 44 118 q 40 53 36 79 q 56 25 44 28 q 61 46 69 22 q 59 65 58 54 q 63 88 60 75 m 486 89 q 474 115 476 108 q 468 122 471 122 q 461 108 464 122 q 465 88 461 103 q 474 59 468 74 q 487 33 479 44 q 501 22 494 22 q 506 29 506 22 q 502 47 506 36 q 494 69 499 58 q 486 89 490 81 z "},"":{"ha":921,"x_min":18,"x_max":899,"o":"m 321 863 q 394 849 365 863 q 435 815 424 835 q 442 796 438 808 q 453 764 447 783 q 468 809 457 792 q 494 837 479 826 q 526 851 508 847 q 558 856 543 856 l 829 856 q 867 836 854 856 q 879 793 879 817 q 868 747 879 769 q 835 722 857 724 l 639 717 q 617 707 625 717 q 608 683 608 697 l 608 556 q 639 514 608 514 l 804 515 q 841 493 832 515 q 850 443 850 471 q 842 407 850 425 q 806 388 833 389 l 646 382 q 616 371 624 381 q 608 339 608 361 l 608 247 q 610 195 608 218 q 619 156 611 172 q 647 132 628 140 q 700 124 665 124 q 747 130 724 124 q 791 144 769 136 q 831 159 813 153 q 863 165 849 165 q 879 158 872 165 q 890 138 886 150 q 897 114 894 126 q 899 90 899 101 q 874 44 899 63 q 815 14 849 25 q 745 -1 781 3 q 689 -6 710 -6 q 640 -6 667 -6 q 588 -8 613 -7 q 543 -8 563 -8 q 515 -4 524 -7 q 469 15 482 -4 q 456 44 464 24 q 439 93 447 65 q 423 151 431 121 q 410 211 415 182 q 394 245 404 239 q 369 251 383 251 q 299 252 329 251 q 253 253 268 253 q 212 247 225 253 q 194 225 199 240 l 158 86 q 123 22 147 46 q 68 -3 99 -3 q 18 67 18 -3 q 24 133 18 90 q 38 228 29 175 q 60 342 47 282 q 88 465 74 403 q 118 585 103 526 q 149 690 133 643 q 183 776 165 743 q 219 829 200 810 q 263 856 239 849 q 321 863 288 863 m 236 779 q 264 813 251 797 q 267 831 276 829 q 222 804 244 835 q 200 754 207 781 q 204 725 193 728 q 210 730 207 725 q 215 743 213 735 q 223 761 218 751 q 236 779 228 771 m 258 524 q 238 415 243 444 q 246 385 233 385 l 368 385 q 374 412 379 385 q 357 496 368 439 q 350 547 354 511 q 340 618 346 582 q 326 683 333 654 q 311 711 319 711 q 296 686 304 711 q 280 628 288 661 q 267 565 272 596 q 258 524 261 535 m 481 93 q 468 119 471 113 q 463 126 465 126 q 456 113 458 126 q 459 92 456 107 q 468 63 463 78 q 481 38 474 49 q 496 26 489 26 q 500 33 500 26 q 497 51 500 40 q 489 74 493 63 q 481 93 485 85 m 63 88 q 63 114 65 104 q 54 125 60 124 q 48 122 51 125 q 42 107 44 118 q 40 53 36 79 q 56 25 44 28 q 61 46 69 22 q 59 65 58 54 q 63 88 60 75 z "},"":{"ha":536,"x_min":15,"x_max":517,"o":"m 247 -235 q 216 -231 233 -235 q 184 -217 199 -226 q 159 -192 169 -207 q 149 -153 149 -176 q 154 -130 149 -136 q 171 -124 160 -124 q 211 -134 188 -124 q 253 -144 235 -144 q 278 -140 264 -144 q 292 -118 292 -135 q 278 -103 292 -108 q 249 -90 265 -97 q 219 -71 232 -83 q 206 -35 206 -58 q 217 -1 206 -19 q 69 140 122 32 q 15 406 15 249 q 37 588 15 504 q 98 734 58 672 q 192 831 138 796 q 310 865 246 865 q 390 850 353 865 q 456 808 428 835 q 501 745 485 781 q 517 668 517 710 q 460 589 517 589 q 406 614 428 589 q 383 676 385 639 q 329 733 381 733 q 267 709 294 733 q 221 641 240 685 q 191 537 201 597 q 181 403 181 476 q 213 197 181 271 q 310 122 246 122 q 361 139 340 122 q 382 181 382 156 q 389 208 382 194 q 407 231 396 221 q 432 248 418 242 q 460 254 446 254 q 500 233 485 254 q 515 175 515 211 q 500 106 515 139 q 458 49 485 74 q 394 8 431 24 q 317 -12 358 -8 q 313 -35 307 -35 q 356 -46 340 -35 q 378 -72 371 -57 q 388 -103 386 -87 q 389 -129 389 -119 q 349 -205 389 -175 q 247 -235 310 -235 m 132 713 q 153 730 136 713 q 191 768 169 747 q 238 806 213 789 q 283 821 263 822 q 297 823 290 819 q 303 831 303 826 q 288 844 306 842 q 237 833 264 847 q 185 799 210 819 q 144 757 161 779 q 126 719 128 735 q 132 713 126 713 m 118 697 q 106 689 111 697 q 99 669 100 681 q 103 657 99 657 q 113 663 107 657 q 121 676 118 668 q 124 690 124 683 q 118 697 124 697 z "},"":{"ha":568,"x_min":-47,"x_max":551,"o":"m 149 0 q 101 6 124 0 q 60 25 78 11 q 33 63 43 39 q 22 122 22 86 l 22 451 q -27 467 -7 453 q -47 513 -47 481 q -26 558 -47 544 q 22 574 -4 571 l 22 717 q 35 781 22 754 q 70 826 49 808 q 121 851 92 843 q 182 858 150 858 l 244 858 q 360 831 304 858 q 458 752 415 804 q 526 624 500 700 q 551 453 551 549 q 525 267 551 351 q 454 124 499 183 q 350 33 410 65 q 225 0 290 0 l 149 0 m 218 133 q 286 156 254 133 q 341 222 318 179 q 377 324 364 264 q 390 457 390 383 q 349 656 390 589 q 240 722 307 722 l 219 722 q 188 712 196 722 q 181 667 181 701 l 181 578 l 218 578 q 262 567 242 578 q 282 526 282 557 q 273 490 282 504 q 250 468 264 476 q 218 457 236 460 q 181 454 200 454 l 181 183 q 185 144 181 156 q 200 133 190 133 l 218 133 m -22 486 q -11 494 -17 486 q 0 510 -6 501 q 9 528 6 519 q 13 540 13 538 q 12 551 13 546 q 4 556 11 556 q -23 537 -14 556 q -32 504 -32 518 q -28 490 -32 493 q -22 486 -25 486 m 65 115 q 73 130 71 115 q 75 163 75 144 q 74 199 75 182 q 74 224 74 217 q 65 300 74 300 q 57 283 61 300 q 53 224 53 265 q 53 138 53 161 q 65 115 54 115 m 64 96 q 54 81 54 96 q 65 56 54 56 q 72 64 69 56 q 75 81 75 72 q 64 96 75 96 z "},"":{"ha":568,"x_min":-47,"x_max":551,"o":"m 149 0 q 101 6 124 0 q 60 25 78 11 q 33 63 43 39 q 22 122 22 86 l 22 451 q -27 467 -7 453 q -47 513 -47 481 q -26 558 -47 544 q 22 574 -4 571 l 22 717 q 35 781 22 754 q 70 826 49 808 q 121 851 92 843 q 182 858 150 858 l 244 858 q 360 831 304 858 q 458 752 415 804 q 526 624 500 700 q 551 453 551 549 q 525 267 551 351 q 454 124 499 183 q 350 33 410 65 q 225 0 290 0 l 149 0 m 218 133 q 286 156 254 133 q 341 222 318 179 q 377 324 364 264 q 390 457 390 383 q 349 656 390 589 q 240 722 307 722 l 219 722 q 188 712 196 722 q 181 667 181 701 l 181 578 l 218 578 q 262 567 242 578 q 282 526 282 557 q 273 490 282 504 q 250 468 264 476 q 218 457 236 460 q 181 454 200 454 l 181 183 q 185 144 181 156 q 200 133 190 133 l 218 133 m -22 486 q -11 494 -17 486 q 0 510 -6 501 q 9 528 6 519 q 13 540 13 538 q 12 551 13 546 q 4 556 11 556 q -23 537 -14 556 q -32 504 -32 518 q -28 490 -32 493 q -22 486 -25 486 m 65 115 q 73 130 71 115 q 75 163 75 144 q 74 199 75 182 q 74 224 74 217 q 65 300 74 300 q 57 283 61 300 q 53 224 53 265 q 53 138 53 161 q 65 115 54 115 m 64 96 q 54 81 54 96 q 65 56 54 56 q 72 64 69 56 q 75 81 75 72 q 64 96 75 96 z "},"":{"ha":503,"x_min":32,"x_max":481,"o":"m 306 886 q 285 875 294 875 q 255 893 272 875 q 222 935 238 911 q 194 983 206 958 q 179 1019 182 1007 q 190 1053 178 1035 q 219 1072 201 1072 q 251 1053 231 1072 q 303 989 271 1033 q 324 931 325 958 q 306 886 322 903 m 271 -6 q 174 2 218 -6 q 99 29 131 10 q 49 81 67 49 q 32 164 32 114 l 32 732 q 42 792 32 768 q 69 831 53 817 q 103 850 85 844 q 140 856 122 856 l 411 856 q 449 836 436 856 q 461 793 461 817 q 450 747 461 769 q 417 722 439 724 l 221 717 q 199 707 207 717 q 190 683 190 697 l 190 556 q 221 514 190 514 l 386 515 q 423 493 414 515 q 432 443 432 471 q 424 407 432 425 q 388 388 415 389 l 228 382 q 198 371 206 381 q 190 339 190 361 l 190 247 q 192 195 190 218 q 201 156 193 172 q 228 132 210 140 q 282 124 247 124 q 328 130 306 124 q 373 144 351 136 q 413 159 394 153 q 444 165 431 165 q 461 158 454 165 q 472 138 468 150 q 478 114 476 126 q 481 90 481 101 q 456 44 481 63 q 397 14 431 25 q 327 -1 363 3 q 271 -6 292 -6 m 121 83 q 92 127 104 106 q 76 169 79 149 q 64 188 72 189 q 57 163 53 188 q 65 132 58 150 q 79 99 71 114 q 99 73 88 83 q 122 64 110 63 q 121 83 133 67 z "},"":{"ha":503,"x_min":32,"x_max":481,"o":"m 190 889 q 177 928 175 900 q 201 986 179 956 q 253 1050 233 1031 q 285 1069 274 1069 q 311 1052 296 1069 q 325 1019 326 1035 q 310 982 322 1006 q 283 935 299 958 q 249 896 267 913 q 215 879 231 879 q 203 882 208 879 q 190 889 197 885 m 271 -6 q 174 2 218 -6 q 99 29 131 10 q 49 81 67 49 q 32 164 32 114 l 32 732 q 42 792 32 768 q 69 831 53 817 q 103 850 85 844 q 140 856 122 856 l 411 856 q 449 836 436 856 q 461 793 461 817 q 450 747 461 769 q 417 722 439 724 l 221 717 q 199 707 207 717 q 190 683 190 697 l 190 556 q 221 514 190 514 l 386 515 q 423 493 414 515 q 432 443 432 471 q 424 407 432 425 q 388 388 415 389 l 228 382 q 198 371 206 381 q 190 339 190 361 l 190 247 q 192 195 190 218 q 201 156 193 172 q 228 132 210 140 q 282 124 247 124 q 328 130 306 124 q 373 144 351 136 q 413 159 394 153 q 444 165 431 165 q 461 158 454 165 q 472 138 468 150 q 478 114 476 126 q 481 90 481 101 q 456 44 481 63 q 397 14 431 25 q 327 -1 363 3 q 271 -6 292 -6 m 121 83 q 92 127 104 106 q 76 169 79 149 q 64 188 72 189 q 57 163 53 188 q 65 132 58 150 q 79 99 71 114 q 99 73 88 83 q 122 64 110 63 q 121 83 133 67 z "},"":{"ha":503,"x_min":32,"x_max":481,"o":"m 126 926 q 140 969 126 942 q 174 1022 154 996 q 217 1067 194 1047 q 254 1086 239 1086 q 290 1067 269 1086 q 331 1021 311 1047 q 363 968 350 994 q 376 928 376 942 q 360 899 376 910 q 328 889 344 889 q 304 897 314 889 q 286 917 294 906 q 271 943 278 929 q 256 968 264 957 q 237 942 246 957 q 219 915 228 928 q 199 894 210 903 q 172 886 188 886 q 142 899 158 886 q 126 926 126 913 m 271 -6 q 174 2 218 -6 q 99 29 131 10 q 49 81 67 49 q 32 164 32 114 l 32 732 q 42 792 32 768 q 69 831 53 817 q 103 850 85 844 q 140 856 122 856 l 411 856 q 449 836 436 856 q 461 793 461 817 q 450 747 461 769 q 417 722 439 724 l 221 717 q 199 707 207 717 q 190 683 190 697 l 190 556 q 221 514 190 514 l 386 515 q 423 493 414 515 q 432 443 432 471 q 424 407 432 425 q 388 388 415 389 l 228 382 q 198 371 206 381 q 190 339 190 361 l 190 247 q 192 195 190 218 q 201 156 193 172 q 228 132 210 140 q 282 124 247 124 q 328 130 306 124 q 373 144 351 136 q 413 159 394 153 q 444 165 431 165 q 461 158 454 165 q 472 138 468 150 q 478 114 476 126 q 481 90 481 101 q 456 44 481 63 q 397 14 431 25 q 327 -1 363 3 q 271 -6 292 -6 m 121 83 q 92 127 104 106 q 76 169 79 149 q 64 188 72 189 q 57 163 53 188 q 65 132 58 150 q 79 99 71 114 q 99 73 88 83 q 122 64 110 63 q 121 83 133 67 z "},"":{"ha":503,"x_min":32,"x_max":481,"o":"m 176 894 q 132 910 153 894 q 111 957 111 926 q 132 1004 111 988 q 176 1021 153 1021 q 220 1004 200 1021 q 240 957 240 988 q 220 910 240 926 q 176 894 200 894 m 329 894 q 285 910 306 894 q 264 957 264 926 q 285 1004 264 988 q 329 1021 306 1021 q 373 1004 353 1021 q 393 957 393 988 q 373 910 393 926 q 329 894 353 894 m 271 -6 q 174 2 218 -6 q 99 29 131 10 q 49 81 67 49 q 32 164 32 114 l 32 732 q 42 792 32 768 q 69 831 53 817 q 103 850 85 844 q 140 856 122 856 l 411 856 q 449 836 436 856 q 461 793 461 817 q 450 747 461 769 q 417 722 439 724 l 221 717 q 199 707 207 717 q 190 683 190 697 l 190 556 q 221 514 190 514 l 386 515 q 423 493 414 515 q 432 443 432 471 q 424 407 432 425 q 388 388 415 389 l 228 382 q 198 371 206 381 q 190 339 190 361 l 190 247 q 192 195 190 218 q 201 156 193 172 q 228 132 210 140 q 282 124 247 124 q 328 130 306 124 q 373 144 351 136 q 413 159 394 153 q 444 165 431 165 q 461 158 454 165 q 472 138 468 150 q 478 114 476 126 q 481 90 481 101 q 456 44 481 63 q 397 14 431 25 q 327 -1 363 3 q 271 -6 292 -6 m 121 83 q 92 127 104 106 q 76 169 79 149 q 64 188 72 189 q 57 163 53 188 q 65 132 58 150 q 79 99 71 114 q 99 73 88 83 q 122 64 110 63 q 121 83 133 67 z "},"":{"ha":322,"x_min":13,"x_max":303,"o":"m 215 886 q 194 875 204 875 q 165 893 182 875 q 131 935 147 911 q 103 983 115 958 q 89 1019 92 1007 q 99 1053 88 1035 q 129 1072 111 1072 q 160 1053 140 1072 q 213 989 181 1033 q 233 931 235 958 q 215 886 232 903 m 74 1 q 42 8 58 1 q 25 33 25 14 q 38 58 25 47 q 75 69 51 69 q 90 77 85 69 q 94 94 94 85 l 94 761 q 83 780 94 772 q 61 788 72 788 q 22 799 32 788 q 13 825 13 810 q 45 852 13 844 q 169 860 78 860 q 237 858 211 860 q 277 854 263 857 q 297 847 292 851 q 303 835 303 842 q 287 803 303 815 q 258 786 271 790 q 243 760 243 781 l 243 94 q 244 78 243 88 q 253 67 246 69 q 277 60 267 63 q 292 54 288 57 q 299 38 299 47 q 288 11 299 19 q 250 3 279 4 q 185 0 221 1 q 120 0 153 -1 q 74 1 88 1 m 142 207 q 139 256 142 236 q 129 275 136 275 q 122 255 125 275 q 117 210 118 235 q 118 164 117 186 q 124 138 119 142 q 137 142 132 129 q 142 207 142 156 m 142 107 q 136 115 142 113 q 131 117 133 117 q 121 115 125 117 q 117 107 117 114 q 129 96 117 96 q 142 107 142 96 z "},"":{"ha":322,"x_min":13,"x_max":303,"o":"m 100 889 q 87 928 85 900 q 111 986 89 956 q 163 1050 143 1031 q 194 1069 183 1069 q 221 1052 206 1069 q 235 1019 236 1035 q 220 982 232 1006 q 192 935 208 958 q 158 896 176 913 q 125 879 140 879 q 113 882 118 879 q 100 889 107 885 m 74 1 q 42 8 58 1 q 25 33 25 14 q 38 58 25 47 q 75 69 51 69 q 90 77 85 69 q 94 94 94 85 l 94 761 q 83 780 94 772 q 61 788 72 788 q 22 799 32 788 q 13 825 13 810 q 45 852 13 844 q 169 860 78 860 q 237 858 211 860 q 277 854 263 857 q 297 847 292 851 q 303 835 303 842 q 287 803 303 815 q 258 786 271 790 q 243 760 243 781 l 243 94 q 244 78 243 88 q 253 67 246 69 q 277 60 267 63 q 292 54 288 57 q 299 38 299 47 q 288 11 299 19 q 250 3 279 4 q 185 0 221 1 q 120 0 153 -1 q 74 1 88 1 m 142 207 q 139 256 142 236 q 129 275 136 275 q 122 255 125 275 q 117 210 118 235 q 118 164 117 186 q 124 138 119 142 q 137 142 132 129 q 142 207 142 156 m 142 107 q 136 115 142 113 q 131 117 133 117 q 121 115 125 117 q 117 107 117 114 q 129 96 117 96 q 142 107 142 96 z "},"":{"ha":322,"x_min":13,"x_max":303,"o":"m 36 926 q 50 969 36 942 q 84 1022 64 996 q 126 1067 104 1047 q 164 1086 149 1086 q 200 1067 179 1086 q 240 1021 221 1047 q 273 968 260 994 q 286 928 286 942 q 270 899 286 910 q 238 889 254 889 q 214 897 224 889 q 196 917 204 906 q 181 943 188 929 q 165 968 174 957 q 147 942 156 957 q 128 915 138 928 q 108 894 119 903 q 82 886 97 886 q 52 899 68 886 q 36 926 36 913 m 74 1 q 42 8 58 1 q 25 33 25 14 q 38 58 25 47 q 75 69 51 69 q 90 77 85 69 q 94 94 94 85 l 94 761 q 83 780 94 772 q 61 788 72 788 q 22 799 32 788 q 13 825 13 810 q 45 852 13 844 q 169 860 78 860 q 237 858 211 860 q 277 854 263 857 q 297 847 292 851 q 303 835 303 842 q 287 803 303 815 q 258 786 271 790 q 243 760 243 781 l 243 94 q 244 78 243 88 q 253 67 246 69 q 277 60 267 63 q 292 54 288 57 q 299 38 299 47 q 288 11 299 19 q 250 3 279 4 q 185 0 221 1 q 120 0 153 -1 q 74 1 88 1 m 142 207 q 139 256 142 236 q 129 275 136 275 q 122 255 125 275 q 117 210 118 235 q 118 164 117 186 q 124 138 119 142 q 137 142 132 129 q 142 207 142 156 m 142 107 q 136 115 142 113 q 131 117 133 117 q 121 115 125 117 q 117 107 117 114 q 129 96 117 96 q 142 107 142 96 z "},"":{"ha":322,"x_min":13,"x_max":303,"o":"m 85 894 q 40 910 61 894 q 19 957 19 926 q 40 1004 19 988 q 85 1021 61 1021 q 128 1004 108 1021 q 149 957 149 988 q 128 910 149 926 q 85 894 108 894 m 238 894 q 193 910 214 894 q 172 957 172 926 q 193 1004 172 988 q 238 1021 214 1021 q 281 1004 261 1021 q 301 957 301 988 q 281 910 301 926 q 238 894 261 894 m 74 1 q 42 8 58 1 q 25 33 25 14 q 38 58 25 47 q 75 69 51 69 q 90 77 85 69 q 94 94 94 85 l 94 761 q 83 780 94 772 q 61 788 72 788 q 22 799 32 788 q 13 825 13 810 q 45 852 13 844 q 169 860 78 860 q 237 858 211 860 q 277 854 263 857 q 297 847 292 851 q 303 835 303 842 q 287 803 303 815 q 258 786 271 790 q 243 760 243 781 l 243 94 q 244 78 243 88 q 253 67 246 69 q 277 60 267 63 q 292 54 288 57 q 299 38 299 47 q 288 11 299 19 q 250 3 279 4 q 185 0 221 1 q 120 0 153 -1 q 74 1 88 1 m 142 207 q 139 256 142 236 q 129 275 136 275 q 122 255 125 275 q 117 210 118 235 q 118 164 117 186 q 124 138 119 142 q 137 142 132 129 q 142 207 142 156 m 142 107 q 136 115 142 113 q 131 117 133 117 q 121 115 125 117 q 117 107 117 114 q 129 96 117 96 q 142 107 142 96 z "},"":{"ha":446,"x_min":-25,"x_max":425,"o":"m 83 0 q 56 11 68 0 q 44 38 44 22 l 43 338 l 42 338 q 1 340 19 332 q -22 371 -17 347 q -22 394 -25 385 q -10 412 -18 404 q 10 424 -1 419 q 32 431 21 428 q 38 432 35 432 q 44 433 40 432 l 44 768 q 47 799 44 783 q 57 826 49 814 q 81 847 65 839 q 125 856 97 856 q 180 831 157 856 q 203 778 203 806 l 203 471 q 213 474 208 472 q 222 476 218 475 q 256 475 240 479 q 278 449 272 471 q 266 402 285 417 q 222 381 247 388 q 203 376 217 379 l 203 168 q 213 137 203 143 q 235 131 222 131 q 277 131 258 131 q 313 133 296 132 q 349 134 331 133 q 392 135 368 135 q 418 115 411 135 q 425 75 425 94 q 408 23 425 47 q 371 -1 390 -1 l 306 -1 l 190 0 l 83 0 m 69 763 q 80 772 74 763 q 92 793 86 781 q 103 817 99 806 q 108 832 108 828 q 97 839 108 839 q 83 830 90 839 q 72 810 76 821 q 64 788 67 799 q 63 771 61 776 q 69 763 63 763 m 0 356 q 7 363 4 356 q 13 377 10 369 q 16 392 15 385 q 17 400 17 399 q 8 410 14 411 q -9 392 -6 407 q -10 367 -12 378 q -5 357 -8 360 q 0 356 -1 354 m 85 82 q 94 97 92 82 q 99 134 97 113 q 99 178 100 156 q 99 215 99 201 q 98 229 99 221 q 95 246 97 238 q 90 260 93 254 q 79 265 86 265 q 73 253 75 265 q 69 226 71 242 q 68 198 68 211 q 68 181 68 185 q 69 160 68 176 q 72 127 69 144 q 76 96 74 110 q 85 82 79 82 m 108 42 q 99 57 108 57 q 85 42 85 57 q 96 31 85 31 q 104 33 100 31 q 108 42 108 36 z "},"":{"ha":610,"x_min":26,"x_max":576,"o":"m 367 883 q 326 895 344 883 q 294 921 308 907 q 267 947 279 935 q 244 958 256 958 q 222 945 233 958 q 206 924 210 932 q 192 903 199 908 q 168 897 185 897 q 143 910 154 897 q 132 935 132 922 q 142 975 132 954 q 167 1013 151 996 q 201 1040 182 1029 q 239 1051 221 1051 q 278 1040 260 1051 q 312 1014 296 1028 q 343 988 328 1000 q 372 976 358 976 q 394 989 388 976 q 408 1016 401 1001 q 422 1042 414 1031 q 446 1054 431 1054 q 470 1040 461 1054 q 479 1014 479 1025 q 470 968 479 992 q 446 926 461 944 q 410 895 431 907 q 367 883 390 883 m 100 0 q 62 13 76 0 q 40 47 47 26 q 29 94 32 68 q 26 143 26 119 l 26 782 q 48 838 26 819 q 93 856 69 856 q 162 838 129 856 q 221 768 194 821 q 267 677 246 719 q 308 593 288 635 q 348 508 328 551 q 392 417 368 465 q 406 392 399 401 q 419 382 413 382 q 429 407 429 382 l 429 749 q 431 790 429 771 q 442 824 433 810 q 466 847 450 839 q 508 856 482 856 q 549 848 535 856 q 569 829 563 840 q 576 805 575 818 q 576 781 576 792 l 576 157 q 565 44 576 88 q 522 0 554 0 q 471 19 494 0 q 435 57 447 38 q 416 88 431 64 q 381 147 401 111 q 337 225 361 182 q 288 313 313 268 q 242 403 264 358 q 204 485 219 447 q 185 515 192 515 q 175 422 175 515 l 175 201 q 158 47 175 93 q 100 0 140 0 m 472 760 q 480 789 476 771 q 490 817 483 807 q 492 831 497 826 q 483 838 488 836 q 468 824 475 839 q 457 789 461 808 q 453 753 453 769 q 460 736 453 738 q 465 740 461 736 q 472 760 468 744 m 61 756 q 68 787 64 769 q 76 814 72 804 q 76 833 86 833 q 66 829 72 833 q 53 807 60 825 q 47 783 49 799 q 43 754 44 768 q 43 730 42 740 q 49 719 44 719 q 61 756 57 719 m 61 681 q 60 687 61 683 q 54 690 58 690 q 47 686 49 690 q 44 681 44 682 q 51 668 44 668 q 61 681 61 668 m 96 32 q 82 54 96 38 q 68 103 68 71 q 61 118 68 118 q 54 99 54 118 q 66 48 54 71 q 89 25 78 25 q 96 32 96 25 z "},"":{"ha":617,"x_min":22,"x_max":603,"o":"m 363 886 q 342 875 351 875 q 312 893 329 875 q 278 935 294 911 q 251 983 263 958 q 236 1019 239 1007 q 247 1053 235 1035 q 276 1072 258 1072 q 308 1053 288 1072 q 360 989 328 1033 q 381 931 382 958 q 363 886 379 903 m 321 -12 q 188 24 244 -12 q 95 122 132 61 q 40 258 58 182 q 22 411 22 333 q 39 570 22 489 q 92 717 56 651 q 185 826 128 783 q 322 868 242 868 q 449 830 396 868 q 535 728 501 792 q 586 580 569 664 q 603 404 603 496 q 586 253 603 328 q 535 119 569 178 q 448 24 501 60 q 321 -12 394 -12 m 110 650 q 119 658 114 650 q 131 677 125 665 q 145 701 138 689 q 160 724 153 714 q 217 788 190 764 q 244 818 244 811 q 238 824 244 822 q 198 804 221 824 q 154 758 175 785 q 119 702 133 731 q 104 657 104 674 q 110 650 104 650 m 321 99 q 388 130 363 99 q 428 208 414 161 q 449 310 443 254 q 454 415 454 365 q 451 522 454 465 q 433 628 447 579 q 393 708 419 676 q 322 740 367 740 q 251 701 279 740 q 208 609 224 663 q 186 500 192 556 q 181 411 181 444 q 185 324 181 378 q 203 221 189 271 q 246 135 218 171 q 321 99 274 99 m 111 619 q 101 633 111 631 q 90 628 97 633 q 83 613 83 624 q 94 600 83 600 q 105 604 99 600 q 111 619 111 608 z "},"":{"ha":617,"x_min":22,"x_max":603,"o":"m 247 889 q 234 928 232 900 q 258 986 236 956 q 310 1050 290 1031 q 342 1069 331 1069 q 368 1052 353 1069 q 382 1019 383 1035 q 367 982 379 1006 q 340 935 356 958 q 306 896 324 913 q 272 879 288 879 q 260 882 265 879 q 247 889 254 885 m 321 -12 q 188 24 244 -12 q 95 122 132 61 q 40 258 58 182 q 22 411 22 333 q 39 570 22 489 q 92 717 56 651 q 185 826 128 783 q 322 868 242 868 q 449 830 396 868 q 535 728 501 792 q 586 580 569 664 q 603 404 603 496 q 586 253 603 328 q 535 119 569 178 q 448 24 501 60 q 321 -12 394 -12 m 110 650 q 119 658 114 650 q 131 677 125 665 q 145 701 138 689 q 160 724 153 714 q 217 788 190 764 q 244 818 244 811 q 238 824 244 822 q 198 804 221 824 q 154 758 175 785 q 119 702 133 731 q 104 657 104 674 q 110 650 104 650 m 321 99 q 388 130 363 99 q 428 208 414 161 q 449 310 443 254 q 454 415 454 365 q 451 522 454 465 q 433 628 447 579 q 393 708 419 676 q 322 740 367 740 q 251 701 279 740 q 208 609 224 663 q 186 500 192 556 q 181 411 181 444 q 185 324 181 378 q 203 221 189 271 q 246 135 218 171 q 321 99 274 99 m 111 619 q 101 633 111 631 q 90 628 97 633 q 83 613 83 624 q 94 600 83 600 q 105 604 99 600 q 111 619 111 608 z "}}}
